<?xml version="1.0" encoding="UTF-8" ?>
<!DOCTYPE svg PUBLIC "-//W3C//DTD SVG 1.1//EN" "http://www.w3.org/Graphics/SVG/1.1/DTD/svg11.dtd">
<svg width="180pt" height="180pt" viewBox="0 0 180 180" version="1.1" xmlns="http://www.w3.org/2000/svg">
<g id="#ffffffff">
<path fill="#ffffff" opacity="1.00" d=" M 0.00 0.00 L 180.00 0.00 L 180.00 180.00 L 0.00 180.00 L 0.00 0.00 M 76.05 18.05 C 64.56 23.34 55.26 32.40 47.39 42.12 C 51.47 44.76 54.36 49.18 54.83 54.05 C 56.07 60.37 55.36 66.87 56.49 73.21 C 53.90 74.53 51.77 76.92 51.87 79.99 C 51.57 85.74 53.25 93.94 60.22 94.63 C 61.59 100.59 64.93 105.81 68.69 110.54 C 70.58 112.38 69.41 115.21 68.32 117.16 C 66.05 122.01 60.42 123.58 55.71 125.02 C 44.41 128.76 31.79 128.38 21.28 134.44 C 10.86 141.00 8.73 154.63 8.98 166.00 C 63.26 166.00 117.55 166.00 171.83 166.00 C 171.94 160.46 170.55 155.09 169.30 149.74 C 167.51 142.62 162.99 135.89 156.06 132.97 C 145.86 128.91 134.72 128.33 124.34 124.87 C 119.69 123.43 113.95 122.02 111.93 117.02 C 110.62 114.55 109.05 110.89 111.54 108.64 C 115.03 104.61 117.86 99.89 118.75 94.57 C 120.98 94.22 123.72 93.84 124.28 91.21 C 125.87 86.74 129.29 81.38 126.20 76.83 C 124.75 74.58 121.77 75.50 119.56 75.07 C 121.12 73.17 122.91 71.44 124.23 69.36 C 132.12 56.84 128.70 38.05 116.33 29.65 C 113.05 27.08 108.05 28.08 105.36 24.65 C 101.76 20.87 97.47 17.40 92.23 16.32 C 86.88 14.20 81.18 16.28 76.05 18.05 Z" />
<path fill="#ffffff" opacity="1.00" d=" M 99.72 50.60 C 101.90 49.73 103.80 46.93 106.31 47.75 C 111.60 51.02 115.26 56.65 115.82 62.89 C 117.08 68.87 115.09 74.85 115.44 80.86 C 118.22 80.23 120.90 79.04 123.81 79.27 C 123.69 83.23 121.75 86.75 120.37 90.37 C 118.62 90.26 116.87 90.12 115.12 90.23 C 113.87 92.63 115.22 95.69 113.80 98.11 C 110.92 104.34 106.08 109.68 100.28 113.31 C 92.54 118.07 81.52 117.66 74.91 111.11 C 69.25 105.81 63.87 98.79 64.15 90.66 C 62.00 90.26 59.67 90.37 57.70 89.32 C 55.37 85.85 56.43 81.45 56.38 77.54 C 59.16 77.87 61.88 78.52 64.59 79.23 C 65.04 74.95 63.77 70.47 65.65 66.41 C 68.44 59.86 75.60 56.47 82.18 54.98 C 88.16 54.40 94.35 53.47 99.72 50.60 Z" />
<path fill="#ffffff" opacity="1.00" d=" M 93.91 120.05 C 98.40 119.25 102.34 116.82 106.09 114.36 C 107.81 117.61 109.46 120.92 111.64 123.90 C 108.19 132.69 105.05 141.60 101.71 150.44 C 99.18 145.77 97.22 140.84 95.26 135.92 C 97.18 133.56 100.28 131.08 99.31 127.65 C 97.52 123.69 92.65 123.77 88.95 123.91 C 86.68 124.19 83.76 124.26 82.58 126.61 C 80.26 130.15 84.10 133.39 86.15 135.98 C 84.00 140.75 82.43 145.82 79.63 150.27 C 75.89 141.68 72.56 132.90 68.85 124.29 C 70.48 121.39 72.08 118.48 73.65 115.55 C 79.37 119.82 86.90 121.77 93.91 120.05 Z" />
</g>
<g id="#000000ff">
<path fill="#000000" opacity="1.00" d=" M 76.05 18.05 C 81.18 16.28 86.88 14.20 92.23 16.32 C 97.47 17.40 101.76 20.87 105.36 24.65 C 108.05 28.08 113.05 27.08 116.33 29.65 C 128.70 38.05 132.12 56.84 124.23 69.36 C 122.91 71.44 121.12 73.17 119.56 75.07 C 121.77 75.50 124.75 74.58 126.20 76.83 C 129.29 81.38 125.87 86.74 124.28 91.21 C 123.72 93.84 120.98 94.22 118.75 94.57 C 117.86 99.89 115.03 104.61 111.54 108.64 C 109.05 110.89 110.62 114.55 111.93 117.02 C 113.95 122.02 119.69 123.43 124.34 124.87 C 134.72 128.33 145.86 128.91 156.06 132.97 C 162.99 135.89 167.51 142.62 169.30 149.74 C 170.55 155.09 171.94 160.46 171.83 166.00 C 117.55 166.00 63.26 166.00 8.98 166.00 C 8.73 154.63 10.86 141.00 21.28 134.44 C 31.79 128.38 44.41 128.76 55.71 125.02 C 60.42 123.58 66.05 122.01 68.32 117.16 C 69.41 115.21 70.58 112.38 68.69 110.54 C 64.93 105.81 61.59 100.59 60.22 94.63 C 53.25 93.94 51.57 85.74 51.87 79.99 C 51.77 76.92 53.90 74.53 56.49 73.21 C 55.36 66.87 56.07 60.37 54.83 54.05 C 54.36 49.18 51.47 44.76 47.39 42.12 C 55.26 32.40 64.56 23.34 76.05 18.05 M 99.72 50.60 C 94.35 53.47 88.16 54.40 82.18 54.98 C 75.60 56.47 68.44 59.86 65.65 66.41 C 63.77 70.47 65.04 74.95 64.59 79.23 C 61.88 78.52 59.16 77.87 56.38 77.54 C 56.43 81.45 55.37 85.85 57.70 89.32 C 59.67 90.37 62.00 90.26 64.15 90.66 C 63.87 98.79 69.25 105.81 74.91 111.11 C 81.52 117.66 92.54 118.07 100.28 113.31 C 106.08 109.68 110.92 104.34 113.80 98.11 C 115.22 95.69 113.87 92.63 115.12 90.23 C 116.87 90.12 118.62 90.26 120.37 90.37 C 121.75 86.75 123.69 83.23 123.81 79.27 C 120.90 79.04 118.22 80.23 115.44 80.86 C 115.09 74.85 117.08 68.87 115.82 62.89 C 115.26 56.65 111.60 51.02 106.31 47.75 C 103.80 46.93 101.90 49.73 99.72 50.60 M 93.91 120.05 C 86.90 121.77 79.37 119.82 73.65 115.55 C 72.08 118.48 70.48 121.39 68.85 124.29 C 72.56 132.90 75.89 141.68 79.63 150.27 C 82.43 145.82 84.00 140.75 86.15 135.98 C 84.10 133.39 80.26 130.15 82.58 126.61 C 83.76 124.26 86.68 124.19 88.95 123.91 C 92.65 123.77 97.52 123.69 99.31 127.65 C 100.28 131.08 97.18 133.56 95.26 135.92 C 97.22 140.84 99.18 145.77 101.71 150.44 C 105.05 141.60 108.19 132.69 111.64 123.90 C 109.46 120.92 107.81 117.61 106.09 114.36 C 102.34 116.82 98.40 119.25 93.91 120.05 Z" />
</g>
</svg>
