<?xml version="1.0" encoding="utf-8"?>
<!-- Generator: Adobe Illustrator 24.1.1, SVG Export Plug-In . SVG Version: 6.00 Build 0)  -->
<svg version="1.1" id="Layer_1" xmlns="http://www.w3.org/2000/svg" xmlns:xlink="http://www.w3.org/1999/xlink" x="0px" y="0px"
	 viewBox="0 0 467.9 131" style="enable-background:new 0 0 467.9 131;" xml:space="preserve">
<style type="text/css">
	.st0{fill:#A1A1A9;}
</style>
<g>
	<path class="st0" d="M472.2-151.5v120.7h120.7v-120.7H472.2z M573.2-90.3h-20.4v-20.4h-20.3v20.4v18.6h20.4h20.4v20.4h-20.4h-20.4
		h-20.4h-20.4v-20.4h20.4v-18.6v-20.4h20.4V-131h20.4v20.3h20.4L573.2-90.3L573.2-90.3z"/>
	<g>
		<path class="st0" d="M234.8-80.2l-2.7,10.1h-63.5c-3.4,0-6.6-0.9-9.4-2.8s-4.8-4.3-5.9-7.4c-0.8-1.7-1.3-3.8-1.3-6.3v-20.9
			l10.2-1.5c0,10.4,0.1,17.1,0.2,20.3c0,5.8,3.4,8.6,10.1,8.6h20.6l-0.1-0.2c-0.8-1.6-1.2-3.7-1.2-6.4v-9.6c0-2.4,0.4-4.5,1.2-6.4
			c1.8-4.3,4.8-7.3,9.1-8.9c2-1,4.1-1.4,6.3-1.4h9.8c2,0,4.1,0.5,6.4,1.4c4.2,1.6,7.2,4.6,8.9,8.9c0.9,2.1,1.4,4.3,1.4,6.4v16.1
			H234.8z M224.4-92.7c0-6.7-2.9-10.1-8.7-10.1h-5.3c-5.8,0-8.7,3.4-8.7,10.1v2.3c0,3.1,0.7,5.6,2.1,7.4c1.5,1.9,3.7,2.9,6.5,2.9h14
			L224.4-92.7L224.4-92.7z M208.6-128.4c0-1,0.3-1.8,1-2.4c0.7-0.7,1.4-1,2.4-1h7.4v6.9c0,1-0.3,1.8-1,2.4c-0.7,0.7-1.4,1-2.4,1
			h-7.4V-128.4z"/>
		<path class="st0" d="M243-70.1v-66.1l10.3-1.7v67.8C253.3-70.1,243-70.1,243-70.1z"/>
		<path class="st0" d="M282.5-65.5c0,2.5-0.4,4.6-1.2,6.4c-1.8,4.4-4.8,7.4-9.1,9.1c-2.2,0.8-4.3,1.2-6.3,1.2H259L257.4-59h6.3
			c2.9,0,5.1-0.9,6.6-2.8c1.4-1.8,2.1-4.2,2.1-7.3v-42.3l10.1-1.8L282.5-65.5L282.5-65.5z"/>
		<path class="st0" d="M282.3-70.1v-10.1h5.2c6.6,0,10.1-2.7,10.3-8.1v-20.8l10.2,1.5v18.7c0,4.4,1.7,7.2,5,8.5
			c-0.3-9.4,0.2-15.5,1.3-18.1c1.6-3.8,7.2-7.3,16.8-10.6c8.2-2.7,14.8-4.1,19.8-4.1c3.7,0,7,0.8,10,2.5c3.3,1.8,5.6,4.4,6.9,7.8
			c0.9,2,1.3,4.2,1.3,6.4v9.6c0,2.2-0.4,4.4-1.3,6.4c-1.7,4.4-4.7,7.4-8.9,9.1c-2.4,0.8-4.5,1.2-6.4,1.2h-38
			c-4.5,0-8.3-1.5-11.5-4.5c-3.2,3-7.1,4.5-11.5,4.5L282.3-70.1L282.3-70.1z M323.2-84.4c-0.1,1.9-0.1,3.3-0.1,4.2h27
			c2.9,0,5-1,6.5-2.9c1.4-1.8,2.1-4.2,2.1-7.4v-3.1c-0.3-6.2-3.1-9.2-8.6-9.2h-1c-4.1,0-9.1,1.1-14.9,3.2c-7.3,2.7-10.9,6-10.9,9.8
			C323.3-88,323.2-86.2,323.2-84.4z"/>
		<path class="st0" d="M367.6-70.1v-10.1h5.1c6.9,0,10.3-2.9,10.3-8.6v-24.3l10.3,1.8v24.8c0,2.1-0.4,4.2-1.3,6.3
			c-1.2,3-3.3,5.5-6.1,7.4c-2.7,1.9-5.9,2.8-9.3,2.8h-9V-70.1z M388.3-125.2c0,1-0.3,1.8-1,2.4c-0.7,0.7-1.5,1-2.4,1h-7.4v-6.9
			c0-0.9,0.3-1.6,1-2.3c0.7-0.7,1.5-1,2.4-1h7.4V-125.2z"/>
		<path class="st0" d="M396.6-53.5c0-4,1.9-6.7,5.6-8.2c1.1-0.4,2.2-0.7,3.4-0.7H419l1.2,6h-12.9c-2.9,0-4.4,1.5-4.5,4.6v1.5
			c0,3.2,1.4,4.9,4.2,5.1h14.8l-0.9,6.1h-27.4l-0.8-6.1h4.5c-0.3-0.9-0.4-1.8-0.4-2.8v-5.5H396.6z M401.6-70.1v-66.1l10.3-1.7v67.8
			C411.9-70.1,401.6-70.1,401.6-70.1z"/>
	</g>
</g>
<g>
	<g>
		<g>
			<path class="st0" d="M282.6,10.7v96.5H379V10.7H282.6z M363.3,59.7h-16.3V43.4h-16.3v16.3v14.9h16.3h16.3v16.3h-16.3h-16.3h-16.3
				h-16.3V74.5h16.3V59.7V43.4h16.3V27.1h16.3v16.3h16.3V59.7z"/>
			<g>
				<path class="st0" d="M139.2,52.8l-1.6,6.1H99c-2.1,0-4-0.6-5.7-1.7c-1.7-1.1-2.9-2.6-3.6-4.5c-0.5-1-0.8-2.3-0.8-3.8V36.2
					l6.2-0.9c0,6.3,0,10.4,0.1,12.3c0,3.5,2,5.2,6.1,5.2h12.5l-0.1-0.1c-0.5-1-0.7-2.3-0.7-3.9v-5.8c0-1.4,0.2-2.8,0.7-3.9
					c1.1-2.6,2.9-4.4,5.5-5.4c1.2-0.6,2.5-0.9,3.8-0.9h6c1.2,0,2.5,0.3,3.9,0.9c2.5,1,4.3,2.8,5.4,5.4c0.6,1.3,0.8,2.6,0.8,3.9V52.8
					z M132.9,45.2c0-4.1-1.8-6.1-5.3-6.1h-3.2c-3.5,0-5.3,2-5.3,6.1v1.4c0,1.9,0.4,3.4,1.3,4.5c0.9,1.2,2.2,1.8,4,1.8h8.5V45.2z
					 M123.3,23.5c0-0.6,0.2-1.1,0.6-1.5c0.4-0.4,0.9-0.6,1.4-0.6h4.5v4.2c0,0.6-0.2,1.1-0.6,1.5c-0.4,0.4-0.9,0.6-1.4,0.6h-4.5V23.5
					z"/>
				<path class="st0" d="M144.2,58.9V18.7l6.3-1v41.2H144.2z"/>
				<path class="st0" d="M168.2,61.7c0,1.5-0.2,2.8-0.7,3.9c-1.1,2.7-2.9,4.5-5.5,5.5c-1.4,0.5-2.6,0.7-3.8,0.7H154l-1-6.2h3.8
					c1.7,0,3.1-0.6,4-1.7c0.8-1.1,1.3-2.6,1.3-4.4V33.8l6.1-1.1V61.7z"/>
				<path class="st0" d="M168.1,58.9v-6.1h3.2c4,0,6.1-1.6,6.2-4.9V35.2l6.2,0.9v11.4c0,2.7,1,4.4,3,5.1c-0.2-5.7,0.1-9.4,0.8-11
					c1-2.3,4.4-4.5,10.2-6.4c5-1.7,9-2.5,12-2.5c2.2,0,4.3,0.5,6.1,1.5c2,1.1,3.4,2.7,4.2,4.7c0.5,1.2,0.8,2.5,0.8,3.9v5.8
					c0,1.4-0.3,2.7-0.8,3.9c-1,2.7-2.9,4.5-5.4,5.5c-1.4,0.5-2.8,0.7-3.9,0.7h-23.1c-2.7,0-5-0.9-7-2.7c-2,1.8-4.3,2.7-7,2.7H168.1z
					 M193,50.2c0,1.1-0.1,2-0.1,2.6h16.4c1.7,0,3.1-0.6,4-1.8c0.8-1.1,1.3-2.6,1.3-4.5v-1.9c-0.2-3.7-1.9-5.6-5.2-5.6h-0.6
					c-2.5,0-5.5,0.7-9.1,2c-4.4,1.7-6.6,3.7-6.6,5.9C193,48,193,49.1,193,50.2z"/>
				<path class="st0" d="M220,58.9v-6.1h3.1c4.2,0,6.2-1.7,6.2-5.2V32.8l6.3,1.1v15.1c0,1.3-0.3,2.6-0.8,3.8c-0.8,1.8-2,3.3-3.7,4.5
					c-1.7,1.1-3.6,1.7-5.7,1.7H220z M232.5,25.4c0,0.6-0.2,1.1-0.6,1.5c-0.4,0.4-0.9,0.6-1.5,0.6H226v-4.2c0-0.5,0.2-1,0.6-1.4
					c0.4-0.4,0.9-0.6,1.5-0.6h4.5V25.4z"/>
				<path class="st0" d="M237.6,69c0-2.4,1.1-4.1,3.4-5c0.6-0.3,1.3-0.4,2-0.4h8.1l0.7,3.6h-7.8c-1.8,0-2.7,0.9-2.7,2.8v0.9
					c0,2,0.8,3,2.5,3.1h9l-0.6,3.7h-16.6l-0.5-3.7h2.7c-0.2-0.5-0.2-1.1-0.2-1.7V69z M240.6,58.9V18.7l6.3-1v41.2H240.6z"/>
			</g>
		</g>
	</g>
	<g>
		<g>
			<path class="st0" d="M103.7,95.2c0.2-0.2,0.3-0.5,0.3-1v-6.6c0-0.2,0.1-0.2,0.2-0.2h0.8c0.2,0,0.2,0.1,0.2,0.2v6.6
				c0,0.9-0.2,1.5-0.6,1.9c-0.4,0.4-1,0.6-1.8,0.6H91.8c-1,0-1.7-0.2-2.1-0.6c-0.4-0.4-0.6-1-0.6-2v-5.1c0-0.2,0.1-0.2,0.2-0.2h0.8
				c0.2,0,0.2,0.1,0.2,0.2v5.1c0,0.4,0.1,0.8,0.3,1c0.2,0.2,0.5,0.3,0.8,0.3h11.4C103.3,95.5,103.6,95.4,103.7,95.2z M96.5,100.6
				c-0.2,0-0.2-0.1-0.2-0.2v-1.4c0-0.2,0.1-0.2,0.2-0.2h1.2c0.2,0,0.2,0.1,0.2,0.2v1.4c0,0.2-0.1,0.2-0.2,0.2H96.5z"/>
			<path class="st0" d="M119.3,95.6c-0.2,0.4-0.5,0.7-0.9,0.9c-0.4,0.2-0.9,0.3-1.6,0.3h-9c-0.2,0-0.2-0.1-0.2-0.2v-0.8
				c0-0.2,0.1-0.2,0.2-0.2h5v-11c0-0.2,0.1-0.2,0.2-0.2h0.8c0.2,0,0.2,0.1,0.2,0.2v11h3c0.4,0,0.7-0.1,0.8-0.3
				c0.2-0.2,0.3-0.5,0.3-1v-13c0-0.2,0.1-0.2,0.2-0.2h0.8c0.2,0,0.2,0.1,0.2,0.2v12.9c0,0.5,0.2,0.8,0.7,1.1c0.4,0.2,1,0.3,1.6,0.3
				h0.1c0.3,0,0.5,0,0.7,0.1c0.2,0.1,0.2,0.2,0.2,0.5c0,0.4-0.1,0.6-0.2,0.6c-0.1,0.1-0.4,0.1-0.7,0.1c-0.6,0-1.2-0.1-1.6-0.2
				C119.9,96.4,119.6,96.1,119.3,95.6z"/>
			<path class="st0" d="M136.6,95.3c-0.2,0.3-0.4,0.6-0.6,0.8c-0.3,0.2-0.6,0.3-0.9,0.4c-0.3,0.1-0.7,0.2-1.2,0.2
				c-0.4,0-0.9,0-1.5,0h-6.9c-0.1,0-0.3,0-0.4,0c-0.1,0-0.3-0.1-0.3-0.2c-0.2,0.1-0.3,0.1-0.5,0.2c-0.2,0-0.4,0-0.7,0H122
				c-0.3,0-0.5,0-0.7-0.1c-0.2-0.1-0.2-0.3-0.2-0.5c0-0.4,0.3-0.6,0.9-0.6h1.4c0.3,0,0.5,0,0.7-0.1c0.2-0.1,0.3-0.2,0.4-0.3
				c0.1-0.2,0.2-0.4,0.2-0.6c0-0.3,0.1-0.6,0.1-1V81.2c0-0.2,0.1-0.2,0.2-0.2h0.8c0.2,0,0.2,0.1,0.2,0.2l0,7.4
				c0.8-0.4,1.7-0.8,2.6-1.1c1-0.3,1.9-0.5,3-0.5c1.2,0,2.1,0.2,2.8,0.5c0.7,0.3,1.3,0.8,1.7,1.3c0.4,0.5,0.7,1.1,0.8,1.8
				s0.2,1.3,0.2,1.9c0,0.2,0,0.5,0,0.7c0,0.2,0,0.4,0,0.6c0,0.6,0.2,1,0.6,1.3c0.4,0.3,1,0.4,1.6,0.4h0.1c0.3,0,0.5,0,0.7,0.1
				c0.2,0.1,0.2,0.2,0.2,0.5c0,0.4-0.1,0.6-0.2,0.6c-0.1,0.1-0.4,0.1-0.7,0.1c-0.7,0-1.3-0.1-1.8-0.3
				C137.1,96.3,136.7,95.9,136.6,95.3z M133,95.5c0.5,0,0.9,0,1.3-0.1c0.3-0.1,0.6-0.2,0.8-0.4c0.2-0.2,0.4-0.5,0.5-0.9
				c0.1-0.4,0.1-1,0.1-1.6c0-0.6-0.1-1.2-0.2-1.7c-0.1-0.5-0.3-0.9-0.6-1.3c-0.3-0.4-0.7-0.6-1.2-0.8c-0.5-0.2-1.1-0.3-1.9-0.3
				c-0.5,0-1,0.1-1.6,0.2c-0.5,0.1-1,0.2-1.5,0.4c-0.5,0.2-1,0.3-1.4,0.5c-0.4,0.2-0.9,0.4-1.2,0.6V94c0,0.2,0,0.5-0.1,0.8
				c0,0.3-0.1,0.5-0.2,0.7H133z"/>
			<path class="st0" d="M139.4,96.8c-0.3,0-0.5,0-0.7-0.1c-0.2-0.1-0.2-0.2-0.2-0.5c0-0.3,0.1-0.5,0.2-0.6c0.1-0.1,0.4-0.1,0.7-0.1
				h1.7c0.4,0,0.7-0.1,0.9-0.3c0.2-0.2,0.3-0.5,0.3-1v-13c0-0.2,0.1-0.2,0.2-0.2h0.8c0.2,0,0.2,0.1,0.2,0.2v12.6
				c0,0.5,0,0.9-0.1,1.3c-0.1,0.4-0.2,0.7-0.4,0.9c-0.2,0.2-0.5,0.4-0.8,0.5s-0.8,0.2-1.4,0.2H139.4z"/>
			<path class="st0" d="M148.3,96.5c0,0.2-0.1,0.2-0.2,0.2h-0.8c-0.2,0-0.2-0.1-0.2-0.2V81.2c0-0.2,0.1-0.2,0.2-0.2h0.8
				c0.2,0,0.2,0.1,0.2,0.2V96.5z"/>
			<path class="st0" d="M160.9,96.9c-1.3,0-2.3-0.4-3-1.2c-0.7-0.8-1-2.1-1-3.8c0-3.3,1.4-4.9,4.1-4.9c2.7,0,4.1,1.6,4.1,4.9
				c0,1.7-0.3,3-1,3.8C163.3,96.5,162.3,96.9,160.9,96.9z M160.9,88.3c-1,0-1.7,0.3-2.1,1c-0.4,0.7-0.6,1.6-0.6,2.7
				c0,1.2,0.2,2.1,0.6,2.7c0.4,0.6,1.1,0.9,2.1,0.9c1,0,1.7-0.3,2.1-0.9c0.4-0.6,0.7-1.5,0.7-2.7c0-1.1-0.2-2-0.7-2.7
				C162.6,88.6,161.9,88.3,160.9,88.3z M158.8,85.1c-0.2,0-0.2-0.1-0.2-0.2v-1.4c0-0.2,0.1-0.2,0.2-0.2h1.2c0.2,0,0.2,0.1,0.2,0.2
				v1.4c0,0.2-0.1,0.2-0.2,0.2H158.8z M161.8,85.1c-0.2,0-0.2-0.1-0.2-0.2v-1.4c0-0.2,0.1-0.2,0.2-0.2h1.2c0.2,0,0.2,0.1,0.2,0.2
				v1.4c0,0.2-0.1,0.2-0.2,0.2H161.8z"/>
			<path class="st0" d="M166.6,101.3c-0.2,0-0.2-0.1-0.2-0.2v-0.8c0-0.2,0.1-0.2,0.2-0.2h0.5c0.6,0,1.1-0.2,1.4-0.5
				c0.3-0.3,0.5-0.8,0.5-1.5V87.6c0-0.2,0.1-0.2,0.2-0.2h0.8c0.2,0,0.2,0.1,0.2,0.2v10.3c0,1.1-0.3,1.9-0.8,2.5
				c-0.5,0.6-1.4,0.9-2.6,0.9H166.6z"/>
			<path class="st0" d="M175,96.5c0,0.2-0.1,0.2-0.2,0.2h-0.8c-0.2,0-0.2-0.1-0.2-0.2V81.2c0-0.2,0.1-0.2,0.2-0.2h0.8
				c0.2,0,0.2,0.1,0.2,0.2V96.5z"/>
			<path class="st0" d="M186.6,92.8c0,0.8-0.1,1.4-0.2,1.9c-0.1,0.5-0.3,0.9-0.5,1.2c-0.3,0.3-0.6,0.5-1,0.6
				c-0.4,0.1-0.9,0.2-1.5,0.2h-4.9c-0.2,0-0.2-0.1-0.2-0.2v-0.8c0-0.2,0.1-0.2,0.2-0.2h4.6c0.5,0,0.8,0,1.1-0.1
				c0.3-0.1,0.5-0.2,0.6-0.4c0.1-0.2,0.2-0.4,0.3-0.7c0-0.3,0.1-0.7,0.1-1.1v-2.3c0-0.9-0.2-1.5-0.7-1.9s-1.2-0.6-2.2-0.6h-2.7
				c-0.2,0-0.2-0.1-0.2-0.2v-0.8c0-0.2,0.1-0.2,0.2-0.2h3.1c0.6,0,1.1,0.1,1.6,0.2c0.5,0.2,0.9,0.4,1.2,0.7c0.3,0.3,0.6,0.7,0.8,1.2
				s0.3,1.1,0.3,1.8V92.8z"/>
			<path class="st0" d="M189,102.1c-0.1-0.2-0.2-0.4-0.3-0.6c-0.1-0.2-0.1-0.5-0.1-0.9c0-0.2,0-0.4,0.1-0.7c0.1-0.2,0.2-0.5,0.4-0.7
				c0.2-0.2,0.4-0.4,0.7-0.6c0.3-0.2,0.7-0.2,1.1-0.2c0.4,0,0.7,0.1,1,0.2c0.3,0.1,0.6,0.4,0.8,0.6c0,0.1,0,0.1,0,0.2
				c0,0,0,0.1-0.1,0.1l-0.3,0.3c-0.1,0.1-0.2,0.1-0.3,0c-0.1-0.2-0.3-0.3-0.5-0.4c-0.2-0.1-0.4-0.1-0.7-0.1c-0.4,0-0.7,0.1-0.9,0.4
				c-0.2,0.3-0.3,0.6-0.3,1c0,0.3,0.1,0.6,0.2,0.8c0.1,0.3,0.3,0.5,0.5,0.6h2.4c0.1,0,0.1,0.1,0.1,0.2v0.6c0,0.1,0,0.2-0.1,0.2h-4.5
				c-0.1,0-0.1-0.1-0.1-0.2v-0.6c0-0.1,0-0.2,0.1-0.2H189z M190.9,96.5c0,0.2-0.1,0.2-0.2,0.2h-0.8c-0.2,0-0.2-0.1-0.2-0.2V81.2
				c0-0.2,0.1-0.2,0.2-0.2h0.8c0.2,0,0.2,0.1,0.2,0.2V96.5z"/>
			<path class="st0" d="M202,96.8c-0.6,0-1,0.2-1.2,0.5s-0.3,0.7-0.3,1.1c0,0.6,0.1,1,0.4,1.2c0.3,0.3,0.8,0.4,1.5,0.4h1.5
				c0.2,0,0.2,0.1,0.2,0.2v0.8c0,0.2-0.1,0.2-0.2,0.2h-1.4c-2.2,0-3.4-1-3.4-2.9c0-0.6,0.1-1.1,0.3-1.5c0.2-0.4,0.4-0.7,0.7-0.9
				c0.3-0.2,0.6-0.4,0.9-0.5c0.3-0.1,0.6-0.1,0.9-0.1h4.5c0.5,0,0.8,0,1.1-0.1c0.3-0.1,0.5-0.2,0.6-0.4c0.1-0.2,0.2-0.4,0.3-0.8
				c0-0.3,0.1-0.7,0.1-1.2c0-0.7-0.1-1.4-0.2-2c-0.1-0.6-0.3-1.1-0.6-1.5c-0.3-0.4-0.6-0.7-1.1-0.9c-0.4-0.2-1-0.3-1.7-0.3
				c-0.5,0-1.1,0.1-1.6,0.3c-0.5,0.2-0.9,0.5-1.3,1c-0.1,0.1-0.2,0.2-0.3,0l-0.6-0.6c-0.1-0.1-0.2-0.2-0.1-0.3
				c0.4-0.5,0.9-0.9,1.5-1.3c0.6-0.3,1.4-0.5,2.4-0.5c1,0,1.8,0.2,2.5,0.5c0.6,0.3,1.1,0.8,1.5,1.3c0.4,0.5,0.6,1.2,0.7,1.9
				c0.1,0.7,0.2,1.4,0.2,2.1v1.1c0,0.5,0.2,0.9,0.5,1.2c0.4,0.3,0.8,0.4,1.4,0.4h0.4c0.3,0,0.5,0,0.7,0.1c0.2,0.1,0.2,0.3,0.2,0.5
				c0,0.3-0.1,0.5-0.2,0.5c-0.1,0.1-0.4,0.1-0.7,0.1c-0.6,0-1.2-0.1-1.7-0.2c-0.5-0.2-0.8-0.5-1-1.1c-0.2,0.5-0.6,0.8-1,1
				c-0.4,0.2-1,0.3-1.7,0.3H202z M205.3,100.7c-0.2,0-0.2-0.1-0.2-0.2V99c0-0.2,0.1-0.2,0.2-0.2h1.2c0.2,0,0.2,0.1,0.2,0.2v1.4
				c0,0.2-0.1,0.2-0.2,0.2H205.3z"/>
			<path class="st0" d="M219,96.9c-0.7,0-1.3-0.1-1.9-0.3c-0.6-0.2-1-0.5-1.3-1c-0.3,0.5-0.6,0.8-1,1c-0.4,0.1-0.8,0.2-1.2,0.2h-1.4
				c-0.3,0-0.5,0-0.7-0.1c-0.2-0.1-0.2-0.2-0.2-0.5c0-0.3,0.1-0.5,0.2-0.6c0.1-0.1,0.4-0.1,0.7-0.1h1.3c0.2,0,0.3,0,0.5-0.1
				c0.2-0.1,0.3-0.2,0.5-0.3s0.3-0.4,0.3-0.6c0.1-0.3,0.1-0.6,0.1-1c0-0.2,0-0.4,0-0.6c0-0.2,0-0.4,0-0.6c0-3.4,1.4-5.2,4.1-5.2
				c1.3,0,2.4,0.4,3,1.2c0.7,0.8,1,2.1,1,3.7c0,1.7-0.3,3-1,3.8C221.3,96.5,220.3,96.9,219,96.9z M219,88.3c-1,0-1.7,0.3-2.1,1
				c-0.4,0.7-0.6,1.6-0.6,2.7c0,1.2,0.2,2.1,0.6,2.7c0.4,0.6,1.1,0.9,2.1,0.9c1,0,1.7-0.3,2.1-0.9c0.4-0.6,0.7-1.5,0.7-2.7
				c0-1.1-0.2-2-0.7-2.7C220.7,88.6,220,88.3,219,88.3z"/>
			<path class="st0" d="M226.2,81.2c0-0.2,0.1-0.2,0.2-0.2h0.8c0.2,0,0.2,0.1,0.2,0.2v13c0,0.5,0.1,0.8,0.3,1
				c0.2,0.2,0.5,0.3,0.9,0.3h1.2c0.6,0,0.9,0.2,0.9,0.6c0,0.3-0.1,0.5-0.2,0.6c-0.1,0.1-0.4,0.1-0.7,0.1h-0.9c-1,0-1.7-0.2-2.1-0.6
				c-0.4-0.4-0.6-1-0.6-1.9V81.2z"/>
			<path class="st0" d="M229.8,96.8c-0.3,0-0.5,0-0.7-0.1c-0.2-0.1-0.2-0.2-0.2-0.5c0-0.3,0.1-0.5,0.2-0.6c0.1-0.1,0.4-0.1,0.7-0.1
				h1.7c0.4,0,0.7-0.1,0.9-0.3c0.2-0.2,0.3-0.5,0.3-1v-6.6c0-0.2,0.1-0.2,0.2-0.2h0.8c0.2,0,0.2,0.1,0.2,0.2v6.2
				c0,0.5,0,0.9-0.1,1.3c-0.1,0.4-0.2,0.7-0.4,0.9c-0.2,0.2-0.5,0.4-0.8,0.5c-0.3,0.1-0.8,0.2-1.4,0.2H229.8z M232.9,85.1
				c-0.2,0-0.2-0.1-0.2-0.2v-1.4c0-0.2,0.1-0.2,0.2-0.2h0.9c0.2,0,0.2,0.1,0.2,0.2v1.4c0,0.2-0.1,0.2-0.2,0.2H232.9z"/>
			<path class="st0" d="M239.7,93.7c0,0.6,0.2,1,0.6,1.3c0.4,0.3,1,0.4,1.6,0.4h0.1c0.3,0,0.5,0,0.7,0.1c0.2,0.1,0.2,0.2,0.2,0.5
				c0,0.4-0.1,0.6-0.2,0.6c-0.1,0.1-0.4,0.1-0.7,0.1c-0.5,0-1,0-1.3-0.1c-0.4-0.1-0.7-0.3-1-0.6v1.9c0,1.1-0.3,1.9-0.8,2.5
				c-0.5,0.6-1.4,0.9-2.6,0.9h-0.4c-0.2,0-0.2-0.1-0.2-0.2v-0.8c0-0.2,0.1-0.2,0.2-0.2h0.5c0.6,0,1.1-0.2,1.4-0.5s0.5-0.8,0.5-1.5
				V87.6c0-0.2,0.1-0.2,0.2-0.2h0.8c0.2,0,0.2,0.1,0.2,0.2V93.7z"/>
			<path class="st0" d="M242.1,96.8c-0.3,0-0.5,0-0.7-0.1c-0.2-0.1-0.2-0.2-0.2-0.5c0-0.3,0.1-0.5,0.2-0.6c0.1-0.1,0.4-0.1,0.7-0.1
				h1.7c0.4,0,0.7-0.1,0.9-0.3c0.2-0.2,0.3-0.5,0.3-1v-6.6c0-0.2,0.1-0.2,0.2-0.2h0.8c0.2,0,0.2,0.1,0.2,0.2v6.2
				c0,0.5,0,0.9-0.1,1.3c-0.1,0.4-0.2,0.7-0.4,0.9c-0.2,0.2-0.5,0.4-0.8,0.5c-0.3,0.1-0.8,0.2-1.4,0.2H242.1z M244.3,100.5
				c-0.2,0-0.2-0.1-0.2-0.2v-1.4c0-0.2,0.1-0.2,0.2-0.2h1.2c0.2,0,0.2,0.1,0.2,0.2v1.4c0,0.2-0.1,0.2-0.2,0.2H244.3z"/>
		</g>
		<g>
			<path class="st0" d="M95.2,117c-0.4,0-0.8,0-1.2-0.1c-0.4-0.1-0.8-0.2-1.1-0.3c-0.4-0.1-0.7-0.3-1-0.5c-0.3-0.2-0.5-0.3-0.8-0.5
				c-0.1-0.1-0.1-0.2,0-0.3l0.4-0.5c0.1-0.1,0.2-0.1,0.3,0c0.4,0.3,0.9,0.6,1.5,0.9c0.6,0.3,1.3,0.4,2,0.4c1,0,1.7-0.2,2.3-0.7
				c0.6-0.5,0.8-1.1,0.8-1.8c0-0.3,0-0.6-0.1-0.8c-0.1-0.3-0.3-0.5-0.5-0.7c-0.2-0.2-0.5-0.4-0.9-0.5c-0.4-0.1-0.8-0.3-1.4-0.3
				l-0.6-0.1c-1.2-0.2-2.1-0.5-2.6-1.1c-0.6-0.5-0.9-1.3-0.9-2.2c0-1.1,0.3-1.9,1-2.5c0.7-0.6,1.6-0.9,2.8-0.9
				c0.7,0,1.3,0.1,1.9,0.3c0.6,0.2,1.1,0.4,1.5,0.7c0.1,0.1,0.1,0.1,0,0.3l-0.4,0.6c-0.1,0.1-0.2,0.1-0.2,0c-0.5-0.3-1-0.5-1.4-0.7
				c-0.5-0.1-1-0.2-1.5-0.2c-0.9,0-1.5,0.2-2,0.7c-0.5,0.4-0.7,1-0.7,1.7c0,0.6,0.2,1.1,0.7,1.5c0.4,0.4,1.2,0.7,2.2,0.8l0.6,0.1
				c1.2,0.2,2.1,0.5,2.7,1.1c0.6,0.6,0.8,1.3,0.8,2.2c0,0.5-0.1,1-0.3,1.4c-0.2,0.4-0.5,0.8-0.8,1.1c-0.4,0.3-0.8,0.6-1.3,0.7
				C96.5,117,95.9,117,95.2,117z"/>
			<path class="st0" d="M104.7,116.9c-0.8,0-1.4-0.2-1.7-0.5c-0.3-0.3-0.5-0.9-0.5-1.8v-5.3c0-0.1,0-0.1-0.1-0.1h-0.9
				c-0.1,0-0.2-0.1-0.2-0.2v-0.5c0-0.1,0.1-0.2,0.2-0.2h0.9c0.1,0,0.1,0,0.1-0.1v-2.5c0-0.1,0.1-0.2,0.2-0.2h0.6
				c0.1,0,0.2,0.1,0.2,0.2v2.5c0,0.1,0,0.1,0.1,0.1h1.6c0.1,0,0.2,0.1,0.2,0.2v0.5c0,0.1-0.1,0.2-0.2,0.2h-1.6c-0.1,0-0.1,0-0.1,0.1
				v5.3c0,0.6,0.1,1,0.3,1.1c0.2,0.2,0.6,0.3,1.1,0.3h0.3c0.1,0,0.2,0.1,0.2,0.2v0.6c0,0.1-0.1,0.2-0.2,0.2H104.7z"/>
			<path class="st0" d="M113.3,116.9c-0.1,0-0.2-0.1-0.2-0.2v-1h0c-0.2,0.4-0.5,0.7-1,1c-0.4,0.2-0.9,0.4-1.5,0.4
				c-1,0-1.7-0.3-2.2-0.8c-0.5-0.6-0.8-1.4-0.8-2.4v-5.3c0-0.1,0.1-0.2,0.2-0.2h0.6c0.1,0,0.2,0.1,0.2,0.2v5c0,1.7,0.7,2.6,2.2,2.6
				c0.3,0,0.6-0.1,0.9-0.2c0.3-0.1,0.5-0.3,0.7-0.5c0.2-0.2,0.4-0.5,0.5-0.8c0.1-0.3,0.2-0.6,0.2-1v-5.2c0-0.1,0.1-0.2,0.2-0.2h0.6
				c0.1,0,0.2,0.1,0.2,0.2v8.2c0,0.1-0.1,0.2-0.2,0.2H113.3z"/>
			<path class="st0" d="M122.8,116.9c-0.1,0-0.2-0.1-0.2-0.2v-1h0c-0.2,0.4-0.5,0.7-0.9,1c-0.4,0.3-1,0.4-1.7,0.4
				c-1.5,0-2.5-0.7-2.9-2c-0.1-0.3-0.2-0.7-0.2-1.1c0-0.4-0.1-0.8-0.1-1.3c0-0.5,0-0.9,0.1-1.3c0-0.4,0.1-0.8,0.2-1.1
				c0.4-1.4,1.4-2,2.9-2c0.7,0,1.3,0.1,1.7,0.4c0.4,0.3,0.7,0.6,0.9,1h0v-4.7c0-0.1,0.1-0.2,0.2-0.2h0.6c0.1,0,0.2,0.1,0.2,0.2v11.8
				c0,0.1-0.1,0.2-0.2,0.2H122.8z M120.2,116.1c0.5,0,1-0.1,1.4-0.4c0.4-0.3,0.6-0.6,0.8-1.1c0.1-0.2,0.1-0.5,0.2-0.8
				c0-0.3,0.1-0.7,0.1-1.2c0-0.5,0-0.9-0.1-1.2c0-0.3-0.1-0.6-0.2-0.8c-0.2-0.5-0.4-0.9-0.8-1.1c-0.4-0.3-0.8-0.4-1.4-0.4
				c-0.6,0-1,0.1-1.4,0.4c-0.4,0.3-0.6,0.6-0.8,1.1c-0.1,0.3-0.2,0.6-0.2,0.9c0,0.3,0,0.7,0,1.1c0,0.4,0,0.7,0,1.1
				c0,0.3,0.1,0.6,0.2,0.9c0.2,0.5,0.4,0.9,0.8,1.1C119.2,116,119.7,116.1,120.2,116.1z"/>
			<path class="st0" d="M129.8,117c-0.8,0-1.5-0.2-2.1-0.6c-0.6-0.4-1-0.9-1.2-1.7c-0.1-0.3-0.1-0.6-0.2-0.9c0-0.3-0.1-0.8-0.1-1.3
				c0-0.5,0-1,0.1-1.3c0-0.3,0.1-0.6,0.2-0.9c0.2-0.7,0.6-1.3,1.2-1.6c0.5-0.4,1.2-0.6,2-0.6c0.8,0,1.4,0.2,2,0.6
				c0.6,0.4,1,0.9,1.2,1.6c0.1,0.3,0.2,0.6,0.2,0.9s0.1,0.8,0.1,1.4c0,0.1-0.1,0.2-0.2,0.2h-5.6c-0.1,0-0.1,0-0.1,0.1
				c0,0.4,0,0.6,0,0.9c0,0.2,0.1,0.4,0.1,0.6c0.2,0.6,0.5,1,0.9,1.3c0.4,0.3,0.9,0.4,1.5,0.4c0.6,0,1-0.1,1.4-0.3
				c0.4-0.2,0.7-0.5,1-0.8c0.1-0.1,0.2-0.1,0.3,0l0.4,0.4c0.1,0.1,0.1,0.2,0,0.3c-0.3,0.4-0.7,0.8-1.3,1
				C131.2,116.9,130.6,117,129.8,117z M132.1,112c0.1,0,0.1,0,0.1-0.1c0-0.3,0-0.5,0-0.7c0-0.2-0.1-0.4-0.1-0.5
				c-0.2-0.5-0.4-0.9-0.8-1.2c-0.4-0.3-0.9-0.4-1.4-0.4c-0.6,0-1,0.1-1.4,0.4c-0.4,0.3-0.7,0.7-0.8,1.2c-0.1,0.2-0.1,0.3-0.1,0.5
				c0,0.2,0,0.4,0,0.7c0,0.1,0,0.1,0.1,0.1H132.1z"/>
			<path class="st0" d="M141.6,116.9c-0.1,0-0.2-0.1-0.2-0.2v-5c0-1.7-0.7-2.6-2.2-2.6c-0.7,0-1.2,0.2-1.7,0.6
				c-0.4,0.4-0.7,1-0.7,1.8v5.2c0,0.1-0.1,0.2-0.2,0.2H136c-0.1,0-0.2-0.1-0.2-0.2v-8.2c0-0.1,0.1-0.2,0.2-0.2h0.6
				c0.1,0,0.2,0.1,0.2,0.2v1h0c0.2-0.4,0.5-0.8,1-1c0.4-0.3,0.9-0.4,1.6-0.4c1,0,1.7,0.3,2.2,0.8c0.5,0.6,0.8,1.4,0.8,2.4v5.3
				c0,0.1-0.1,0.2-0.2,0.2H141.6z"/>
			<path class="st0" d="M148,116.9c-0.8,0-1.4-0.2-1.7-0.5c-0.3-0.3-0.5-0.9-0.5-1.8v-5.3c0-0.1,0-0.1-0.1-0.1h-0.9
				c-0.1,0-0.2-0.1-0.2-0.2v-0.5c0-0.1,0.1-0.2,0.2-0.2h0.9c0.1,0,0.1,0,0.1-0.1v-2.5c0-0.1,0.1-0.2,0.2-0.2h0.6
				c0.1,0,0.2,0.1,0.2,0.2v2.5c0,0.1,0,0.1,0.1,0.1h1.6c0.1,0,0.2,0.1,0.2,0.2v0.5c0,0.1-0.1,0.2-0.2,0.2h-1.6c-0.1,0-0.1,0-0.1,0.1
				v5.3c0,0.6,0.1,1,0.3,1.1c0.2,0.2,0.6,0.3,1.1,0.3h0.3c0.1,0,0.2,0.1,0.2,0.2v0.6c0,0.1-0.1,0.2-0.2,0.2H148z"/>
			<path class="st0" d="M166.7,116.9c-0.1,0-0.2-0.1-0.2-0.2v-5c0-1.7-0.8-2.6-2.3-2.6c-0.7,0-1.2,0.2-1.6,0.6
				c-0.4,0.4-0.7,1-0.7,1.8v5.2c0,0.1-0.1,0.2-0.2,0.2h-0.6c-0.1,0-0.2-0.1-0.2-0.2v-5c0-1.7-0.7-2.6-2.2-2.6
				c-0.7,0-1.2,0.2-1.7,0.6c-0.4,0.4-0.7,1-0.7,1.8v5.2c0,0.1-0.1,0.2-0.2,0.2h-0.6c-0.1,0-0.2-0.1-0.2-0.2v-8.2
				c0-0.1,0.1-0.2,0.2-0.2h0.6c0.1,0,0.2,0.1,0.2,0.2v1h0c0.2-0.4,0.5-0.8,1-1c0.4-0.3,0.9-0.4,1.6-0.4c1.3,0,2.2,0.5,2.6,1.6h0
				c0.3-0.5,0.6-0.9,1.1-1.2c0.5-0.3,1-0.4,1.7-0.4c1,0,1.7,0.3,2.2,0.8c0.5,0.6,0.8,1.4,0.8,2.4v5.3c0,0.1-0.1,0.2-0.2,0.2H166.7z"
				/>
			<path class="st0" d="M173.5,109.1c-0.5,0-0.9,0.1-1.3,0.2c-0.3,0.1-0.6,0.3-0.9,0.5c-0.1,0.1-0.2,0.1-0.3,0l-0.3-0.4
				c-0.1-0.1,0-0.2,0.1-0.3c0.3-0.3,0.7-0.5,1.1-0.6c0.4-0.1,1-0.2,1.6-0.2c0.5,0,1,0,1.4,0.1c0.4,0.1,0.7,0.3,1,0.5
				c0.3,0.2,0.4,0.5,0.6,0.9c0.1,0.4,0.2,0.8,0.2,1.3v5.7c0,0.1-0.1,0.2-0.2,0.2H176c-0.1,0-0.2-0.1-0.2-0.2v-0.9h0
				c-0.2,0.4-0.5,0.7-0.9,0.9c-0.4,0.2-1,0.4-1.7,0.4c-0.9,0-1.6-0.2-2.1-0.6c-0.5-0.4-0.8-1.1-0.8-1.9c0-0.9,0.3-1.5,0.8-1.9
				c0.6-0.4,1.4-0.6,2.4-0.6h2.2c0.1,0,0.1,0,0.1-0.1V111c0-0.3,0-0.6-0.1-0.9c-0.1-0.3-0.2-0.5-0.4-0.6c-0.2-0.2-0.4-0.3-0.7-0.3
				C174.3,109.1,174,109.1,173.5,109.1z M173.3,116.2c0.7,0,1.3-0.2,1.8-0.5c0.4-0.3,0.7-0.8,0.7-1.4v-1.3c0-0.1,0-0.1-0.1-0.1h-2
				c-0.9,0-1.5,0.1-1.8,0.4c-0.4,0.3-0.6,0.7-0.6,1.3c0,0.5,0.2,0.9,0.5,1.2C172.1,116,172.6,116.2,173.3,116.2z"/>
			<path class="st0" d="M185.6,116.9c-0.1,0-0.2-0.1-0.2-0.2v-5c0-1.7-0.7-2.6-2.2-2.6c-0.7,0-1.2,0.2-1.7,0.6
				c-0.4,0.4-0.7,1-0.7,1.8v5.2c0,0.1-0.1,0.2-0.2,0.2h-0.6c-0.1,0-0.2-0.1-0.2-0.2v-8.2c0-0.1,0.1-0.2,0.2-0.2h0.6
				c0.1,0,0.2,0.1,0.2,0.2v1h0c0.2-0.4,0.5-0.8,1-1c0.4-0.3,0.9-0.4,1.6-0.4c1,0,1.7,0.3,2.2,0.8c0.5,0.6,0.8,1.4,0.8,2.4v5.3
				c0,0.1-0.1,0.2-0.2,0.2H185.6z"/>
			<path class="st0" d="M192.4,109.1c-0.5,0-0.9,0.1-1.3,0.2c-0.3,0.1-0.6,0.3-0.9,0.5c-0.1,0.1-0.2,0.1-0.3,0l-0.3-0.4
				c-0.1-0.1,0-0.2,0.1-0.3c0.3-0.3,0.7-0.5,1.1-0.6c0.4-0.1,1-0.2,1.6-0.2c0.5,0,1,0,1.4,0.1c0.4,0.1,0.7,0.3,1,0.5
				c0.3,0.2,0.4,0.5,0.6,0.9c0.1,0.4,0.2,0.8,0.2,1.3v5.7c0,0.1-0.1,0.2-0.2,0.2h-0.6c-0.1,0-0.2-0.1-0.2-0.2v-0.9h0
				c-0.2,0.4-0.5,0.7-0.9,0.9c-0.4,0.2-1,0.4-1.7,0.4c-0.9,0-1.6-0.2-2.1-0.6c-0.5-0.4-0.8-1.1-0.8-1.9c0-0.9,0.3-1.5,0.8-1.9
				c0.6-0.4,1.4-0.6,2.4-0.6h2.2c0.1,0,0.1,0,0.1-0.1V111c0-0.3,0-0.6-0.1-0.9c-0.1-0.3-0.2-0.5-0.4-0.6c-0.2-0.2-0.4-0.3-0.7-0.3
				C193.2,109.1,192.8,109.1,192.4,109.1z M192.2,116.2c0.7,0,1.3-0.2,1.8-0.5c0.4-0.3,0.7-0.8,0.7-1.4v-1.3c0-0.1,0-0.1-0.1-0.1h-2
				c-0.9,0-1.5,0.1-1.8,0.4c-0.4,0.3-0.6,0.7-0.6,1.3c0,0.5,0.2,0.9,0.5,1.2C191,116,191.5,116.2,192.2,116.2z"/>
			<path class="st0" d="M201.4,120.3c-0.6,0-1.2-0.1-1.7-0.4c-0.5-0.2-0.9-0.5-1.1-0.9c-0.1-0.1,0-0.2,0-0.3l0.4-0.4
				c0.1-0.1,0.2-0.1,0.3,0c0.5,0.6,1.2,0.9,2.1,0.9c0.8,0,1.4-0.2,1.8-0.6c0.4-0.4,0.6-1.1,0.6-2v-1.2h0c-0.2,0.4-0.5,0.8-0.9,1
				c-0.4,0.3-0.9,0.4-1.6,0.4c-0.7,0-1.3-0.2-1.8-0.5c-0.5-0.4-0.8-0.9-1-1.5c-0.1-0.3-0.2-0.6-0.2-1c0-0.4-0.1-0.8-0.1-1.3
				c0-0.5,0-1,0.1-1.3c0-0.4,0.1-0.7,0.2-1c0.2-0.7,0.6-1.2,1-1.5c0.5-0.4,1.1-0.5,1.8-0.5c0.7,0,1.2,0.1,1.6,0.4
				c0.4,0.3,0.7,0.6,0.9,1h0v-1c0-0.1,0.1-0.2,0.2-0.2h0.6c0.1,0,0.2,0.1,0.2,0.2v8.2c0,1.2-0.3,2.1-0.9,2.7
				C203.3,120,202.4,120.3,201.4,120.3z M201.5,116c0.5,0,0.9-0.1,1.3-0.3c0.4-0.2,0.6-0.6,0.8-1.2c0.1-0.2,0.1-0.5,0.2-0.8
				c0-0.3,0-0.7,0-1.1s0-0.8,0-1.1c0-0.3-0.1-0.6-0.2-0.8c-0.2-0.5-0.5-0.9-0.8-1.2c-0.4-0.2-0.8-0.3-1.3-0.3
				c-1.1,0-1.8,0.5-2.1,1.5c-0.1,0.2-0.2,0.5-0.2,0.8c0,0.3-0.1,0.7-0.1,1.1c0,0.8,0.1,1.5,0.3,1.9C199.7,115.5,200.4,116,201.5,116
				z"/>
			<path class="st0" d="M211,117c-0.8,0-1.5-0.2-2.1-0.6c-0.6-0.4-1-0.9-1.2-1.7c-0.1-0.3-0.1-0.6-0.2-0.9c0-0.3-0.1-0.8-0.1-1.3
				c0-0.5,0-1,0.1-1.3c0-0.3,0.1-0.6,0.2-0.9c0.2-0.7,0.6-1.3,1.2-1.6c0.5-0.4,1.2-0.6,2-0.6c0.8,0,1.4,0.2,2,0.6
				c0.6,0.4,1,0.9,1.2,1.6c0.1,0.3,0.2,0.6,0.2,0.9s0.1,0.8,0.1,1.4c0,0.1-0.1,0.2-0.2,0.2h-5.6c-0.1,0-0.1,0-0.1,0.1
				c0,0.4,0,0.6,0,0.9c0,0.2,0.1,0.4,0.1,0.6c0.2,0.6,0.5,1,0.9,1.3c0.4,0.3,0.9,0.4,1.5,0.4c0.6,0,1-0.1,1.4-0.3
				c0.4-0.2,0.7-0.5,1-0.8c0.1-0.1,0.2-0.1,0.3,0l0.4,0.4c0.1,0.1,0.1,0.2,0,0.3c-0.3,0.4-0.7,0.8-1.3,1
				C212.4,116.9,211.7,117,211,117z M213.3,112c0.1,0,0.1,0,0.1-0.1c0-0.3,0-0.5,0-0.7c0-0.2-0.1-0.4-0.1-0.5
				c-0.2-0.5-0.4-0.9-0.8-1.2c-0.4-0.3-0.9-0.4-1.4-0.4c-0.6,0-1,0.1-1.4,0.4c-0.4,0.3-0.7,0.7-0.8,1.2c-0.1,0.2-0.1,0.3-0.1,0.5
				c0,0.2,0,0.4,0,0.7c0,0.1,0,0.1,0.1,0.1H213.3z"/>
			<path class="st0" d="M224.3,109.1c-0.5,0-0.9,0.1-1.3,0.2s-0.6,0.3-0.9,0.5c-0.1,0.1-0.2,0.1-0.3,0l-0.3-0.4
				c-0.1-0.1,0-0.2,0.1-0.3c0.3-0.3,0.7-0.5,1.1-0.6c0.4-0.1,1-0.2,1.6-0.2c0.5,0,1,0,1.4,0.1c0.4,0.1,0.7,0.3,1,0.5
				c0.3,0.2,0.4,0.5,0.6,0.9c0.1,0.4,0.2,0.8,0.2,1.3v5.7c0,0.1-0.1,0.2-0.2,0.2h-0.6c-0.1,0-0.2-0.1-0.2-0.2v-0.9h0
				c-0.2,0.4-0.5,0.7-0.9,0.9c-0.4,0.2-1,0.4-1.7,0.4c-0.9,0-1.5-0.2-2.1-0.6c-0.5-0.4-0.8-1.1-0.8-1.9c0-0.9,0.3-1.5,0.8-1.9
				c0.6-0.4,1.4-0.6,2.4-0.6h2.2c0.1,0,0.1,0,0.1-0.1V111c0-0.3,0-0.6-0.1-0.9c-0.1-0.3-0.2-0.5-0.4-0.6c-0.2-0.2-0.4-0.3-0.7-0.3
				C225.1,109.1,224.7,109.1,224.3,109.1z M224,116.2c0.7,0,1.3-0.2,1.8-0.5c0.4-0.3,0.7-0.8,0.7-1.4v-1.3c0-0.1,0-0.1-0.1-0.1h-2
				c-0.9,0-1.5,0.1-1.8,0.4c-0.4,0.3-0.6,0.7-0.6,1.3c0,0.5,0.2,0.9,0.5,1.2C222.9,116,223.4,116.2,224,116.2z"/>
			<path class="st0" d="M230.8,120.1c-0.1,0-0.2-0.1-0.2-0.2v-11.4c0-0.1,0.1-0.2,0.2-0.2h0.6c0.1,0,0.2,0.1,0.2,0.2v1h0
				c0.2-0.4,0.5-0.7,0.9-1c0.4-0.3,1-0.4,1.7-0.4c1.5,0,2.4,0.7,2.9,2c0.1,0.3,0.2,0.7,0.2,1.1c0,0.4,0.1,0.8,0.1,1.3
				c0,0.5,0,0.9-0.1,1.3c0,0.4-0.1,0.8-0.2,1.1c-0.5,1.4-1.4,2-2.9,2c-0.7,0-1.3-0.1-1.7-0.4c-0.4-0.3-0.7-0.6-0.9-1h0v4.3
				c0,0.1-0.1,0.2-0.2,0.2H230.8z M234,116.1c0.6,0,1-0.1,1.4-0.4c0.4-0.3,0.6-0.6,0.8-1.1c0.1-0.3,0.2-0.6,0.2-0.9
				c0-0.3,0-0.7,0-1.1c0-0.4,0-0.7,0-1.1c0-0.3-0.1-0.7-0.2-0.9c-0.2-0.5-0.4-0.9-0.8-1.1c-0.4-0.3-0.8-0.4-1.4-0.4
				c-0.5,0-1,0.1-1.4,0.4c-0.4,0.3-0.6,0.6-0.8,1.1c-0.1,0.2-0.1,0.5-0.2,0.8s-0.1,0.7-0.1,1.2c0,0.5,0,0.9,0.1,1.2
				c0,0.3,0.1,0.6,0.2,0.8c0.2,0.5,0.4,0.9,0.8,1.1C233,116,233.5,116.1,234,116.1z"/>
			<path class="st0" d="M240.3,120.1c-0.1,0-0.2-0.1-0.2-0.2v-11.4c0-0.1,0.1-0.2,0.2-0.2h0.6c0.1,0,0.2,0.1,0.2,0.2v1h0
				c0.2-0.4,0.5-0.7,0.9-1c0.4-0.3,1-0.4,1.7-0.4c1.5,0,2.4,0.7,2.9,2c0.1,0.3,0.2,0.7,0.2,1.1c0,0.4,0.1,0.8,0.1,1.3
				c0,0.5,0,0.9-0.1,1.3c0,0.4-0.1,0.8-0.2,1.1c-0.5,1.4-1.4,2-2.9,2c-0.7,0-1.3-0.1-1.7-0.4c-0.4-0.3-0.7-0.6-0.9-1h0v4.3
				c0,0.1-0.1,0.2-0.2,0.2H240.3z M243.5,116.1c0.6,0,1-0.1,1.4-0.4c0.4-0.3,0.6-0.6,0.8-1.1c0.1-0.3,0.2-0.6,0.2-0.9
				c0-0.3,0-0.7,0-1.1c0-0.4,0-0.7,0-1.1c0-0.3-0.1-0.7-0.2-0.9c-0.2-0.5-0.4-0.9-0.8-1.1c-0.4-0.3-0.8-0.4-1.4-0.4
				c-0.5,0-1,0.1-1.4,0.4c-0.4,0.3-0.6,0.6-0.8,1.1c-0.1,0.2-0.1,0.5-0.2,0.8s-0.1,0.7-0.1,1.2c0,0.5,0,0.9,0.1,1.2
				c0,0.3,0.1,0.6,0.2,0.8c0.2,0.5,0.4,0.9,0.8,1.1C242.5,116,243,116.1,243.5,116.1z"/>
		</g>
	</g>
</g>
</svg>
