<svg cache-id="d01722366bbc4d87965b0b5f49894551" id="insarf_blue" xmlns="http://www.w3.org/2000/svg" xmlns:xlink="http://www.w3.org/1999/xlink" viewBox="0 0 311 268" shape-rendering="geometricPrecision" text-rendering="geometricPrecision"><g id="insarf_blue-s-g1"><path id="insarf_blue-s-path1" d="M107.3,25.4v96.5h96.4v-96.5h-96.4Zm80.6,49h-16.3v-16.3h-16.3v16.3v14.9h16.3h16.3v16.3h-16.3-16.3-16.2-16.3v-16.4h16.3v-14.8-16.3h16.3v-16.3h16.3v16.3h16.3v16.3h-.1Z" fill="#1d4ed8"/><g id="insarf_blue-s-g2"><g id="insarf_blue-s-g3"><path id="insarf_blue-s-path2" d="M123.8,170.9l-1.6,6.1h-38.6c-2.1,0-4-.6-5.7-1.7s-2.9-2.6-3.6-4.5c-.5-1-.8-2.3-.8-3.8v-12.7l6.2-.9c0,6.3,0,10.4.1,12.3c0,3.5,2,5.2,6.1,5.2h12.5l-.1-.1c-.5-1-.7-2.3-.7-3.9v-5.8c0-1.4.2-2.8.7-3.9c1.1-2.6,2.9-4.4,5.5-5.4c1.2-.6,2.5-.9,3.8-.9h6c1.2,0,2.5.3,3.9.9c2.5,1,4.3,2.8,5.4,5.4.6,1.3.8,2.6.8,3.9l.1,9.8v0Zm-6.3-7.6c0-4.1-1.8-6.1-5.3-6.1h-3.2c-3.5,0-5.3,2-5.3,6.1v1.4c0,1.9.4,3.4,1.3,4.5.9,1.2,2.2,1.8,4,1.8h8.5v-7.7ZM108,141.6c0-.6.2-1.1.6-1.5s.9-.6,1.4-.6h4.5v4.2c0,.6-.2,1.1-.6,1.5s-.9.6-1.4.6h-4.5c-.1,0-.1-4.2,0-4.2Z" transform="translate(-139 0)" fill="#1d4ed8"/><path id="insarf_blue-s-path3" d="M128.9,177v-40.2l6.3-1v41.2h-6.3Z" transform="translate(195 0)" fill="#1d4ed8"/><path id="insarf_blue-s-path4" d="M152.9,179.8c0,1.5-.2,2.8-.7,3.9-1.1,2.7-2.9,4.5-5.5,5.5-1.4.5-2.6.7-3.8.7h-4.2l-1-6.2h3.8c1.7,0,3.1-.6,4-1.7.8-1.1,1.3-2.6,1.3-4.4v-25.7l6.1-1.1v29v0Z" transform="translate(195 0)" fill="#1d4ed8"/><path id="insarf_blue-s-path5" d="M152.8,177v-6.1h3.2c4,0,6.1-1.6,6.2-4.9v-12.7l6.2.9v11.4c0,2.7,1,4.4,3,5.1-.2-5.7.1-9.4.8-11c1-2.3,4.4-4.5,10.2-6.4c5-1.7,9-2.5,12-2.5c2.2,0,4.3.5,6.1,1.5c2,1.1,3.4,2.7,4.2,4.7.5,1.2.8,2.5.8,3.9v5.8c0,1.4-.3,2.7-.8,3.9-1,2.7-2.9,4.5-5.4,5.5-1.4.5-2.8.7-3.9.7h-23.1c-2.7,0-5-.9-7-2.7-2,1.8-4.3,2.7-7,2.7h-5.5c0,0,0,.2,0,.2Zm24.9-8.7c0,1.1-.1,2-.1,2.6h16.4c1.7,0,3.1-.6,4-1.8.8-1.1,1.3-2.6,1.3-4.5v-1.9c-.2-3.7-1.9-5.6-5.2-5.6h-.6c-2.5,0-5.5.7-9.1,2-4.4,1.7-6.6,3.7-6.6,5.9-.1,1.1-.1,2.2-.1,3.3Z" transform="translate(195 0)" fill="#1d4ed8"/><path id="insarf_blue-s-path6" d="M204.7,177v-6.1h3.1c4.2,0,6.2-1.7,6.2-5.2v-14.8l6.3,1.1v15.1c0,1.3-.3,2.6-.8,3.8-.8,1.8-2,3.3-3.7,4.5-1.7,1.1-3.6,1.7-5.7,1.7l-5.4-.1v0Zm12.5-33.5c0,.6-.2,1.1-.6,1.5s-.9.6-1.5.6h-4.4v-4.2c0-.5.2-1,.6-1.4s.9-.6,1.5-.6h4.5v4.1h-.1Z" transform="translate(195 0)" fill="#1d4ed8"/><path id="insarf_blue-s-path7" d="M222.3,187.1c0-2.4,1.1-4.1,3.4-5c.6-.3,1.3-.4,2-.4h8.1l.7,3.6h-7.8c-1.8,0-2.7.9-2.7,2.8v.9c0,2,.8,3,2.5,3.1h9l-.6,3.7h-16.6l-.5-3.7h2.7c-.2-.5-.2-1.1-.2-1.7v-3.3v0Zm3-10.1v-40.2l6.3-1v41.2h-6.3Z" transform="translate(195 0)" fill="#1d4ed8"/></g><g id="insarf_blue-s-g4" transform="translate(.000001 70)"><path id="insarf_blue-s-path8" d="M88.3,213.3c.2-.2.3-.5.3-1v-6.6c0-.2.1-.2.2-.2h.8c.2,0,.2.1.2.2v6.6c0,.9-.2,1.5-.6,1.9s-1,.6-1.8.6h-11c-1,0-1.7-.2-2.1-.6s-.6-1-.6-2v-5.1c0-.2.1-.2.2-.2h.8c.2,0,.2.1.2.2v5.1c0,.4.1.8.3,1s.5.3.8.3h11.4c.6.1.8,0,.9-.2Zm-7.2,5.4c-.2,0-.2-.1-.2-.2v-1.4c0-.2.1-.2.2-.2h1.2c.2,0,.2.1.2.2v1.4c0,.2-.1.2-.2.2h-1.2Z" fill="#1d4ed8"/><path id="insarf_blue-s-path9" d="M101.5,211.3c0,0,2,3.1,1.6,3.3s-.9.3-1.6.3h-9c-.2,0-.2-.1-.2-.2v-.8c0-.2.1-.2.2-.2h5v-11c0-.2.1-.2.2-.2h.8c.2,0,.2.1.2.2v11h3c.4,0,.7-.1.8-.3.2-.2.3-.5.3-1v-13c0-.2.1-.2.2-.2h.8c.2,0,.2.1.2.2v12.9c0,.5.2.8.7,1.1.4.2,1,.3,1.6.3h.1c.3,0,.5,0,.7.1s.2.2.2.5c0,.4-.1.6-.2.6-.1.1-.4.1-.7.1-.6,0-1.2-.1-1.6-.2-.2-.3-3.1-3-3.3-3.5Z" fill="#1d4ed8"/><path id="insarf_blue-s-path10" d="M121.3,213.4c-.2.3-.4.6-.6.8-.3.2-.6.3-.9.4s-.7.2-1.2.2c-.4,0-.9,0-1.5,0h-6.9c-.1,0-.3,0-.4,0s-.3-.1-.3-.2c-.2.1-.3.1-.5.2-.2,0-.4,0-.7,0h-1.6c-.3,0-.5,0-.7-.1s-.2-.3-.2-.5c0-.4.3-.6.9-.6h1.4c.3,0,.5,0,.7-.1s.3-.2.4-.3c.1-.2.2-.4.2-.6c0-.3.1-.6.1-1v-12.3c0-.2.1-.2.2-.2h.8c.2,0,.2.1.2.2v7.4c.8-.4,1.7-.8,2.6-1.1c1-.3,1.9-.5,3-.5c1.2,0,2.1.2,2.8.5s1.3.8,1.7,1.3.7,1.1.8,1.8.2,1.3.2,1.9c0,.2,0,.5,0,.7s0,.4,0,.6c0,.6.2,1,.6,1.3s1,.4,1.6.4h.1c.3,0,.5,0,.7.1s.2.2.2.5c0,.4-.1.6-.2.6-.1.1-.4.1-.7.1-.7,0-1.3-.1-1.8-.3s-1-.6-1-1.2Zm-3.7.2c.5,0,.9,0,1.3-.1.3-.1.6-.2.8-.4s.4-.5.5-.9.1-1,.1-1.6-.1-1.2-.2-1.7-.3-.9-.6-1.3-.7-.6-1.2-.8-1.1-.3-1.9-.3c-.5,0-1,.1-1.6.2-.5.1-1,.2-1.5.4s-1,.3-1.4.5-.9.4-1.2.6v3.9c0,.2,0,.5-.1.8c0,.3-.1.5-.2.7h7.2Z" fill="#1d4ed8"/><path id="insarf_blue-s-path11" d="M124,214.9c-.3,0-.5,0-.7-.1s-.2-.2-.2-.5.1-.5.2-.6.4-.1.7-.1h1.7c.4,0,.7-.1.9-.3s.3-.5.3-1v-13c0-.2.1-.2.2-.2h.8c.2,0,.2.1.2.2v12.6c0,.5,0,.9-.1,1.3s-.2.7-.4.9-.5.4-.8.5-.8.2-1.4.2l-1.4.1v0Z" fill="#1d4ed8"/><path id="insarf_blue-s-path12" d="M133,214.6c0,.2-.1.2-.2.2h-.8c-.2,0-.2-.1-.2-.2v-15.3c0-.2.1-.2.2-.2h.8c.2,0,.2.1.2.2v15.3Z" fill="#1d4ed8"/><path id="insarf_blue-s-path13" d="M145.5,215c-1.3,0-2.3-.4-3-1.2s-1-2.1-1-3.8c0-3.3,1.4-4.9,4.1-4.9s4.1,1.6,4.1,4.9c0,1.7-.3,3-1,3.8s-1.7,1.2-3.2,1.2Zm0-8.6c-1,0-1.7.3-2.1,1s-.6,1.6-.6,2.7c0,1.2.2,2.1.6,2.7s1.1.9,2.1.9s1.7-.3,2.1-.9.7-1.5.7-2.7c0-1.1-.2-2-.7-2.7-.3-.7-1.1-1-2.1-1Zm-2-3.2c-.2,0-.2-.1-.2-.2v-1.4c0-.2.1-.2.2-.2h1.2c.2,0,.2.1.2.2v1.4c0,.2-.1.2-.2.2h-1.2Zm3,0c-.2,0-.2-.1-.2-.2v-1.4c0-.2.1-.2.2-.2h1.2c.2,0,.2.1.2.2v1.4c0,.2-.1.2-.2.2h-1.2Z" fill="#1d4ed8"/><path id="insarf_blue-s-path14" d="M151.3,219.4c-.2,0-.2-.1-.2-.2v-.8c0-.2.1-.2.2-.2h.5c.6,0,1.1-.2,1.4-.5s.5-.8.5-1.5v-10.5c0-.2.1-.2.2-.2h.8c.2,0,.2.1.2.2v10.3c0,1.1-.3,1.9-.8,2.5s-1.4.9-2.6.9h-.2Z" fill="#1d4ed8"/><path id="insarf_blue-s-path15" d="M159.7,214.6c0,.2-.1.2-.2.2h-.8c-.2,0-.2-.1-.2-.2v-15.3c0-.2.1-.2.2-.2h.8c.2,0,.2.1.2.2v15.3Z" fill="#1d4ed8"/><path id="insarf_blue-s-path16" d="M171.3,210.9c0,.8-.1,1.4-.2,1.9s-.3.9-.5,1.2c-.3.3-.6.5-1,.6s-.9.2-1.5.2h-4.9c-.2,0-.2-.1-.2-.2v-.8c0-.2.1-.2.2-.2h4.6c.5,0,.8,0,1.1-.1s.5-.2.6-.4.2-.4.3-.7c0-.3.1-.7.1-1.1v-2.3c0-.9-.2-1.5-.7-1.9s-1.2-.6-2.2-.6h-2.7c-.2,0-.2-.1-.2-.2v-.8c0-.2.1-.2.2-.2h3.1c.6,0,1.1.1,1.6.2.5.2.9.4,1.2.7s.6.7.8,1.2.3,1.1.3,1.8v1.7v0Z" fill="#1d4ed8"/><path id="insarf_blue-s-path17" d="M173.7,220.2c-.1-.2-.2-.4-.3-.6s-.1-.5-.1-.9c0-.2,0-.4.1-.7.1-.2.2-.5.4-.7s.4-.4.7-.6.7-.2,1.1-.2.7.1,1,.2.6.4.8.6c0,.1,0,.1,0,.2c0,0,0,.1-.1.1l-.3.3c-.1.1-.2.1-.3,0-.1-.2-.3-.3-.5-.4s-.4-.1-.7-.1c-.4,0-.7.1-.9.4s-.3.6-.3,1c0,.3.1.6.2.8.1.3.3.5.5.6h2.4c.1,0,.1.1.1.2v.6c0,.1,0,.2-.1.2h-4.5c-.1,0-.1-.1-.1-.2v-.6c0-.1,0-.2.1-.2-.1,0,.8,0,.8,0Zm1.8-5.6c0,.2-.1.2-.2.2h-.8c-.2,0-.2-.1-.2-.2v-15.3c0-.2.1-.2.2-.2h.8c.2,0,.2.1.2.2v15.3Z" fill="#1d4ed8"/><path id="insarf_blue-s-path18" d="M186.7,214.9c-.6,0-1,.2-1.2.5s-.3.7-.3,1.1c0,.6.1,1,.4,1.2.3.3.8.4,1.5.4h1.5c.2,0,.2.1.2.2v.8c0,.2-.1.2-.2.2h-1.4c-2.2,0-3.4-1-3.4-2.9c0-.6.1-1.1.3-1.5s.4-.7.7-.9.6-.4.9-.5.6-.1.9-.1h4.5c.5,0,.8,0,1.1-.1s.5-.2.6-.4.2-.4.3-.8c0-.3.1-.7.1-1.2c0-.7-.1-1.4-.2-2s-.3-1.1-.6-1.5-.6-.7-1.1-.9c-.4-.2-1-.3-1.7-.3-.5,0-1.1.1-1.6.3s-.9.5-1.3,1c-.1.1-.2.2-.3,0l-.6-.6c-.1-.1-.2-.2-.1-.3.4-.5.3,1,.3,1s2.6-2.8,3.6-2.8s1.8.2,2.5.5c.6.3,1.1.8,1.5,1.3s.6,1.2.7,1.9.2,1.4.2,2.1v1.1c0,.5.2.9.5,1.2.4.3.8.4,1.4.4h.4c.3,0,.5,0,.7.1s.2.3.2.5c0,.3-.1.5-.2.5-.1.1-.4.1-.7.1-.6,0-1.2-.1-1.7-.2-.5-.2-.8-.5-1-1.1-.2.5-.6.8-1,1s-1,.3-1.7.3h-4.7c0,0,0,.4,0,.4Zm3.3,3.9c-.2,0-.2-.1-.2-.2v-1.5c0-.2.1-.2.2-.2h1.2c.2,0,.2.1.2.2v1.4c0,.2-.1.2-.2.2l-1.2.1v0Z" fill="#1d4ed8"/><path id="insarf_blue-s-path19" d="M203.7,215c-.7,0-1.3-.1-1.9-.3s-1-.5-1.3-1c-.3.5-.6.8-1,1-.4.1-.8.2-1.2.2h-1.4c-.3,0-.5,0-.7-.1s-.2-.2-.2-.5.1-.5.2-.6.4-.1.7-.1h1.3c.2,0,.3,0,.5-.1s.3-.2.5-.3.3-.4.3-.6c.1-.3.1-.6.1-1c0-.2,0-.4,0-.6s0-.4,0-.6c0-3.4,1.4-5.2,4.1-5.2c1.3,0,2.4.4,3,1.2.7.8,1,2.1,1,3.7c0,1.7-.3,3-1,3.8-.7.7-1.7,1.1-3,1.1Zm0-8.6c-1,0-1.7.3-2.1,1s-.6,1.6-.6,2.7c0,1.2.2,2.1.6,2.7s1.1.9,2.1.9s1.7-.3,2.1-.9.7-1.5.7-2.7c0-1.1-.2-2-.7-2.7-.4-.7-1.1-1-2.1-1Z" fill="#1d4ed8"/><path id="insarf_blue-s-path20" d="M210.9,199.3c0-.2.1-.2.2-.2h.8c.2,0,.2.1.2.2v13c0,.5.1.8.3,1s.5.3.9.3h1.2c.6,0,.9.2.9.6c0,.3-.1.5-.2.6s-.4.1-.7.1h-.9c-1,0-1.7-.2-2.1-.6s-.6-1-.6-1.9v-13.1v0Z" fill="#1d4ed8"/><path id="insarf_blue-s-path21" d="M214.5,214.9c-.3,0-.5,0-.7-.1s-.2-.2-.2-.5.1-.5.2-.6.4-.1.7-.1h1.7c.4,0,.7-.1.9-.3s.3-.5.3-1v-6.6c0-.2.1-.2.2-.2h.8c.2,0,.2.1.2.2v6.2c0,.5,0,.9-.1,1.3s-.2.7-.4.9-.5.4-.8.5-.8.2-1.4.2l-1.4.1v0Zm3-11.7c-.2,0-.2-.1-.2-.2v-1.4c0-.2.1-.2.2-.2h.9c.2,0,.2.1.2.2v1.4c0,.2-.1.2-.2.2h-.9Z" fill="#1d4ed8"/><path id="insarf_blue-s-path22" d="M224.4,211.8c0,.6.2,1,.6,1.3s1,.4,1.6.4h.1c.3,0,.5,0,.7.1s.2.2.2.5c0,.4-.1.6-.2.6-.1.1-.4.1-.7.1-.5,0-1,0-1.3-.1-.4-.1-.7-.3-1-.6v1.9c0,1.1-.3,1.9-.8,2.5s-1.4.9-2.6.9h-.4c-.2,0-.2-.1-.2-.2v-.8c0-.2.1-.2.2-.2h.5c.6,0,1.1-.2,1.4-.5s.5-.8.5-1.5v-10.5c0-.2.1-.2.2-.2h.8c.2,0,.2.1.2.2v6.1h.2Z" fill="#1d4ed8"/><path id="insarf_blue-s-path23" d="M226.8,214.9c-.3,0-.5,0-.7-.1s-.2-.2-.2-.5.1-.5.2-.6.4-.1.7-.1h1.7c.4,0,.7-.1.9-.3s.3-.5.3-1v-6.6c0-.2.1-.2.2-.2h.8c.2,0,.2.1.2.2v6.2c0,.5,0,.9-.1,1.3s-.2.7-.4.9-.5.4-.8.5-.8.2-1.4.2l-1.4.1v0Zm2.2,3.7c-.2,0-.2-.1-.2-.2v-1.4c0-.2.1-.2.2-.2h1.2c.2,0,.2.1.2.2v1.4c0,.2-.1.2-.2.2h-1.2Z" fill="#1d4ed8"/><path id="insarf_blue-s-path24" d="M79.8,235.1c-.4,0-.8,0-1.2-.1s-.8-.2-1.1-.3c-.4-.1-.7-.3-1-.5s-.5-.3-.8-.5c-.1-.1-.1-.2,0-.3l.4-.5c.1-.1.2-.1.3,0c.4.3.9.6,1.5.9s1.3.4,2,.4c1,0,1.7-.2,2.3-.7s.8-1.1.8-1.8c0-.3,0-.6-.1-.8-.1-.3-.3-.5-.5-.7s-.5-.4-.9-.5-.8-.3-1.4-.3l-.6-.1c-1.2-.2-2.1-.5-2.6-1.1-.6-.5-.9-1.3-.9-2.2c0-1.1.3-1.9,1-2.5s1.6-.9,2.8-.9c.7,0,1.3.1,1.9.3s1.1.4,1.5.7c.1.1.1.1,0,.3l-.4.6c-.1.1-.2.1-.2,0-.5-.3-1-.5-1.4-.7-.5-.1-1-.2-1.5-.2-.9,0-1.5.2-2,.7-.5.4-.7,1-.7,1.7c0,.6.2,1.1.7,1.5.4.4,1.2.7,2.2.8l.6.1c1.2.2,2.1.5,2.7,1.1s.8,1.3.8,2.2c0,.5-.1,1-.3,1.4s-.5.8-.8,1.1c-.4.3-.8.6-1.3.7-.5.2-1,.2-1.8.2Z" fill="#1d4ed8"/><path id="insarf_blue-s-path25" d="M89.3,235c-.8,0-1.4-.2-1.7-.5s-.5-.9-.5-1.8v-5.3c0-.1,0-.1-.1-.1h-.9c-.1,0-.2-.1-.2-.2v-.5c0-.1.1-.2.2-.2h1c.1,0,.1,0,.1-.1v-2.5c0-.1.1-.2.2-.2h.6c.1,0,.2.1.2.2v2.5c0,.1,0,.1.1.1h1.6c.1,0,.2.1.2.2v.5c0,.1-.1.2-.2.2h-1.6c-.1,0-.1,0-.1.1v5.3c0,.6.1,1,.3,1.1.2.2.6.3,1.1.3h.3c.1,0,.2.1.2.2v.6c0,.1-.1.2-.2.2l-.6-.1v0Z" fill="#1d4ed8"/><path id="insarf_blue-s-path26" d="M98,235c-.1,0-.2-.1-.2-.2v-1v0c-.2.4-.5.7-1,1-.4.2-.9.4-1.5.4-1,0-1.7-.3-2.2-.8-.5-.6-.8-1.4-.8-2.4v-5.3c0-.1.1-.2.2-.2h.6c.1,0,.2.1.2.2v5c0,1.7.7,2.6,2.2,2.6.3,0,.6-.1.9-.2s.5-.3.7-.5.4-.5.5-.8.2-.6.2-1v-5.2c0-.1.1-.2.2-.2h.6c.1,0,.2.1.2.2v8.2c0,.1-.1.2-.2.2s-.6,0-.6,0Z" fill="#1d4ed8"/><path id="insarf_blue-s-path27" d="M107.5,235c-.1,0-.2-.1-.2-.2v-1v0c-.2.4-.5.7-.9,1s-1,.4-1.7.4c-1.5,0-2.5-.7-2.9-2-.1-.3-.2-.7-.2-1.1s-.1-.8-.1-1.3s0-.9.1-1.3c0-.4.1-.8.2-1.1.4-1.4,1.4-2,2.9-2c.7,0,1.3.1,1.7.4s.7.6.9,1v0-4.7c0-.1.1-.2.2-.2h.6c.1,0,.2.1.2.2v11.8c0,.1-.1.2-.2.2l-.6-.1v0Zm-2.7-.8c.5,0,1-.1,1.4-.4s.6-.6.8-1.1c.1-.2.1-.5.2-.8c0-.3.1-.7.1-1.2s0-.9-.1-1.2c0-.3-.1-.6-.2-.8-.2-.5-.4-.9-.8-1.1-.4-.3-.8-.4-1.4-.4s-1,.1-1.4.4-.6.6-.8,1.1c-.1.3-.2.6-.2.9s0,.7,0,1.1s0,.7,0,1.1c0,.3.1.6.2.9.2.5.4.9.8,1.1.4.3.9.4,1.4.4Z" fill="#1d4ed8"/><path id="insarf_blue-s-path28" d="M114.5,235.1c-.8,0-1.5-.2-2.1-.6s-1-.9-1.2-1.7c-.1-.3-.1-.6-.2-.9c0-.3-.1-.8-.1-1.3s0-1,.1-1.3c0-.3.1-.6.2-.9.2-.7.6-1.3,1.2-1.6.5-.4,1.2-.6,2-.6s1.4.2,2,.6s1,.9,1.2,1.6c.1.3.2.6.2.9s.1.8.1,1.4c0,.1-.1.2-.2.2h-5.6c-.1,0-.1,0-.1.1c0,.4,0,.6,0,.9c0,.2.1.4.1.6.2.6.5,1,.9,1.3s.9.4,1.5.4s1-.1,1.4-.3.7-.5,1-.8c.1-.1.2-.1.3,0l.4.4c.1.1.1.2,0,.3-.3.4-.7.8-1.3,1-.5.2-1,.3-1.8.3Zm2.3-5c.1,0,.1,0,0,0c.1-.4.1-.6.1-.8s-.1-.4-.1-.5c-.2-.5-.4-.9-.8-1.2s-.9-.4-1.4-.4c-.6,0-1,.1-1.4.4s-.7.7-.8,1.2c-.1.2-.1.3-.1.5s0,.4,0,.7c0,.1,0,.1.1.1c0,0,4.4,0,4.4,0Z" fill="#1d4ed8"/><path id="insarf_blue-s-path29" d="M126.3,235c-.1,0-.2-.1-.2-.2v-5c0-1.7-.7-2.6-2.2-2.6-.7,0-1.2.2-1.7.6-.4.4-.7,1-.7,1.8v5.2c0,.1-.1.2-.2.2h-.6c-.1,0-.2-.1-.2-.2v-8.2c0-.1.1-.2.2-.2h.6c.1,0,.2.1.2.2v1v0c.2-.4.5-.8,1-1c.4-.3.9-.4,1.6-.4c1,0,1.7.3,2.2.8.5.6.8,1.4.8,2.4v5.3c0,.1-.1.2-.2.2l-.6.1v0Z" fill="#1d4ed8"/><path id="insarf_blue-s-path30" d="M132.7,235c-.8,0-1.4-.2-1.7-.5s-.5-.9-.5-1.8v-5.3c0-.1,0-.1-.1-.1h-.9c-.1,0-.2-.1-.2-.2v-.5c0-.1.1-.2.2-.2h.9c.1,0,.1,0,.1-.1v-2.5c0-.1.1-.2.2-.2h.6c.1,0,.2.1.2.2v2.5c0,.1,0,.1.1.1h1.6c.1,0,.2.1.2.2v.5c0,.1-.1.2-.2.2h-1.6c-.1,0-.1,0-.1.1v5.3c0,.6.1,1,.3,1.1.2.2.6.3,1.1.3h.3c.1,0,.2.1.2.2v.6c0,.1-.1.2-.2.2l-.5-.1v0Z" fill="#1d4ed8"/><path id="insarf_blue-s-path31" d="M151.4,235c-.1,0-.2-.1-.2-.2v-5c0-1.7-.8-2.6-2.3-2.6-.7,0-1.2.2-1.6.6s-.7,1-.7,1.8v5.2c0,.1-.1.2-.2.2h-.6c-.1,0-.2-.1-.2-.2v-5c0-1.7-.7-2.6-2.2-2.6-.7,0-1.2.2-1.7.6-.4.4-.7,1-.7,1.8v5.2c0,.1-.1.2-.2.2h-.6c-.1,0-.2-.1-.2-.2v-8.2c0-.1.1-.2.2-.2h.6c.1,0,.2.1.2.2v1v0c.2-.4.5-.8,1-1c.4-.3.9-.4,1.6-.4c1.3,0,2.2.5,2.6,1.6v0c.3-.5.6-.9,1.1-1.2s1-.4,1.7-.4c1,0,1.7.3,2.2.8.5.6.8,1.4.8,2.4v5.3c0,.1-.1.2-.2.2l-.4.1v0Z" fill="#1d4ed8"/><path id="insarf_blue-s-path32" d="M158.2,227.2c-.5,0-.9.1-1.3.2-.3.1-.6.3-.9.5-.1.1-.2.1-.3,0l-.3-.4c-.1-.1,0-.2.1-.3.3-.3.7-.5,1.1-.6s1-.2,1.6-.2c.5,0,1,0,1.4.1s.7.3,1,.5.4.5.6.9c.1.4.2.8.2,1.3v5.7c0,.1-.1.2-.2.2h-.5c-.1,0-.2-.1-.2-.2v-.9v0c-.2.4-.5.7-.9.9s-1,.4-1.7.4c-.9,0-1.6-.2-2.1-.6s-.8-1.1-.8-1.9c0-.9.3-1.5.8-1.9.6-.4,1.4-.6,2.4-.6h2.2c.1,0,.1,0,.1-.1v-1.1c0-.3,0-.6-.1-.9s-.2-.5-.4-.6c-.2-.2-.4-.3-.7-.3-.3-.1-.6-.1-1.1-.1Zm-.2,7.1c.7,0,1.3-.2,1.8-.5.4-.3.7-.8.7-1.4v-1.3c0-.1,0-.1-.1-.1h-2c-.9,0-1.5.1-1.8.4-.4.3-.6.7-.6,1.3c0,.5.2.9.5,1.2.3.2.8.4,1.5.4Z" fill="#1d4ed8"/><path id="insarf_blue-s-path33" d="M170.3,235c-.1,0-.2-.1-.2-.2v-5c0-1.7-.7-2.6-2.2-2.6-.7,0-1.2.2-1.7.6-.4.4-.7,1-.7,1.8v5.2c0,.1-.1.2-.2.2h-.6c-.1,0-.2-.1-.2-.2v-8.2c0-.1.1-.2.2-.2h.6c.1,0,.2.1.2.2v1v0c.2-.4.5-.8,1-1c.4-.3.9-.4,1.6-.4c1,0,1.7.3,2.2.8.5.6.8,1.4.8,2.4v5.3c0,.1-.1.2-.2.2l-.6.1v0Z" fill="#1d4ed8"/><path id="insarf_blue-s-path34" d="M177,227.2c-.5,0-.9.1-1.3.2-.3.1-.6.3-.9.5-.1.1-.2.1-.3,0l-.3-.4c-.1-.1,0-.2.1-.3.3-.3.7-.5,1.1-.6s1-.2,1.6-.2c.5,0,1,0,1.4.1s.7.3,1,.5.4.5.6.9c.1.4.2.8.2,1.3v5.7c0,.1-.1.2-.2.2h-.6c-.1,0-.2-.1-.2-.2v-.9v0c-.2.4-.5.7-.9.9s-1,.4-1.7.4c-.9,0-1.6-.2-2.1-.6s-.8-1.1-.8-1.9c0-.9.3-1.5.8-1.9.6-.4,1.4-.6,2.4-.6h2.2c.1,0,.1,0,.1-.1v-1.1c0-.3,0-.6-.1-.9s-.2-.5-.4-.6c-.2-.2-.4-.3-.7-.3-.1-.1-.5-.1-1-.1Zm-.1,7.1c.7,0,1.3-.2,1.8-.5.4-.3.7-.8.7-1.4v-1.3c0-.1,0-.1-.1-.1h-2c-.9,0-1.5.1-1.8.4-.4.3-.6.7-.6,1.3c0,.5.2.9.5,1.2.3.2.8.4,1.5.4Z" fill="#1d4ed8"/><path id="insarf_blue-s-path35" d="M186,238.4c-.6,0-1.2-.1-1.7-.4-.5-.2-.9-.5-1.1-.9-.1-.1,0-.2,0-.3l.4-.4c.1-.1.2-.1.3,0c.5.6,1.2.9,2.1.9.8,0,1.4-.2,1.8-.6s.6-1.1.6-2v-1.2v0c-.2.4-.5.8-.9,1-.4.3-.9.4-1.6.4s-1.3-.2-1.8-.5c-.5-.4-.8-.9-1-1.5-.1-.3-.2-.6-.2-1s-.1-.8-.1-1.3s0-1,.1-1.3c0-.4.1-.7.2-1c.2-.7.6-1.2,1-1.5.5-.4,1.1-.5,1.8-.5s1.2.1,1.6.4.7.6.9,1v0-1c0-.1.1-.2.2-.2h.6c.1,0,.2.1.2.2v8.2c0,1.2-.3,2.1-.9,2.7-.5.5-1.5.8-2.5.8Zm.2-4.3c.5,0,.9-.1,1.3-.3s.6-.6.8-1.2c.1-.2.1-.5.2-.8c0-.3,0-.7,0-1.1s0-.8,0-1.1-.1-.6-.2-.8c-.2-.5-.5-.9-.8-1.2-.4-.2-.8-.3-1.3-.3-1.1,0-1.8.5-2.1,1.5-.1.2-.2.5-.2.8s-.1.7-.1,1.1c0,.8.1,1.5.3,1.9.3,1,.9,1.5,2.1,1.5Z" fill="#1d4ed8"/><path id="insarf_blue-s-path36" d="M195.7,235.1c-.8,0-1.5-.2-2.1-.6s-1-.9-1.2-1.7c-.1-.3-.1-.6-.2-.9c0-.3-.1-.8-.1-1.3s0-1,.1-1.3c0-.3.1-.6.2-.9.2-.7.6-1.3,1.2-1.6.5-.4,1.2-.6,2-.6s1.4.2,2,.6s1,.9,1.2,1.6c.1.3.2.6.2.9s.1.8.1,1.4c0,.1-.1.2-.2.2h-5.6c-.1,0-.1,0-.1.1c0,.4,0,.6,0,.9c0,.2.1.4.1.6.2.6.5,1,.9,1.3s.9.4,1.5.4s1-.1,1.4-.3.7-.5,1-.8c.1-.1.2-.1.3,0l.4.4c.1.1.1.2,0,.3-.3.4-.7.8-1.3,1-.5.2-1.1.3-1.8.3Zm2.3-5c.1,0,.1,0,.1-.1c0-.3,0-.5,0-.7s-.1-.4-.1-.5c-.2-.5-.4-.9-.8-1.2s-.9-.4-1.4-.4c-.6,0-1,.1-1.4.4s-.7.7-.8,1.2c-.1.2-.1.3-.1.5s0,.4,0,.7c0,.1,0,.1.1.1h4.4Z" fill="#1d4ed8"/><path id="insarf_blue-s-path37" d="M209,227.2c-.5,0-.9.1-1.3.2s-.6.3-.9.5c-.1.1-.2.1-.3,0l-.3-.4c-.1-.1,0-.2.1-.3.3-.3.7-.5,1.1-.6s1-.2,1.6-.2c.5,0,1,0,1.4.1s.7.3,1,.5.4.5.6.9c.1.4.2.8.2,1.3v5.7c0,.1-.1.2-.2.2h-.6c-.1,0-.2-.1-.2-.2v-.9v0c-.2.4-.5.7-.9.9s-1,.4-1.7.4c-.9,0-1.5-.2-2.1-.6-.5-.4-.8-1.1-.8-1.9c0-.9.3-1.5.8-1.9.6-.4,1.4-.6,2.4-.6h2.2c.1,0,.1,0,.1-.1v-1.1c0-.3,0-.6-.1-.9s-.2-.5-.4-.6c-.2-.2-.4-.3-.7-.3-.2-.1-.6-.1-1-.1Zm-.3,7.1c.7,0,1.3-.2,1.8-.5.4-.3.7-.8.7-1.4v-1.3c0-.1,0-.1-.1-.1h-2c-.9,0-1.5.1-1.8.4-.4.3-.6.7-.6,1.3c0,.5.2.9.5,1.2.3.2.8.4,1.5.4Z" fill="#1d4ed8"/><path id="insarf_blue-s-path38" d="M215.5,238.2c-.1,0-.2-.1-.2-.2v-11.4c0-.1.1-.2.2-.2h.6c.1,0,.2.1.2.2v1v0c.2-.4.5-.7.9-1s1-.4,1.7-.4c1.5,0,2.4.7,2.9,2c.1.3.2.7.2,1.1s.1.8.1,1.3s0,.9-.1,1.3c0,.4-.1.8-.2,1.1-.5,1.4-1.4,2-2.9,2-.7,0-1.3-.1-1.7-.4s-.7-.6-.9-1v0v4.3c0,.1-.1.2-.2.2l-.6.1v0Zm3.2-4c.6,0,1-.1,1.4-.4s.6-.6.8-1.1c.1-.3.2-.6.2-.9s0-.7,0-1.1s0-.7,0-1.1c0-.3-.1-.7-.2-.9-.2-.5-.4-.9-.8-1.1-.4-.3-.8-.4-1.4-.4-.5,0-1,.1-1.4.4s-.6.6-.8,1.1c-.1.2-.1.5-.2.8s-.1.7-.1,1.2s0,.9.1,1.2c0,.3.1.6.2.8.2.5.4.9.8,1.1.4.3.9.4,1.4.4Z" fill="#1d4ed8"/><path id="insarf_blue-s-path39" d="M225,238.2c-.1,0-.2-.1-.2-.2v-11.4c0-.1.1-.2.2-.2h.6c.1,0,.2.1.2.2v1v0c.2-.4.5-.7.9-1s1-.4,1.7-.4c1.5,0,2.4.7,2.9,2c.1.3.2.7.2,1.1s.1.8.1,1.3s0,.9-.1,1.3c0,.4-.1.8-.2,1.1-.5,1.4-1.4,2-2.9,2-.7,0-1.3-.1-1.7-.4s-.7-.6-.9-1v0v4.3c0,.1-.1.2-.2.2l-.6.1v0Zm3.2-4c.6,0,1-.1,1.4-.4s.6-.6.8-1.1c.1-.3.2-.6.2-.9s0-.7,0-1.1s0-.7,0-1.1c0-.3-.1-.7-.2-.9-.2-.5-.4-.9-.8-1.1-.4-.3-1.4-.4-1.4-.4s-1,.1-1.4.4-.6.6-.8,1.1c-.1.2-.1.5-.2.8s-.1.7-.1,1.2s0,.9.1,1.2c0,.3.1.6.2.8.2.5.4.9.8,1.1.4.3.9.4,1.4.4Z" fill="#1d4ed8"/></g></g></g>
<script><![CDATA[
!function(t,n){"object"==typeof exports&&"undefined"!=typeof module?module.exports=n():"function"==typeof __SVGATOR_DEFINE__&&__SVGATOR_DEFINE__.amd?__SVGATOR_DEFINE__(n):((t="undefined"!=typeof globalThis?globalThis:t||self).__SVGATOR_PLAYER__=t.__SVGATOR_PLAYER__||{},t.__SVGATOR_PLAYER__["5c7f360c"]=n())}(this,(function(){"use strict";function t(t,n){var e=Object.keys(t);if(Object.getOwnPropertySymbols){var r=Object.getOwnPropertySymbols(t);n&&(r=r.filter((function(n){return Object.getOwnPropertyDescriptor(t,n).enumerable}))),e.push.apply(e,r)}return e}function n(n){for(var e=1;e<arguments.length;e++){var r=null!=arguments[e]?arguments[e]:{};e%2?t(Object(r),!0).forEach((function(t){o(n,t,r[t])})):Object.getOwnPropertyDescriptors?Object.defineProperties(n,Object.getOwnPropertyDescriptors(r)):t(Object(r)).forEach((function(t){Object.defineProperty(n,t,Object.getOwnPropertyDescriptor(r,t))}))}return n}function e(t){return(e="function"==typeof Symbol&&"symbol"==typeof Symbol.iterator?function(t){return typeof t}:function(t){return t&&"function"==typeof Symbol&&t.constructor===Symbol&&t!==Symbol.prototype?"symbol":typeof t})(t)}function r(t,n){if(!(t instanceof n))throw new TypeError("Cannot call a class as a function")}function i(t,n){for(var e=0;e<n.length;e++){var r=n[e];r.enumerable=r.enumerable||!1,r.configurable=!0,"value"in r&&(r.writable=!0),Object.defineProperty(t,r.key,r)}}function u(t,n,e){return n&&i(t.prototype,n),e&&i(t,e),t}function o(t,n,e){return n in t?Object.defineProperty(t,n,{value:e,enumerable:!0,configurable:!0,writable:!0}):t[n]=e,t}function a(t){return(a=Object.setPrototypeOf?Object.getPrototypeOf:function(t){return t.__proto__||Object.getPrototypeOf(t)})(t)}function l(t,n){return(l=Object.setPrototypeOf||function(t,n){return t.__proto__=n,t})(t,n)}function s(){if("undefined"==typeof Reflect||!Reflect.construct)return!1;if(Reflect.construct.sham)return!1;if("function"==typeof Proxy)return!0;try{return Boolean.prototype.valueOf.call(Reflect.construct(Boolean,[],(function(){}))),!0}catch(t){return!1}}function f(t,n,e){return(f=s()?Reflect.construct:function(t,n,e){var r=[null];r.push.apply(r,n);var i=new(Function.bind.apply(t,r));return e&&l(i,e.prototype),i}).apply(null,arguments)}function c(t,n){if(n&&("object"==typeof n||"function"==typeof n))return n;if(void 0!==n)throw new TypeError("Derived constructors may only return object or undefined");return function(t){if(void 0===t)throw new ReferenceError("this hasn't been initialised - super() hasn't been called");return t}(t)}function h(t,n,e){return(h="undefined"!=typeof Reflect&&Reflect.get?Reflect.get:function(t,n,e){var r=function(t,n){for(;!Object.prototype.hasOwnProperty.call(t,n)&&null!==(t=a(t)););return t}(t,n);if(r){var i=Object.getOwnPropertyDescriptor(r,n);return i.get?i.get.call(e):i.value}})(t,n,e||t)}function v(t){return function(t){if(Array.isArray(t))return y(t)}(t)||function(t){if("undefined"!=typeof Symbol&&null!=t[Symbol.iterator]||null!=t["@@iterator"])return Array.from(t)}(t)||function(t,n){if(!t)return;if("string"==typeof t)return y(t,n);var e=Object.prototype.toString.call(t).slice(8,-1);"Object"===e&&t.constructor&&(e=t.constructor.name);if("Map"===e||"Set"===e)return Array.from(t);if("Arguments"===e||/^(?:Ui|I)nt(?:8|16|32)(?:Clamped)?Array$/.test(e))return y(t,n)}(t)||function(){throw new TypeError("Invalid attempt to spread non-iterable instance.\nIn order to be iterable, non-array objects must have a [Symbol.iterator]() method.")}()}function y(t,n){(null==n||n>t.length)&&(n=t.length);for(var e=0,r=new Array(n);e<n;e++)r[e]=t[e];return r}Number.isInteger||(Number.isInteger=function(t){return"number"==typeof t&&isFinite(t)&&Math.floor(t)===t}),Number.EPSILON||(Number.EPSILON=2220446049250313e-31);var g=p(Math.pow(10,-6));function p(t){var n=arguments.length>1&&void 0!==arguments[1]?arguments[1]:6;if(Number.isInteger(t))return t;var e=Math.pow(10,n);return Math.round((+t+Number.EPSILON)*e)/e}function d(t,n){var e=arguments.length>2&&void 0!==arguments[2]?arguments[2]:g;return Math.abs(t-n)<e}var m=Math.PI/180;function b(t){return t}function w(t,n,e){var r=1-e;return 3*e*r*(t*r+n*e)+e*e*e}function A(){var t=arguments.length>0&&void 0!==arguments[0]?arguments[0]:0,n=arguments.length>1&&void 0!==arguments[1]?arguments[1]:0,e=arguments.length>2&&void 0!==arguments[2]?arguments[2]:1,r=arguments.length>3&&void 0!==arguments[3]?arguments[3]:1;return t<0||t>1||e<0||e>1?null:d(t,n)&&d(e,r)?b:function(i){if(i<=0)return t>0?i*n/t:0===n&&e>0?i*r/e:0;if(i>=1)return e<1?1+(i-1)*(r-1)/(e-1):1===e&&t<1?1+(i-1)*(n-1)/(t-1):1;for(var u,o=0,a=1;o<a;){var l=w(t,e,u=(o+a)/2);if(d(i,l))break;l<i?o=u:a=u}return w(n,r,u)}}function _(){return 1}function x(t){return 1===t?1:0}function k(){var t=arguments.length>0&&void 0!==arguments[0]?arguments[0]:1,n=arguments.length>1&&void 0!==arguments[1]?arguments[1]:0;if(1===t){if(0===n)return x;if(1===n)return _}var e=1/t;return function(t){return t>=1?1:(t+=n*e)-t%e}}var S=Math.sin,O=Math.cos,j=Math.acos,E=Math.asin,M=Math.tan,P=Math.atan2,I=Math.PI/180,R=180/Math.PI,F=Math.sqrt,N=function(){function t(){var n=arguments.length>0&&void 0!==arguments[0]?arguments[0]:1,e=arguments.length>1&&void 0!==arguments[1]?arguments[1]:0,i=arguments.length>2&&void 0!==arguments[2]?arguments[2]:0,u=arguments.length>3&&void 0!==arguments[3]?arguments[3]:1,o=arguments.length>4&&void 0!==arguments[4]?arguments[4]:0,a=arguments.length>5&&void 0!==arguments[5]?arguments[5]:0;r(this,t),this.m=[n,e,i,u,o,a],this.i=null,this.w=null,this.s=null}return u(t,[{key:"determinant",get:function(){var t=this.m;return t[0]*t[3]-t[1]*t[2]}},{key:"isIdentity",get:function(){if(null===this.i){var t=this.m;this.i=1===t[0]&&0===t[1]&&0===t[2]&&1===t[3]&&0===t[4]&&0===t[5]}return this.i}},{key:"point",value:function(t,n){var e=this.m;return{x:e[0]*t+e[2]*n+e[4],y:e[1]*t+e[3]*n+e[5]}}},{key:"translateSelf",value:function(){var t=arguments.length>0&&void 0!==arguments[0]?arguments[0]:0,n=arguments.length>1&&void 0!==arguments[1]?arguments[1]:0;if(!t&&!n)return this;var e=this.m;return e[4]+=e[0]*t+e[2]*n,e[5]+=e[1]*t+e[3]*n,this.w=this.s=this.i=null,this}},{key:"rotateSelf",value:function(){var t=arguments.length>0&&void 0!==arguments[0]?arguments[0]:0;if(t%=360){var n=S(t*=I),e=O(t),r=this.m,i=r[0],u=r[1];r[0]=i*e+r[2]*n,r[1]=u*e+r[3]*n,r[2]=r[2]*e-i*n,r[3]=r[3]*e-u*n,this.w=this.s=this.i=null}return this}},{key:"scaleSelf",value:function(){var t=arguments.length>0&&void 0!==arguments[0]?arguments[0]:1,n=arguments.length>1&&void 0!==arguments[1]?arguments[1]:1;if(1!==t||1!==n){var e=this.m;e[0]*=t,e[1]*=t,e[2]*=n,e[3]*=n,this.w=this.s=this.i=null}return this}},{key:"skewSelf",value:function(t,n){if(n%=360,(t%=360)||n){var e=this.m,r=e[0],i=e[1],u=e[2],o=e[3];t&&(t=M(t*I),e[2]+=r*t,e[3]+=i*t),n&&(n=M(n*I),e[0]+=u*n,e[1]+=o*n),this.w=this.s=this.i=null}return this}},{key:"resetSelf",value:function(){var t=arguments.length>0&&void 0!==arguments[0]?arguments[0]:1,n=arguments.length>1&&void 0!==arguments[1]?arguments[1]:0,e=arguments.length>2&&void 0!==arguments[2]?arguments[2]:0,r=arguments.length>3&&void 0!==arguments[3]?arguments[3]:1,i=arguments.length>4&&void 0!==arguments[4]?arguments[4]:0,u=arguments.length>5&&void 0!==arguments[5]?arguments[5]:0,o=this.m;return o[0]=t,o[1]=n,o[2]=e,o[3]=r,o[4]=i,o[5]=u,this.w=this.s=this.i=null,this}},{key:"recomposeSelf",value:function(){var t=arguments.length>0&&void 0!==arguments[0]?arguments[0]:null,n=arguments.length>1&&void 0!==arguments[1]?arguments[1]:null,e=arguments.length>2&&void 0!==arguments[2]?arguments[2]:null,r=arguments.length>3&&void 0!==arguments[3]?arguments[3]:null,i=arguments.length>4&&void 0!==arguments[4]?arguments[4]:null;return this.isIdentity||this.resetSelf(),t&&(t.x||t.y)&&this.translateSelf(t.x,t.y),n&&this.rotateSelf(n),e&&(e.x&&this.skewSelf(e.x,0),e.y&&this.skewSelf(0,e.y)),!r||1===r.x&&1===r.y||this.scaleSelf(r.x,r.y),i&&(i.x||i.y)&&this.translateSelf(i.x,i.y),this}},{key:"decompose",value:function(){var t=arguments.length>0&&void 0!==arguments[0]?arguments[0]:0,n=arguments.length>1&&void 0!==arguments[1]?arguments[1]:0,e=this.m,r=e[0]*e[0]+e[1]*e[1],i=[[e[0],e[1]],[e[2],e[3]]],u=F(r);if(0===u)return{origin:{x:p(e[4]),y:p(e[5])},translate:{x:p(t),y:p(n)},scale:{x:0,y:0},skew:{x:0,y:0},rotate:0};i[0][0]/=u,i[0][1]/=u;var o=e[0]*e[3]-e[1]*e[2]<0;o&&(u=-u);var a=i[0][0]*i[1][0]+i[0][1]*i[1][1];i[1][0]-=i[0][0]*a,i[1][1]-=i[0][1]*a;var l=F(i[1][0]*i[1][0]+i[1][1]*i[1][1]);if(0===l)return{origin:{x:p(e[4]),y:p(e[5])},translate:{x:p(t),y:p(n)},scale:{x:p(u),y:0},skew:{x:0,y:0},rotate:0};i[1][0]/=l,i[1][1]/=l,a/=l;var s=0;return i[1][1]<0?(s=j(i[1][1])*R,i[0][1]<0&&(s=360-s)):s=E(i[0][1])*R,o&&(s=-s),a=P(a,F(i[0][0]*i[0][0]+i[0][1]*i[0][1]))*R,o&&(a=-a),{origin:{x:p(e[4]),y:p(e[5])},translate:{x:p(t),y:p(n)},scale:{x:p(u),y:p(l)},skew:{x:p(a),y:0},rotate:p(s)}}},{key:"clone",value:function(){var t=this.m;return new this.constructor(t[0],t[1],t[2],t[3],t[4],t[5])}},{key:"toString",value:function(){var t=arguments.length>0&&void 0!==arguments[0]?arguments[0]:" ";if(null===this.s){var n=this.m.map((function(t){return p(t)}));1===n[0]&&0===n[1]&&0===n[2]&&1===n[3]?this.s="translate("+n[4]+t+n[5]+")":this.s="matrix("+n.join(t)+")"}return this.s}}],[{key:"create",value:function(t){return t?Array.isArray(t)?f(this,v(t)):t instanceof this?t.clone():(new this).recomposeSelf(t.origin,t.rotate,t.skew,t.scale,t.translate):new this}}]),t}();function T(t,n,e){return t>=.5?e:n}function q(t,n,e){return 0===t||n===e?n:t*(e-n)+n}function B(t,n,e){var r=q(t,n,e);return r<=0?0:r}function D(t,n,e){var r=q(t,n,e);return r<=0?0:r>=1?1:r}function L(t,n,e){return 0===t?n:1===t?e:{x:q(t,n.x,e.x),y:q(t,n.y,e.y)}}function C(t,n,e){var r=function(t,n,e){return Math.round(q(t,n,e))}(t,n,e);return r<=0?0:r>=255?255:r}function V(t,n,e){return 0===t?n:1===t?e:{r:C(t,n.r,e.r),g:C(t,n.g,e.g),b:C(t,n.b,e.b),a:q(t,null==n.a?1:n.a,null==e.a?1:e.a)}}function G(t,n){for(var e=[],r=0;r<t;r++)e.push(n);return e}function z(t,n){if(--n<=0)return t;var e=(t=Object.assign([],t)).length;do{for(var r=0;r<e;r++)t.push(t[r])}while(--n>0);return t}var Y,$=function(){function t(n){r(this,t),this.list=n,this.length=n.length}return u(t,[{key:"setAttribute",value:function(t,n){for(var e=this.list,r=0;r<this.length;r++)e[r].setAttribute(t,n)}},{key:"removeAttribute",value:function(t){for(var n=this.list,e=0;e<this.length;e++)n[e].removeAttribute(t)}},{key:"style",value:function(t,n){for(var e=this.list,r=0;r<this.length;r++)e[r].style[t]=n}}]),t}(),U=/-./g,Q=function(t,n){return n.toUpperCase()};function H(t){return"function"==typeof t?t:T}function J(t){return t?"function"==typeof t?t:Array.isArray(t)?function(t){var n=arguments.length>1&&void 0!==arguments[1]?arguments[1]:b;if(!Array.isArray(t))return n;switch(t.length){case 1:return k(t[0])||n;case 2:return k(t[0],t[1])||n;case 4:return A(t[0],t[1],t[2],t[3])||n}return n}(t,null):function(t,n){var e=arguments.length>2&&void 0!==arguments[2]?arguments[2]:b;switch(t){case"linear":return b;case"steps":return k(n.steps||1,n.jump||0)||e;case"bezier":case"cubic-bezier":return A(n.x1||0,n.y1||0,n.x2||0,n.y2||0)||e}return e}(t.type,t.value,null):null}function Z(t,n,e){var r=arguments.length>3&&void 0!==arguments[3]&&arguments[3],i=n.length-1;if(t<=n[0].t)return r?[0,0,n[0].v]:n[0].v;if(t>=n[i].t)return r?[i,1,n[i].v]:n[i].v;var u,o=n[0],a=null;for(u=1;u<=i;u++){if(!(t>n[u].t)){a=n[u];break}o=n[u]}return null==a?r?[i,1,n[i].v]:n[i].v:o.t===a.t?r?[u,1,a.v]:a.v:(t=(t-o.t)/(a.t-o.t),o.e&&(t=o.e(t)),r?[u,t,e(t,o.v,a.v)]:e(t,o.v,a.v))}function K(t,n){var e=arguments.length>2&&void 0!==arguments[2]?arguments[2]:null;return t&&t.length?"function"!=typeof n?null:("function"!=typeof e&&(e=null),function(r){var i=Z(r,t,n);return null!=i&&e&&(i=e(i)),i}):null}function W(t,n){return t.t-n.t}function X(t,n,r,i,u){var o,a="@"===r[0],l="#"===r[0],s=Y[r],f=T;switch(a?(o=r.substr(1),r=o.replace(U,Q)):l&&(r=r.substr(1)),e(s)){case"function":if(f=s(i,u,Z,J,r,a,n,t),l)return f;break;case"string":f=K(i,H(s));break;case"object":if((f=K(i,H(s.i),s.f))&&"function"==typeof s.u)return s.u(n,f,r,a,t)}return f?function(t,n,e){if(arguments.length>3&&void 0!==arguments[3]&&arguments[3])return t instanceof $?function(r){return t.style(n,e(r))}:function(r){return t.style[n]=e(r)};if(Array.isArray(n)){var r=n.length;return function(i){var u=e(i);if(null==u)for(var o=0;o<r;o++)t[o].removeAttribute(n);else for(var a=0;a<r;a++)t[a].setAttribute(n,u)}}return function(r){var i=e(r);null==i?t.removeAttribute(n):t.setAttribute(n,i)}}(n,r,f,a):null}function tt(t,n,r,i){if(!i||"object"!==e(i))return null;var u=null,o=null;return Array.isArray(i)?o=function(t){if(!t||!t.length)return null;for(var n=0;n<t.length;n++)t[n].e&&(t[n].e=J(t[n].e));return t.sort(W)}(i):(o=i.keys,u=i.data||null),o?X(t,n,r,o,u):null}function nt(t,n,e){if(!e)return null;var r=[];for(var i in e)if(e.hasOwnProperty(i)){var u=tt(t,n,i,e[i]);u&&r.push(u)}return r.length?r:null}function et(t,n){if(!n.settings.duration||n.settings.duration<0)return null;var e,r,i,u,o,a=function(t,n){if(!n)return null;var e=[];if(Array.isArray(n))for(var r=n.length,i=0;i<r;i++){var u=n[i];if(2===u.length){var o=null;if("string"==typeof u[0])o=t.getElementById(u[0]);else if(Array.isArray(u[0])){o=[];for(var a=0;a<u[0].length;a++)if("string"==typeof u[0][a]){var l=t.getElementById(u[0][a]);l&&o.push(l)}o=o.length?1===o.length?o[0]:new $(o):null}if(o){var s=nt(t,o,u[1]);s&&(e=e.concat(s))}}}else for(var f in n)if(n.hasOwnProperty(f)){var c=t.getElementById(f);if(c){var h=nt(t,c,n[f]);h&&(e=e.concat(h))}}return e.length?e:null}(t,n.elements);return a?(e=a,r=n.settings,i=r.duration,u=e.length,o=null,function(t,n){var a=r.iterations||1/0,l=(r.alternate&&a%2==0)^r.direction>0?i:0,s=t%i,f=1+(t-s)/i;n*=r.direction,r.alternate&&f%2==0&&(n=-n);var c=!1;if(f>a)s=l,c=!0,-1===r.fill&&(s=r.direction>0?0:i);else if(n<0&&(s=i-s),s===o)return!1;o=s;for(var h=0;h<u;h++)e[h](s);return c}):null}function rt(t,n){if(Y=n,!t||!t.root||!Array.isArray(t.animations))return null;var e=function(t){for(var n=document.getElementsByTagName("svg"),e=0;e<n.length;e++)if(n[e].id===t.root&&!n[e].svgatorAnimation)return n[e].svgatorAnimation=!0,n[e];return null}(t);if(!e)return null;var r=t.animations.map((function(t){return et(e,t)})).filter((function(t){return!!t}));return r.length?{svg:e,animations:r,animationSettings:t.animationSettings,options:t.options||void 0}:null}function it(t){return+("0x"+(t.replace(/[^0-9a-fA-F]+/g,"")||27))}function ut(t,n,e){return!t||!e||n>t.length?t:t.substring(0,n)+ut(t.substring(n+1),e,e)}function ot(t){var n=arguments.length>1&&void 0!==arguments[1]?arguments[1]:27;return!t||t%n?t%n:ot(t/n,n)}function at(t,n,e){if(t&&t.length){var r=it(e),i=it(n),u=ot(r)+5,o=ut(t,ot(r,5),u);return o=o.replace(/\x7c$/g,"==").replace(/\x2f$/g,"="),o=function(t,n,e){var r=+("0x"+t.substring(0,4));t=t.substring(4);for(var i=n%r+e%27,u=[],o=0;o<t.length;o+=2)if("|"!==t[o]){var a=+("0x"+t[o]+t[o+1])-i;u.push(a)}else{var l=+("0x"+t.substring(o+1,o+1+4))-i;o+=3,u.push(l)}return String.fromCharCode.apply(String,u)}(o=(o=atob(o)).replace(/[\x41-\x5A]/g,""),i,r),o=JSON.parse(o)}}var lt=[{key:"alternate",def:!1},{key:"fill",def:1},{key:"iterations",def:0},{key:"direction",def:1},{key:"speed",def:1},{key:"fps",def:100}],st=function(){function t(n,e){var i=this,u=arguments.length>2&&void 0!==arguments[2]?arguments[2]:null;r(this,t),this._id=0,this._running=!1,this._rollingBack=!1,this._animations=n,this._settings=e,(!u||u<"2022-05-02")&&delete this._settings.speed,lt.forEach((function(t){i._settings[t.key]=i._settings[t.key]||t.def})),this.duration=e.duration,this.offset=e.offset||0,this.rollbackStartOffset=0}return u(t,[{key:"alternate",get:function(){return this._settings.alternate}},{key:"fill",get:function(){return this._settings.fill}},{key:"iterations",get:function(){return this._settings.iterations}},{key:"direction",get:function(){return this._settings.direction}},{key:"speed",get:function(){return this._settings.speed}},{key:"fps",get:function(){return this._settings.fps}},{key:"maxFiniteDuration",get:function(){return this.iterations>0?this.iterations*this.duration:this.duration}},{key:"_apply",value:function(t){for(var n=arguments.length>1&&void 0!==arguments[1]?arguments[1]:{},e=this._animations,r=e.length,i=0,u=0;u<r;u++)n[u]?i++:(n[u]=e[u](t,1),n[u]&&i++);return i}},{key:"_rollback",value:function(t){var n=this,e=1/0,r=null;this.rollbackStartOffset=t,this._rollingBack=!0,this._running=!0;this._id=window.requestAnimationFrame((function i(u){if(n._rollingBack){null==r&&(r=u);var o=Math.round(t-(u-r)*n.speed);if(o>n.duration&&e!==1/0){var a=!!n.alternate&&o/n.duration%2>1,l=o%n.duration;o=(l+=a?n.duration:0)||n.duration}var s=(n.fps?1e3/n.fps:0)*n.speed,f=Math.max(0,o);f<=e-s&&(n.offset=f,e=f,n._apply(f));var c=n.iterations>0&&-1===n.fill&&o>=n.maxFiniteDuration;(o<=0||n.offset<o||c)&&n.stop(),n._id=window.requestAnimationFrame(i)}}))}},{key:"_start",value:function(){var t=this,n=arguments.length>0&&void 0!==arguments[0]?arguments[0]:0,e=-1/0,r=null,i={};this._running=!0;var u=function u(o){null==r&&(r=o);var a=Math.round((o-r)*t.speed+n),l=(t.fps?1e3/t.fps:0)*t.speed;if(a>=e+l&&!t._rollingBack&&(t.offset=a,e=a,t._apply(a,i)===t._animations.length))return void t.pause(!0);t._id=window.requestAnimationFrame(u)};this._id=window.requestAnimationFrame(u)}},{key:"_pause",value:function(){this._id&&window.cancelAnimationFrame(this._id),this._running=!1}},{key:"play",value:function(){if(!this._running)return this._rollingBack?this._rollback(this.offset):this._start(this.offset)}},{key:"stop",value:function(){this._pause(),this.offset=0,this.rollbackStartOffset=0,this._rollingBack=!1,this._apply(0)}},{key:"reachedToEnd",value:function(){return this.iterations>0&&this.offset>=this.iterations*this.duration}},{key:"restart",value:function(){var t=arguments.length>0&&void 0!==arguments[0]&&arguments[0];this.stop(t),this.play(t)}},{key:"pause",value:function(){this._pause()}},{key:"reverse",value:function(){this.direction=-this.direction}}],[{key:"build",value:function(t,n){delete t.animationSettings,t.options=at(t.options,t.root,"5c7f360c"),t.animations.map((function(n){n.settings=at(n.s,t.root,"5c7f360c"),delete n.s,t.animationSettings||(t.animationSettings=n.settings)}));var e=t.version;if(!(t=rt(t,n)))return null;var r=t.options||{},i=new this(t.animations,t.animationSettings,e);return{el:t.svg,options:r,player:i}}},{key:"push",value:function(t){return this.build(t)}},{key:"init",value:function(){var t=this,n=window.__SVGATOR_PLAYER__&&window.__SVGATOR_PLAYER__["5c7f360c"];Array.isArray(n)&&n.splice(0).forEach((function(n){return t.build(n)}))}}]),t}();function ft(t){return p(t)+""}function ct(t){var n=arguments.length>1&&void 0!==arguments[1]?arguments[1]:" ";return t&&t.length?t.map(ft).join(n):""}function ht(t){if(!t)return"transparent";if(null==t.a||t.a>=1){var n=function(t){return 1===(t=parseInt(t).toString(16)).length?"0"+t:t},e=function(t){return t.charAt(0)===t.charAt(1)},r=n(t.r),i=n(t.g),u=n(t.b);return e(r)&&e(i)&&e(u)&&(r=r.charAt(0),i=i.charAt(0),u=u.charAt(0)),"#"+r+i+u}return"rgba("+t.r+","+t.g+","+t.b+","+t.a+")"}function vt(t){return t?"url(#"+t+")":"none"}!function(){for(var t=0,n=["ms","moz","webkit","o"],e=0;e<n.length&&!window.requestAnimationFrame;++e)window.requestAnimationFrame=window[n[e]+"RequestAnimationFrame"],window.cancelAnimationFrame=window[n[e]+"CancelAnimationFrame"]||window[n[e]+"CancelRequestAnimationFrame"];window.requestAnimationFrame||(window.requestAnimationFrame=function(n){var e=Date.now(),r=Math.max(0,16-(e-t)),i=window.setTimeout((function(){n(e+r)}),r);return t=e+r,i},window.cancelAnimationFrame=window.clearTimeout)}();var yt={f:null,i:function(t,n,e){return 0===t?n:1===t?e:{x:B(t,n.x,e.x),y:B(t,n.y,e.y)}},u:function(t,n){return function(e){var r=n(e);t.setAttribute("rx",ft(r.x)),t.setAttribute("ry",ft(r.y))}}},gt={f:null,i:function(t,n,e){return 0===t?n:1===t?e:{width:B(t,n.width,e.width),height:B(t,n.height,e.height)}},u:function(t,n){return function(e){var r=n(e);t.setAttribute("width",ft(r.width)),t.setAttribute("height",ft(r.height))}}};Object.freeze({M:2,L:2,Z:0,H:1,V:1,C:6,Q:4,T:2,S:4,A:7});var pt={},dt=null;function mt(t){var n=function(){if(dt)return dt;if("object"!==("undefined"==typeof document?"undefined":e(document))||!document.createElementNS)return{};var t=document.createElementNS("http://www.w3.org/2000/svg","svg");return t&&t.style?(t.style.position="absolute",t.style.opacity="0.01",t.style.zIndex="-9999",t.style.left="-9999px",t.style.width="1px",t.style.height="1px",dt={svg:t}):{}}().svg;if(!n)return function(t){return null};var r=document.createElementNS(n.namespaceURI,"path");r.setAttributeNS(null,"d",t),r.setAttributeNS(null,"fill","none"),r.setAttributeNS(null,"stroke","none"),n.appendChild(r);var i=r.getTotalLength();return function(t){var n=r.getPointAtLength(i*t);return{x:n.x,y:n.y}}}function bt(t){return pt[t]?pt[t]:pt[t]=mt(t)}function wt(t,n,e,r){if(!t||!r)return!1;var i=["M",t.x,t.y];if(n&&e&&(i.push("C"),i.push(n.x),i.push(n.y),i.push(e.x),i.push(e.y)),n?!e:e){var u=n||e;i.push("Q"),i.push(u.x),i.push(u.y)}return n||e||i.push("L"),i.push(r.x),i.push(r.y),i.join(" ")}function At(t,n,e,r){var i=arguments.length>4&&void 0!==arguments[4]?arguments[4]:1,u=wt(t,n,e,r),o=bt(u);try{return o(i)}catch(t){return null}}function _t(t,n,e){return t+(n-t)*e}function xt(t,n,e){var r=arguments.length>3&&void 0!==arguments[3]&&arguments[3],i={x:_t(t.x,n.x,e),y:_t(t.y,n.y,e)};return r&&(i.a=kt(t,n)),i}function kt(t,n){return Math.atan2(n.y-t.y,n.x-t.x)}function St(t,n,e,r){var i=1-r;return i*i*t+2*i*r*n+r*r*e}function Ot(t,n,e,r){return 2*(1-r)*(n-t)+2*r*(e-n)}function jt(t,n,e,r){var i=arguments.length>4&&void 0!==arguments[4]&&arguments[4],u=At(t,n,null,e,r);return u||(u={x:St(t.x,n.x,e.x,r),y:St(t.y,n.y,e.y,r)}),i&&(u.a=Et(t,n,e,r)),u}function Et(t,n,e,r){return Math.atan2(Ot(t.y,n.y,e.y,r),Ot(t.x,n.x,e.x,r))}function Mt(t,n,e,r,i){var u=i*i;return i*u*(r-t+3*(n-e))+3*u*(t+e-2*n)+3*i*(n-t)+t}function Pt(t,n,e,r,i){var u=1-i;return 3*(u*u*(n-t)+2*u*i*(e-n)+i*i*(r-e))}function It(t,n,e,r,i){var u=arguments.length>5&&void 0!==arguments[5]&&arguments[5],o=At(t,n,e,r,i);return o||(o={x:Mt(t.x,n.x,e.x,r.x,i),y:Mt(t.y,n.y,e.y,r.y,i)}),u&&(o.a=Rt(t,n,e,r,i)),o}function Rt(t,n,e,r,i){return Math.atan2(Pt(t.y,n.y,e.y,r.y,i),Pt(t.x,n.x,e.x,r.x,i))}function Ft(t,n,e){var r=arguments.length>3&&void 0!==arguments[3]&&arguments[3];if(Tt(n)){if(qt(e))return jt(n,e.start,e,t,r)}else if(Tt(e)){if(Bt(n))return jt(n,n.end,e,t,r)}else{if(Bt(n))return qt(e)?It(n,n.end,e.start,e,t,r):jt(n,n.end,e,t,r);if(qt(e))return jt(n,e.start,e,t,r)}return xt(n,e,t,r)}function Nt(t,n,e){var r=Ft(t,n,e,!0);return r.a=function(t){return arguments.length>1&&void 0!==arguments[1]&&arguments[1]?t+Math.PI:t}(r.a)/m,r}function Tt(t){return!t.type||"corner"===t.type}function qt(t){return null!=t.start&&!Tt(t)}function Bt(t){return null!=t.end&&!Tt(t)}var Dt=new N;var Lt={f:ft,i:q},Ct={f:ft,i:D};function Vt(t,n,e){return t.map((function(t){return function(t,n,e){var r=t.v;if(!r||"g"!==r.t||r.s||!r.v||!r.r)return t;var i=e.getElementById(r.r),u=i&&i.querySelectorAll("stop")||[];return r.s=r.v.map((function(t,n){var e=u[n]&&u[n].getAttribute("offset");return{c:t,o:e=p(parseInt(e)/100)}})),delete r.v,t}(t,0,e)}))}var Gt={gt:"gradientTransform",c:{x:"cx",y:"cy"},rd:"r",f:{x:"x1",y:"y1"},to:{x:"x2",y:"y2"}};function zt(t,n,r,i,u,o,a,l){return Vt(t,0,l),n=function(t,n,e){for(var r,i,u,o=t.length-1,a={},l=0;l<=o;l++)(r=t[l]).e&&(r.e=n(r.e)),r.v&&"g"===(i=r.v).t&&i.r&&(u=e.getElementById(i.r))&&(a[i.r]={e:u,s:u.querySelectorAll("stop")});return a}(t,i,l),function(i){var u=r(i,t,Yt);if(!u)return"none";if("c"===u.t)return ht(u.v);if("g"===u.t){if(!n[u.r])return vt(u.r);var o=n[u.r];return function(t,n){for(var e=t.s,r=e.length;r<n.length;r++){var i=e[e.length-1].cloneNode();i.id=Qt(i.id),t.e.appendChild(i),e=t.s=t.e.querySelectorAll("stop")}for(var u=0,o=e.length,a=n.length-1;u<o;u++)e[u].setAttribute("stop-color",ht(n[Math.min(u,a)].c)),e[u].setAttribute("offset",n[Math.min(u,a)].o)}(o,u.s),Object.keys(Gt).forEach((function(t){if(void 0!==u[t])if("object"!==e(Gt[t])){var n,r="gt"===t?(n=u[t],Array.isArray(n)?"matrix("+n.join(" ")+")":""):u[t],i=Gt[t];o.e.setAttribute(i,r)}else Object.keys(Gt[t]).forEach((function(n){if(void 0!==u[t][n]){var e=u[t][n],r=Gt[t][n];o.e.setAttribute(r,e)}}))})),vt(u.r)}return"none"}}function Yt(t,e,r){if(0===t)return e;if(1===t)return r;if(e&&r){var i=e.t;if(i===r.t)switch(e.t){case"c":return{t:i,v:V(t,e.v,r.v)};case"g":if(e.r===r.r){var u={t:i,s:$t(t,e.s,r.s),r:e.r};return e.gt&&r.gt&&(u.gt=function(t,n,e){var r=n.length;if(r!==e.length)return T(t,n,e);for(var i=new Array(r),u=0;u<r;u++)i[u]=q(t,n[u],e[u]);return i}(t,e.gt,r.gt)),e.c?(u.c=L(t,e.c,r.c),u.rd=B(t,e.rd,r.rd)):e.f&&(u.f=L(t,e.f,r.f),u.to=L(t,e.to,r.to)),u}}if("c"===e.t&&"g"===r.t||"c"===r.t&&"g"===e.t){var o="c"===e.t?e:r,a="g"===e.t?n({},e):n({},r),l=a.s.map((function(t){return{c:o.v,o:t.o}}));return a.s="c"===e.t?$t(t,l,a.s):$t(t,a.s,l),a}}return T(t,e,r)}function $t(t,n,e){if(n.length===e.length)return n.map((function(n,r){return Ut(t,n,e[r])}));for(var r=Math.max(n.length,e.length),i=[],u=0;u<r;u++){var o=Ut(t,n[Math.min(u,n.length-1)],e[Math.min(u,e.length-1)]);i.push(o)}return i}function Ut(t,n,e){return{o:D(t,n.o,e.o||0),c:V(t,n.c,e.c||{})}}function Qt(t){return t.replace(/-fill-([0-9]+)$/,(function(t,n){return"-fill-"+(+n+1)}))}var Ht={fill:zt,"fill-opacity":Ct,stroke:zt,"stroke-opacity":Ct,"stroke-width":Lt,"stroke-dashoffset":{f:ft,i:q},"stroke-dasharray":{f:function(t){var n=arguments.length>1&&void 0!==arguments[1]?arguments[1]:" ";return t&&t.length>0&&(t=t.map((function(t){return p(t,4)}))),ct(t,n)},i:function(t,n,e){var r,i,u,o=n.length,a=e.length;if(o!==a)if(0===o)n=G(o=a,0);else if(0===a)a=o,e=G(o,0);else{var l=(u=(r=o)*(i=a)/function(t,n){for(var e;n;)e=n,n=t%n,t=e;return t||1}(r,i))<0?-u:u;n=z(n,Math.floor(l/o)),e=z(e,Math.floor(l/a)),o=a=l}for(var s=[],f=0;f<o;f++)s.push(p(B(t,n[f],e[f])));return s}},opacity:Ct,transform:function(t,n,r,i){if(!(t=function(t,n){if(!t||"object"!==e(t))return null;var r=!1;for(var i in t)t.hasOwnProperty(i)&&(t[i]&&t[i].length?(t[i].forEach((function(t){t.e&&(t.e=n(t.e))})),r=!0):delete t[i]);return r?t:null}(t,i)))return null;var u=function(e,i,u){var o=arguments.length>3&&void 0!==arguments[3]?arguments[3]:null;return t[e]?r(i,t[e],u):n&&n[e]?n[e]:o};return n&&n.a&&t.o?function(n){var e=r(n,t.o,Nt);return Dt.recomposeSelf(e,u("r",n,q,0)+e.a,u("k",n,L),u("s",n,L),u("t",n,L)).toString()}:function(t){return Dt.recomposeSelf(u("o",t,Ft,null),u("r",t,q,0),u("k",t,L),u("s",t,L),u("t",t,L)).toString()}},r:Lt,"#size":gt,"#radius":yt,_:function(t,n){if(Array.isArray(t))for(var e=0;e<t.length;e++)this[t[e]]=n;else this[t]=n}},Jt=function(t){!function(t,n){if("function"!=typeof n&&null!==n)throw new TypeError("Super expression must either be null or a function");t.prototype=Object.create(n&&n.prototype,{constructor:{value:t,writable:!0,configurable:!0}}),n&&l(t,n)}(o,t);var n,e,i=(n=o,e=s(),function(){var t,r=a(n);if(e){var i=a(this).constructor;t=Reflect.construct(r,arguments,i)}else t=r.apply(this,arguments);return c(this,t)});function o(){return r(this,o),i.apply(this,arguments)}return u(o,null,[{key:"build",value:function(t){var n=h(a(o),"build",this).call(this,t,Ht);if(!n)return null;n.el,n.options,function(t,n,e){t.play()}(n.player)}}]),o}(st);return Jt.init(),Jt}));
(function(s,i,o,w,d,a,b){w[o]=w[o]||{};w[o][s]=w[o][s]||[];w[o][s].push(i);})('5c7f360c',{"root":"insarf_blue","version":"2022-05-04","animations":[{"elements":{"insarf_blue-s-path1":{"transform":{"data":{"t":{"x":-155.500008,"y":-73.65}},"keys":{"o":[{"t":0,"v":{"x":155.500008,"y":73.65,"type":"corner"}},{"t":150,"v":{"x":155.500008,"y":73.65,"type":"corner"}},{"t":170,"v":{"x":155.500008,"y":73.65,"type":"corner"}},{"t":460,"v":{"x":155.500008,"y":73.65,"type":"corner"}},{"t":1120,"v":{"x":155.500008,"y":73.65,"type":"corner"}}],"r":[{"t":0,"v":0},{"t":250,"v":90},{"t":520,"v":-218.727747},{"t":720,"v":-134.081633},{"t":1120,"v":0}]}}},"insarf_blue-s-path2":{"transform":{"data":{"t":{"x":-98.650002,"y":-158.25}},"keys":{"o":[{"t":0,"v":{"x":-40.349998,"y":158.25,"type":"corner"}},{"t":1120,"v":{"x":95.650002,"y":158.25,"type":"corner"}}]}}},"insarf_blue-s-path3":{"transform":{"data":{"t":{"x":-132.049995,"y":-156.400002}},"keys":{"o":[{"t":0,"v":{"x":327.049995,"y":156.400002,"type":"corner"}},{"t":280,"v":{"x":132.049995,"y":156.400002,"type":"corner"}}]}}},"insarf_blue-s-path4":{"transform":{"data":{"t":{"x":-145.300003,"y":-170.349998}},"keys":{"o":[{"t":0,"v":{"x":340.300003,"y":170.349998,"type":"corner"}},{"t":280,"v":{"x":145.300003,"y":170.349998,"type":"corner"}}]}}},"insarf_blue-s-path5":{"transform":{"data":{"t":{"x":-179.150002,"y":-163.900002}},"keys":{"o":[{"t":0,"v":{"x":374.150002,"y":163.900002,"type":"corner"}},{"t":280,"v":{"x":179.150002,"y":163.900002,"type":"corner"}}]}}},"insarf_blue-s-path6":{"transform":{"data":{"t":{"x":-212.5,"y":-158.250008}},"keys":{"o":[{"t":0,"v":{"x":407.5,"y":158.250008,"type":"corner"}},{"t":280,"v":{"x":212.5,"y":158.250008,"type":"corner"}}]}}},"insarf_blue-s-path7":{"transform":{"data":{"t":{"x":-228.649994,"y":-165.800011}},"keys":{"o":[{"t":0,"v":{"x":423.649994,"y":165.800011,"type":"corner"}},{"t":1120,"v":{"x":228.649994,"y":165.800011,"type":"corner"}}]}}},"insarf_blue-s-g4":{"transform":{"data":{"t":{"x":-152.650001,"y":-218.75}},"keys":{"o":[{"t":0,"v":{"x":152.650002,"y":288.75,"type":"corner"}},{"t":1150,"v":{"x":152.650002,"y":221.75,"type":"corner"}}]}}}},"s":"MWDA1ZGNlNzViN2M4YzUViNGM3YmNNYzJSYzEX3NThkODY4MzgzODM3YZjc1YjdiY2M1YjhiNHmM3YmNjMmMxNzU4ZERE4NDdmNzViY0djN2IJ4TWM1YjREYzdiY2MyYYzFjNjc1OGQ4NEQ3ZMjc1YjlWYmNiZmJmNzEU4ZDg0N2Y3NWI0Q2JYmYzdiOGM1YzFiNGM3IYjg3NThkYjliNGJmYGzZiOFQ3Zjc1YzZjM2II4YjhiNzc1OGQ4NDdWmNzViOWMzYzZHNzU4PZFA4NDgzODNkMA|"}],"options":"MCDAxMDk1M2M4ZDhlN2SI4YzhlM2M1NDNjODYA4OTdiN2UzYzk3"},'__SVGATOR_PLAYER__',window,document)
]]></script>
</svg>
