<?xml version="1.0" encoding="utf-8"?>
<!-- Generator: Adobe Illustrator 23.0.0, SVG Export Plug-In . SVG Version: 6.00 Build 0)  -->
<svg version="1.1" id="Layer_1" xmlns="http://www.w3.org/2000/svg" xmlns:xlink="http://www.w3.org/1999/xlink" x="0px" y="0px"
	 viewBox="0 0 230.4 208.2" style="enable-background:new 0 0 230.4 208.2;" xml:space="preserve">
<style type="text/css">
	.st0{fill:#1D4ED8;}
	.st1{fill:#FEC63D;}
	.st2{fill:#FAFCFF;}
</style>
<rect x="2.7" y="148.8" class="st0" width="225.3" height="45.9"/>
<circle class="st1" cx="29" cy="194.7" r="8.7"/>
<g>
	<path class="st0" d="M31.7,191.9c0,0.6-0.2,1.1-0.5,1.4c-0.4,0.4-0.8,0.6-1.3,0.7v0c0.7,0.1,1.2,0.3,1.6,0.6
		c0.4,0.3,0.5,0.8,0.5,1.3c0,0.5-0.1,0.9-0.4,1.3c-0.2,0.4-0.6,0.7-1.1,0.9c-0.5,0.2-1.2,0.3-2,0.3c-0.9,0-1.8-0.2-2.5-0.5v-1.5
		c0.4,0.2,0.8,0.3,1.2,0.4s0.8,0.1,1.1,0.1c0.6,0,1.1-0.1,1.4-0.3c0.3-0.2,0.4-0.5,0.4-0.9c0-0.2-0.1-0.4-0.2-0.6s-0.3-0.3-0.6-0.4
		c-0.3-0.1-0.7-0.1-1.3-0.1h-0.6v-1.4H28c0.5,0,0.9,0,1.2-0.2c0.3-0.1,0.5-0.2,0.6-0.4c0.1-0.2,0.1-0.4,0.1-0.6
		c0-0.3-0.1-0.5-0.3-0.7c-0.2-0.2-0.5-0.3-0.9-0.3c-0.4,0-0.8,0.1-1.1,0.2c-0.3,0.1-0.6,0.3-0.8,0.4l-0.8-1.2
		c0.3-0.2,0.7-0.4,1.2-0.6c0.5-0.2,1-0.2,1.6-0.2c0.9,0,1.6,0.2,2.1,0.5C31.5,190.8,31.7,191.3,31.7,191.9z"/>
</g>
<g>
	<path class="st2" d="M8.5,165.5c-0.4,0-0.9-0.1-1.2-0.2c-0.4-0.2-0.6-0.4-0.8-0.7s-0.3-0.7-0.3-1.2c0-0.4,0.1-0.8,0.3-1.3
		s0.6-0.9,1-1.4L7,160.3l1.1-1.4c0.9,0.7,1.6,1.4,2.1,2c0.5,0.6,0.8,1.4,0.8,2.1c0,0.2,0,0.5-0.1,0.8c-0.1,0.3-0.2,0.5-0.4,0.8
		s-0.5,0.4-0.8,0.6S9,165.5,8.5,165.5z M7.5,158c-0.2,0-0.4-0.1-0.6-0.2c-0.2-0.2-0.2-0.4-0.2-0.6c0-0.2,0.1-0.4,0.2-0.6
		c0.2-0.2,0.4-0.3,0.6-0.3c0.2,0,0.4,0.1,0.6,0.3s0.2,0.4,0.2,0.6c0,0.2-0.1,0.4-0.2,0.6S7.7,158,7.5,158z M8.6,163.8
		c0.3,0,0.5-0.1,0.7-0.3s0.2-0.4,0.2-0.6c0-0.2-0.1-0.4-0.2-0.6c-0.1-0.2-0.4-0.5-0.7-0.8c-0.3,0.3-0.5,0.5-0.6,0.8
		c-0.1,0.3-0.2,0.5-0.2,0.7c0,0.3,0.1,0.5,0.3,0.6S8.4,163.8,8.6,163.8z M9.6,158c-0.2,0-0.4-0.1-0.6-0.2c-0.2-0.2-0.2-0.4-0.2-0.6
		c0-0.2,0.1-0.4,0.2-0.6c0.2-0.2,0.4-0.3,0.6-0.3c0.2,0,0.4,0.1,0.6,0.3c0.2,0.2,0.2,0.4,0.2,0.6c0,0.2-0.1,0.4-0.2,0.6
		C10,158,9.8,158,9.6,158z"/>
	<path class="st2" d="M11.6,168.2l-0.6-1.5c0.6-0.2,1.1-0.4,1.5-0.7c0.4-0.3,0.8-0.6,1-0.9c0.3-0.3,0.4-0.7,0.4-1.2
		c0-0.3-0.1-0.7-0.2-1.1s-0.3-0.8-0.6-1.2l1.6-0.8c0.1,0.2,0.3,0.5,0.4,0.8c0.1,0.3,0.2,0.5,0.3,0.8c0.1,0.2,0.1,0.4,0.1,0.5
		c0.1,0.4,0.3,0.6,0.5,0.8c0.2,0.1,0.5,0.2,1,0.2c0.3,0,0.5,0.1,0.6,0.2c0.1,0.2,0.2,0.4,0.2,0.6c0,0.2-0.1,0.5-0.3,0.6
		s-0.4,0.2-0.7,0.2c-0.6,0-1.1-0.2-1.4-0.5c-0.1,0.5-0.4,1-0.8,1.4c-0.4,0.4-0.8,0.8-1.4,1.1C12.8,167.8,12.2,168.1,11.6,168.2z"/>
	<path class="st2" d="M23.1,165.7c-0.9,0-1.6,0-2.1-0.1c-0.5-0.1-0.9-0.2-1.2-0.4c-0.3-0.2-0.5-0.4-0.7-0.6c-0.3,0.4-0.6,0.7-1,0.8
		c-0.4,0.1-0.8,0.2-1.2,0.2l0.1-1.7c0.3,0,0.6-0.1,0.7-0.2c0.2-0.1,0.3-0.4,0.4-0.7s0.2-0.8,0.4-1.4l1.5,0.4
		c-0.2,0.6-0.3,1.1-0.3,1.3c0,0.2,0,0.3,0.1,0.5s0.3,0.2,0.6,0.3c0.3-0.5,0.7-0.9,1-1.4c0.4-0.4,0.8-0.8,1.2-1.2
		c0.4-0.3,0.9-0.6,1.3-0.8c0.5-0.2,0.9-0.3,1.4-0.3c0.8,0,1.4,0.2,1.9,0.7c0.4,0.5,0.7,1,0.7,1.8c0,0.6-0.2,1.1-0.5,1.5
		c-0.3,0.4-0.9,0.8-1.6,1.1S24.3,165.7,23.1,165.7z M25.4,161.9c-0.4,0-0.7,0.1-1.1,0.3s-0.7,0.5-1,0.8c-0.3,0.3-0.6,0.7-0.9,1
		c0.1,0,0.2,0,0.4,0c0.9,0,1.6,0,2.2-0.1c0.5-0.1,0.9-0.2,1.1-0.4s0.3-0.4,0.3-0.7c0-0.2-0.1-0.4-0.2-0.6
		C26,162,25.7,161.9,25.4,161.9z M25.2,159.1c-0.2,0-0.5-0.1-0.6-0.3s-0.3-0.4-0.3-0.6s0.1-0.5,0.3-0.6c0.2-0.2,0.4-0.3,0.6-0.3
		c0.2,0,0.4,0.1,0.6,0.3c0.2,0.2,0.3,0.4,0.3,0.6s-0.1,0.5-0.3,0.6C25.6,159,25.4,159.1,25.2,159.1z"/>
	<path class="st2" d="M32.3,165.5c-0.7,0-1.3-0.1-1.7-0.2c-0.4-0.2-0.7-0.4-0.9-0.7c-0.2-0.3-0.3-0.7-0.3-1.2l-0.3-6.7h1.7l0.3,5.9
		c0,0.4,0.1,0.6,0.1,0.8c0.1,0.2,0.2,0.3,0.4,0.4c0.2,0.1,0.4,0.1,0.8,0.1c0.3,0,0.5,0.1,0.6,0.2c0.1,0.2,0.2,0.4,0.2,0.6
		c0,0.2-0.1,0.5-0.3,0.6S32.7,165.5,32.3,165.5z"/>
	<path class="st2" d="M32.4,165.5l0.1-1.7c0.9,0,1.7-0.1,2.5-0.3s1.5-0.5,2.2-0.9c-0.4-0.2-0.8-0.4-1.2-0.5
		c-0.4-0.1-0.9-0.2-1.5-0.2c-0.2,0-0.4,0-0.6,0c-0.2,0-0.4,0.1-0.6,0.1l-0.2-1.6c0.2-0.1,0.5-0.1,0.7-0.1c0.3,0,0.5,0,0.7,0
		c0.5,0,1,0.1,1.5,0.2c0.4,0.1,0.8,0.3,1.2,0.5s0.7,0.4,1,0.5c0.3,0.1,0.6,0.2,0.9,0.2h0.4l0.2,1.6c-0.2,0-0.3,0-0.5,0.1
		c-0.2,0-0.3,0.1-0.5,0.1c0.2,0.1,0.4,0.2,0.7,0.3c0.3,0,0.6,0.1,1,0.1c0.3,0,0.5,0.1,0.6,0.2c0.1,0.2,0.2,0.4,0.2,0.6
		c0,0.2-0.1,0.5-0.2,0.6s-0.4,0.2-0.7,0.2c-0.6,0-1.2-0.1-1.7-0.3c-0.5-0.2-0.9-0.5-1.2-1.1c-0.4,0.2-0.8,0.4-1.2,0.6
		c-0.4,0.2-1,0.4-1.6,0.5C33.9,165.4,33.2,165.5,32.4,165.5z"/>
	<path class="st2" d="M40.2,165.5l0.1-1.7c0.2,0,0.3,0,0.4-0.1c0.1-0.1,0.2-0.2,0.3-0.4c0.1-0.2,0.2-0.5,0.4-0.8
		c0.4-0.8,0.8-1.3,1.3-1.6c0.5-0.3,0.9-0.4,1.3-0.4c0.4,0,0.8,0.1,1.2,0.4s0.7,0.8,1.1,1.6c0.2,0.5,0.5,0.9,0.7,1.1s0.5,0.3,0.7,0.3
		c0.3,0,0.5,0.1,0.6,0.2c0.1,0.2,0.2,0.4,0.2,0.6c0,0.2-0.1,0.5-0.3,0.6s-0.4,0.2-0.7,0.2c-0.4,0-0.7-0.1-1-0.2
		c-0.3-0.1-0.5-0.3-0.7-0.5c-0.1,0.2-0.3,0.4-0.6,0.5c-0.2,0.2-0.5,0.2-0.9,0.2c-0.2,0-0.4,0-0.7-0.1s-0.5-0.2-0.8-0.4
		s-0.5-0.4-0.8-0.7c-0.2,0.4-0.5,0.7-0.8,0.9C41.1,165.4,40.7,165.5,40.2,165.5z M43,163c0.2,0.2,0.4,0.5,0.7,0.7
		c0.3,0.2,0.6,0.3,0.9,0.3c0.2,0,0.3-0.1,0.4-0.2c0.1-0.1,0.1-0.3,0-0.6c-0.1-0.1-0.1-0.3-0.2-0.5c-0.1-0.2-0.2-0.3-0.3-0.5
		s-0.3-0.2-0.4-0.2c-0.2,0-0.3,0.1-0.5,0.2C43.3,162.5,43.1,162.7,43,163z"/>
	<path class="st2" d="M47.7,165.5l0.1-1.7c0.4,0,0.6,0,0.8-0.1c0.2-0.1,0.3-0.2,0.3-0.4c0-0.2,0-0.5,0-0.9l-0.2-5.7h1.7l0.2,5.8
		c0,0.5,0,0.9-0.1,1.3c-0.1,0.4-0.2,0.7-0.4,1c-0.2,0.3-0.5,0.5-0.9,0.6C48.9,165.4,48.4,165.5,47.7,165.5z"/>
	<path class="st2" d="M52.2,165.5l-0.3-8.8h1.7l0.3,8.8H52.2z"/>
	<path class="st2" d="M58,165.1c0-0.3,0-0.6,0.1-1c0.1-0.4,0.2-0.9,0.5-1.5l1.5,0.5c-0.1,0.4-0.2,0.7-0.3,1
		c-0.1,0.3-0.1,0.5-0.1,0.8c0,0.5,0.2,1,0.6,1.3s0.9,0.5,1.6,0.5c0.6,0,1.1-0.1,1.5-0.3c0.4-0.2,0.6-0.4,0.8-0.7
		c0.1-0.3,0.2-0.7,0.2-1c0-0.3-0.1-0.7-0.2-1.2c-0.1-0.5-0.3-1-0.4-1.5l1.7-0.4c0.1,0.5,0.2,0.8,0.3,1.1s0.1,0.4,0.2,0.6
		c0.1,0.4,0.3,0.6,0.6,0.7c0.3,0.1,0.6,0.2,1.1,0.2c0.3,0,0.5,0.1,0.6,0.2c0.1,0.2,0.2,0.4,0.2,0.6c0,0.2-0.1,0.5-0.3,0.6
		s-0.4,0.2-0.7,0.2c-0.3,0-0.5,0-0.8-0.1c-0.3-0.1-0.5-0.2-0.7-0.3c-0.1,1-0.5,1.8-1.2,2.3c-0.7,0.6-1.7,0.8-2.9,0.8
		c-0.7,0-1.4-0.1-1.9-0.3c-0.6-0.2-1-0.5-1.4-1S58,165.9,58,165.1z M61.9,160.6c-0.2,0-0.5-0.1-0.6-0.3c-0.2-0.2-0.3-0.4-0.3-0.6
		s0.1-0.5,0.3-0.6c0.2-0.2,0.4-0.3,0.6-0.3c0.2,0,0.4,0.1,0.6,0.3c0.2,0.2,0.3,0.4,0.3,0.6s-0.1,0.5-0.3,0.6
		C62.3,160.5,62.1,160.6,61.9,160.6z"/>
	<path class="st2" d="M67.3,165.5l0.1-1.7c0.2,0,0.3,0,0.5-0.1c0.1-0.1,0.3-0.2,0.4-0.5c0.1-0.2,0.3-0.5,0.5-0.9
		c0.4-0.7,0.7-1.2,1.1-1.5c0.4-0.3,0.8-0.4,1.2-0.4c0.5,0,0.9,0.1,1.3,0.4s0.7,0.6,0.9,1s0.3,0.9,0.3,1.3c0,0.4-0.1,0.8-0.3,1.1
		c-0.2,0.3-0.4,0.6-0.7,0.8c-0.3,0.2-0.7,0.3-1.1,0.3c-0.3,0-0.7,0-1-0.1c-0.4-0.1-0.8-0.3-1.2-0.6c-0.2,0.3-0.5,0.5-0.8,0.6
		C68.2,165.5,67.8,165.5,67.3,165.5z M71.2,162.1c-0.2,0-0.4,0.1-0.6,0.3c-0.1,0.2-0.3,0.5-0.5,0.9c0.2,0.1,0.5,0.2,0.7,0.3
		c0.2,0.1,0.4,0.1,0.5,0.1c0.2,0,0.4,0,0.5-0.1c0.1-0.1,0.2-0.2,0.2-0.4c0-0.2,0-0.3-0.1-0.5c-0.1-0.2-0.2-0.3-0.3-0.5
		C71.5,162.2,71.3,162.1,71.2,162.1z"/>
	<path class="st2" d="M81.9,170.2c-0.8,0-1.6-0.1-2.2-0.4c-0.7-0.3-1.2-0.7-1.6-1.2c-0.4-0.5-0.6-1.2-0.6-2c0-0.9,0.2-1.6,0.6-2.3
		c0.4-0.7,1-1.2,1.7-1.6c0.7-0.4,1.5-0.8,2.4-1c-0.4-0.1-0.8-0.2-1.2-0.3c-0.5-0.1-1-0.2-1.5-0.2c-0.3,0-0.6,0-0.8,0.1
		c-0.3,0-0.5,0.1-0.7,0.1l-0.3-1.6c0.2-0.1,0.5-0.1,0.7-0.2c0.3,0,0.6-0.1,0.8-0.1c0.5,0,1,0.1,1.5,0.2s0.9,0.2,1.2,0.4
		c0.4,0.1,0.8,0.3,1.1,0.4c0.4,0.1,0.7,0.2,1.1,0.2h0.5l0.2,1.8c-0.4,0-0.8,0.1-1.3,0.2c-0.5,0.1-1,0.3-1.5,0.5
		c-0.5,0.2-1,0.5-1.4,0.8c-0.4,0.3-0.8,0.7-1.1,1.1s-0.4,0.9-0.4,1.4c0,0.5,0.1,0.9,0.4,1.2c0.3,0.3,0.6,0.5,1,0.7
		c0.4,0.1,0.9,0.2,1.4,0.2c0.9,0,1.8-0.2,2.7-0.6l0.5,1.5c-0.6,0.3-1.2,0.5-1.7,0.6C83,170.1,82.4,170.2,81.9,170.2z M82.2,166.9
		c-0.2,0-0.5-0.1-0.6-0.3c-0.2-0.2-0.3-0.4-0.3-0.6s0.1-0.5,0.3-0.6c0.2-0.2,0.4-0.3,0.6-0.3c0.2,0,0.4,0.1,0.6,0.3
		c0.2,0.2,0.3,0.4,0.3,0.6s-0.1,0.5-0.3,0.6C82.6,166.8,82.4,166.9,82.2,166.9z"/>
	<path class="st2" d="M86.3,168.2l-0.3-1.7c0.8-0.1,1.4-0.2,1.9-0.4c0.5-0.2,0.9-0.4,1.1-0.8c-0.1,0-0.2,0.1-0.4,0.1s-0.3,0-0.4,0
		c-0.4,0-0.7-0.1-1-0.2c-0.3-0.1-0.6-0.3-0.7-0.6c-0.2-0.3-0.3-0.6-0.3-1c0-0.4,0.1-0.8,0.2-1.1c0.1-0.4,0.3-0.7,0.5-1
		s0.5-0.5,0.8-0.7s0.6-0.3,1-0.3c0.4,0,0.7,0.1,1,0.3c0.3,0.2,0.6,0.5,0.8,0.8c0.2,0.3,0.4,0.7,0.5,1s0.2,0.7,0.2,1.1
		c0,0.9-0.2,1.7-0.6,2.3c-0.4,0.6-0.9,1.1-1.6,1.5C88.2,168,87.3,168.2,86.3,168.2z M87.9,163.4c0,0.3,0.3,0.5,0.8,0.5
		c0.3,0,0.5,0,0.8-0.1c0-0.2-0.1-0.4-0.1-0.6s-0.1-0.4-0.3-0.5c-0.1-0.1-0.3-0.2-0.4-0.2c-0.2,0-0.4,0.1-0.5,0.3
		C87.9,162.9,87.9,163.1,87.9,163.4z"/>
	<path class="st2" d="M91.8,168.2l-0.6-1.5c0.6-0.2,1.1-0.4,1.5-0.7c0.4-0.3,0.8-0.6,1-0.9c0.3-0.3,0.4-0.7,0.4-1.2
		c0-0.3-0.1-0.7-0.2-1.1s-0.3-0.8-0.6-1.2l1.6-0.8c0.1,0.2,0.3,0.5,0.4,0.8c0.1,0.3,0.2,0.5,0.3,0.8c0.1,0.2,0.1,0.4,0.1,0.5
		c0.1,0.4,0.3,0.6,0.5,0.8c0.2,0.1,0.5,0.2,1,0.2c0.3,0,0.5,0.1,0.6,0.2c0.1,0.2,0.2,0.4,0.2,0.6c0,0.2-0.1,0.5-0.3,0.6
		s-0.4,0.2-0.7,0.2c-0.6,0-1.1-0.2-1.4-0.5c-0.1,0.5-0.4,1-0.8,1.4c-0.4,0.4-0.8,0.8-1.4,1.1C93,167.8,92.4,168.1,91.8,168.2z"/>
	<path class="st2" d="M97,165.5l0.1-1.7c0.9,0,1.7-0.1,2.5-0.3s1.5-0.5,2.2-0.9c-0.4-0.2-0.8-0.4-1.2-0.5c-0.4-0.1-0.9-0.2-1.5-0.2
		c-0.2,0-0.4,0-0.6,0c-0.2,0-0.4,0.1-0.6,0.1l-0.2-1.6c0.2-0.1,0.5-0.1,0.7-0.1c0.3,0,0.5,0,0.7,0c0.5,0,1,0.1,1.5,0.2
		c0.4,0.1,0.8,0.3,1.2,0.5s0.7,0.4,1,0.5c0.3,0.1,0.6,0.2,0.9,0.2h0.4l0.2,1.6c-0.2,0-0.3,0-0.5,0.1c-0.2,0-0.3,0.1-0.5,0.1
		c0.2,0.1,0.4,0.2,0.7,0.3c0.3,0,0.6,0.1,1,0.1c0.3,0,0.5,0.1,0.6,0.2c0.1,0.2,0.2,0.4,0.2,0.6c0,0.2-0.1,0.5-0.2,0.6
		s-0.4,0.2-0.7,0.2c-0.6,0-1.2-0.1-1.7-0.3c-0.5-0.2-0.9-0.5-1.2-1.1c-0.4,0.2-0.8,0.4-1.2,0.6c-0.4,0.2-1,0.4-1.6,0.5
		C98.6,165.4,97.9,165.5,97,165.5z M99.1,159c-0.2,0-0.5-0.1-0.6-0.3c-0.2-0.2-0.3-0.4-0.3-0.6s0.1-0.5,0.3-0.6
		c0.2-0.2,0.4-0.3,0.6-0.3c0.2,0,0.4,0.1,0.6,0.3c0.2,0.2,0.3,0.4,0.3,0.6s-0.1,0.5-0.3,0.6C99.5,158.9,99.3,159,99.1,159z"/>
	<path class="st2" d="M104.9,165.5l0.1-1.7c0.4,0,0.6,0,0.8-0.1c0.2-0.1,0.3-0.2,0.3-0.4c0-0.2,0-0.5,0-0.9l-0.2-5.7h1.7l0.2,5.8
		c0,0.5,0,0.9-0.1,1.3c-0.1,0.4-0.2,0.7-0.4,1c-0.2,0.3-0.5,0.5-0.9,0.6C106.1,165.4,105.6,165.5,104.9,165.5z"/>
	<path class="st2" d="M109.4,165.5l-0.3-8.8h1.7l0.3,8.8H109.4z"/>
	<path class="st2" d="M117.5,163.8c0.5,0,0.9-0.1,1.1-0.2s0.3-0.3,0.3-0.5c0-0.2-0.1-0.4-0.2-0.7c-0.1-0.3-0.2-0.5-0.4-0.8
		s-0.3-0.5-0.5-0.8s-0.3-0.5-0.5-0.7l1.4-0.9c0.5,0.7,0.9,1.4,1.2,2c0.3,0.7,0.5,1.2,0.6,1.6c0.1,0.4,0.3,0.6,0.5,0.8
		s0.5,0.2,0.8,0.2c0.3,0,0.5,0.1,0.7,0.2c0.1,0.2,0.2,0.4,0.2,0.6c0,0.2-0.1,0.5-0.2,0.6s-0.4,0.2-0.7,0.2c-0.8,0-1.3-0.2-1.7-0.7
		c-0.2,0.2-0.5,0.4-0.9,0.5c-0.4,0.1-0.9,0.2-1.4,0.2c-0.4,0-0.8,0-1.2-0.1s-0.9-0.2-1.2-0.4l0.6-1.5c0.3,0.1,0.6,0.2,0.9,0.3
		C117,163.8,117.2,163.8,117.5,163.8z"/>
	<path class="st2" d="M121.6,165.5l0.1-1.7c0.4,0,0.7,0,1.1-0.1c0.3,0,0.6-0.1,0.9-0.2c-0.2-0.2-0.3-0.4-0.5-0.6s-0.3-0.3-0.5-0.4
		c0,0-0.1-0.1-0.1-0.3s-0.1-0.3-0.1-0.4c0-0.2-0.1-0.3-0.1-0.3c0-0.2,0.1-0.4,0.3-0.6s0.4-0.4,0.7-0.6c0.3-0.2,0.6-0.3,1-0.4
		c0.4-0.1,0.7-0.2,1.1-0.2c0.7,0,1.3,0.2,1.7,0.5s0.6,0.7,0.6,1.3c0,0.4-0.1,0.7-0.2,1.1s-0.4,0.7-0.7,1c0.2,0.1,0.5,0.1,0.8,0.1
		s0.6,0,0.9,0s0.5,0.1,0.6,0.2c0.1,0.2,0.2,0.4,0.2,0.6c0,0.2-0.1,0.5-0.3,0.6s-0.4,0.2-0.7,0.2c-0.7,0-1.3-0.1-1.8-0.2
		c-0.5-0.1-1-0.3-1.4-0.5c-0.5,0.2-1,0.4-1.6,0.5S122.3,165.5,121.6,165.5z M124,161.6c0.2,0.2,0.4,0.4,0.7,0.6
		c0.3,0.2,0.5,0.5,0.7,0.8c0.4-0.3,0.7-0.7,0.7-1.1c0-0.2-0.1-0.3-0.2-0.4s-0.3-0.2-0.6-0.2c-0.2,0-0.4,0-0.6,0.1
		C124.4,161.4,124.1,161.5,124,161.6z"/>
	<path class="st2" d="M128.3,165.5l0.1-1.7c0.5,0,0.9-0.1,1.1-0.2s0.3-0.4,0.3-0.7c0-0.2,0-0.5-0.1-0.8c-0.1-0.3-0.1-0.6-0.2-1
		s-0.2-0.6-0.3-0.9l1.7-0.5c0.1,0.3,0.2,0.6,0.3,0.9c0.1,0.4,0.2,0.7,0.2,1.1c0.1,0.4,0.1,0.7,0.1,1.1c0,0.5-0.1,1-0.3,1.3
		s-0.4,0.6-0.7,0.8c-0.3,0.2-0.6,0.3-1,0.4C129.2,165.5,128.8,165.5,128.3,165.5z M129.8,168.3c-0.2,0-0.4-0.1-0.6-0.2
		c-0.2-0.2-0.2-0.4-0.2-0.6c0-0.2,0.1-0.4,0.2-0.6s0.4-0.3,0.6-0.3c0.2,0,0.4,0.1,0.6,0.3s0.3,0.4,0.3,0.6c0,0.2-0.1,0.4-0.3,0.6
		C130.2,168.2,130,168.3,129.8,168.3z"/>
	<path class="st2" d="M140.3,165.7c-1.2,0-2.1-0.1-2.8-0.3c-0.7-0.2-1.2-0.6-1.5-1c-0.3-0.4-0.5-0.9-0.5-1.4c0-0.4,0-0.8,0.1-1.2
		c0.1-0.4,0.2-0.7,0.3-1l1.5,0.3c-0.1,0.2-0.1,0.5-0.2,0.7c-0.1,0.3-0.1,0.5-0.1,0.7c0,0.3,0.1,0.6,0.3,0.8c0.2,0.2,0.6,0.4,1.1,0.5
		c0.5,0.1,1.1,0.2,2,0.2v0l0,0c0.6,0,1.1,0,1.7-0.1c0.5-0.1,1-0.2,1.5-0.3c0.5-0.2,0.9-0.4,1.4-0.7s0.8-0.8,1.2-1.3l1.3,0.6
		c0,0.2-0.1,0.3-0.1,0.4c0,0.1,0,0.3,0,0.3c0,0.3,0.1,0.5,0.3,0.7s0.6,0.2,1.2,0.2c0.3,0,0.5,0.1,0.6,0.2c0.1,0.2,0.2,0.4,0.2,0.6
		c0,0.2-0.1,0.5-0.2,0.6s-0.4,0.2-0.7,0.2c-0.7,0-1.3-0.1-1.8-0.4c-0.5-0.3-0.8-0.6-0.9-1c-0.6,0.5-1.4,0.9-2.5,1.2
		C142.8,165.6,141.6,165.7,140.3,165.7L140.3,165.7L140.3,165.7z M141.2,168.5c-0.2,0-0.4-0.1-0.6-0.2s-0.2-0.4-0.2-0.6
		c0-0.2,0.1-0.4,0.2-0.6s0.4-0.3,0.6-0.3c0.2,0,0.4,0.1,0.6,0.3s0.3,0.4,0.3,0.6c0,0.2-0.1,0.4-0.3,0.6S141.4,168.5,141.2,168.5z"/>
	<path class="st2" d="M148.9,165.5l0.1-1.7c0.4,0,0.6,0,0.8-0.1c0.2-0.1,0.3-0.2,0.3-0.4c0-0.2,0-0.5,0-0.9l-0.2-5.7h1.7l0.2,5.8
		c0,0.5,0,0.9-0.1,1.3s-0.2,0.7-0.4,1c-0.2,0.3-0.5,0.5-0.9,0.6C150.2,165.4,149.6,165.5,148.9,165.5z"/>
	<path class="st2" d="M156.3,165.5c-0.7,0-1.3-0.1-1.7-0.2c-0.4-0.2-0.7-0.4-0.9-0.7c-0.2-0.3-0.3-0.7-0.3-1.2l-0.3-6.7h1.7l0.3,5.9
		c0,0.4,0.1,0.6,0.1,0.8c0.1,0.2,0.2,0.3,0.4,0.4c0.2,0.1,0.4,0.1,0.8,0.1c0.3,0,0.5,0.1,0.6,0.2c0.1,0.2,0.2,0.4,0.2,0.6
		c0,0.2-0.1,0.5-0.3,0.6S156.6,165.5,156.3,165.5z"/>
	<path class="st2" d="M156.3,165.5l0.1-1.7h0.6c0.2-0.2,0.3-0.5,0.5-0.7l-0.2-6.4h1.7l0.2,4.7c0.5-0.4,0.9-0.7,1.4-0.9
		c0.5-0.2,1-0.3,1.5-0.3c0.5,0,1,0.1,1.4,0.3c0.4,0.2,0.7,0.5,0.9,0.9c0.2,0.4,0.3,0.8,0.3,1.3c0,0.5-0.1,1-0.4,1.4s-0.8,0.8-1.5,1
		c-0.3,0.1-0.6,0.2-1,0.3c-0.3,0.1-0.7,0.1-1.2,0.2c-0.5,0-1,0.1-1.7,0.1H156.3z M162,161.8c-0.4,0-0.7,0.1-1.1,0.3
		c-0.4,0.2-0.7,0.5-1,0.8c-0.3,0.3-0.6,0.7-0.9,1h0.1c1,0,1.8,0,2.4-0.2c0.6-0.1,1-0.2,1.2-0.4c0.2-0.2,0.3-0.4,0.3-0.6
		c0-0.2-0.1-0.4-0.2-0.6C162.6,161.8,162.4,161.8,162,161.8z M165.5,165.5c-0.6,0-1.2-0.1-1.7-0.2c-0.5-0.2-0.9-0.4-1.2-0.6l1.1-1.2
		c0.3,0.1,0.6,0.2,0.9,0.3c0.3,0.1,0.7,0.1,1.1,0.1c0.3,0,0.5,0.1,0.6,0.2c0.1,0.2,0.2,0.4,0.2,0.6c0,0.2-0.1,0.5-0.3,0.6
		S165.8,165.5,165.5,165.5z"/>
	<path class="st2" d="M165.5,165.5l0.1-1.7c0.4,0,0.6,0,0.8-0.1s0.3-0.2,0.3-0.4s0-0.5,0-0.9l-0.2-5.7h1.7l0.2,5.8
		c0,0.5,0,0.9-0.1,1.3c-0.1,0.4-0.2,0.7-0.4,1c-0.2,0.3-0.5,0.5-0.9,0.6S166.1,165.5,165.5,165.5z"/>
	<path class="st2" d="M170,165.5l-0.3-8.8h1.7l0.3,8.8H170z"/>
	<path class="st2" d="M175.7,165.1c0-0.3,0-0.6,0.1-1c0.1-0.4,0.2-0.9,0.5-1.5l1.5,0.5c-0.1,0.4-0.2,0.7-0.3,1
		c-0.1,0.3-0.1,0.5-0.1,0.8c0,0.5,0.2,0.9,0.7,1.3c0.5,0.3,1.1,0.5,2,0.5c0.9,0,1.6-0.1,2.1-0.2s0.8-0.4,0.8-0.7
		c0-0.1-0.1-0.3-0.3-0.4c-0.2-0.1-0.6-0.3-1.1-0.5l0.4-1.7c0.7,0.3,1.3,0.5,1.9,0.6c0.6,0.1,1.1,0.2,1.5,0.2c0.3,0,0.5,0.1,0.6,0.2
		c0.1,0.2,0.2,0.4,0.2,0.6c0,0.2-0.1,0.5-0.3,0.6s-0.4,0.2-0.7,0.2h-0.6c0,0.1,0,0.2,0,0.2c0,0.1,0,0.1,0,0.2c0,0.3-0.1,0.5-0.3,0.8
		c-0.2,0.3-0.5,0.5-0.8,0.8c-0.4,0.2-0.9,0.4-1.4,0.6s-1.3,0.2-2.1,0.2c-1.3,0-2.3-0.3-3.1-0.8C176.1,167,175.7,166.2,175.7,165.1z
		 M185,165.5l0.1-1.7c0.4,0,0.6,0,0.8-0.1c0.2-0.1,0.3-0.2,0.3-0.4c0-0.2,0-0.5,0-0.9l-0.2-5.7h1.7l0.2,5.7c0,0.4,0.1,0.7,0.1,0.9
		c0.1,0.2,0.2,0.4,0.4,0.4c0.2,0.1,0.4,0.1,0.8,0.1c0.3,0,0.5,0.1,0.6,0.2c0.1,0.2,0.2,0.4,0.2,0.6c0,0.2-0.1,0.5-0.3,0.6
		s-0.4,0.2-0.7,0.2c-0.4,0-0.8-0.1-1.1-0.2c-0.3-0.1-0.6-0.3-0.8-0.7c-0.2,0.3-0.5,0.6-0.9,0.7C186,165.5,185.6,165.5,185,165.5z"/>
	<path class="st2" d="M189.2,165.5l0.1-1.7c0.4,0,0.7,0,0.9,0c0.2,0,0.4,0,0.5,0c0.1,0,0.2,0,0.3,0c-0.1-0.1-0.2-0.2-0.3-0.3
		s-0.2-0.3-0.3-0.6c-0.1-0.2-0.1-0.5-0.1-0.9c0-0.5,0.1-0.9,0.4-1.3s0.6-0.7,1-0.9c0.4-0.2,0.9-0.3,1.5-0.3c0.5,0,0.9,0.1,1.4,0.2
		l-0.3,1.6c-0.2,0-0.3-0.1-0.5-0.1c-0.2,0-0.3,0-0.5,0c-0.4,0-0.7,0.1-1,0.3c-0.2,0.2-0.4,0.4-0.4,0.7c0,0.2,0.1,0.4,0.2,0.6
		c0.1,0.2,0.3,0.3,0.5,0.4c0.2,0.1,0.3,0.2,0.4,0.2c0.3-0.1,0.5-0.1,0.7-0.2c0.2-0.1,0.4-0.1,0.6-0.2c0.2-0.1,0.5-0.2,0.8-0.3
		l0.5,1.6c-0.7,0.3-1.3,0.6-2,0.8c-0.6,0.2-1.3,0.3-2,0.4C190.8,165.5,190,165.5,189.2,165.5z"/>
	<path class="st2" d="M204,165.7c-1.2,0-2.1-0.1-2.8-0.3c-0.7-0.2-1.2-0.6-1.5-1c-0.3-0.4-0.5-0.9-0.5-1.4c0-0.4,0-0.8,0.1-1.2
		c0.1-0.4,0.2-0.7,0.3-1l1.5,0.3c-0.1,0.2-0.1,0.5-0.2,0.7c-0.1,0.3-0.1,0.5-0.1,0.7c0,0.3,0.1,0.6,0.3,0.8c0.2,0.2,0.6,0.4,1,0.5
		s1.1,0.2,2,0.2v0l0,0c0.6,0,1.1,0,1.7-0.1c0.5-0.1,1-0.2,1.5-0.3s0.9-0.4,1.4-0.7s0.8-0.8,1.2-1.3l1.3,0.6c0,0.2-0.1,0.3-0.1,0.4
		c0,0.1,0,0.3,0,0.3c0,0.3,0.1,0.5,0.3,0.7c0.2,0.2,0.6,0.2,1.2,0.2c0.3,0,0.5,0.1,0.6,0.2c0.1,0.2,0.2,0.4,0.2,0.6
		c0,0.2-0.1,0.5-0.2,0.6s-0.4,0.2-0.7,0.2c-0.7,0-1.3-0.1-1.8-0.4s-0.8-0.6-0.9-1c-0.6,0.5-1.4,0.9-2.5,1.2
		C206.5,165.6,205.3,165.7,204,165.7L204,165.7L204,165.7z M204.9,168.5c-0.2,0-0.4-0.1-0.6-0.2s-0.2-0.4-0.2-0.6
		c0-0.2,0.1-0.4,0.2-0.6s0.4-0.3,0.6-0.3c0.2,0,0.4,0.1,0.6,0.3s0.3,0.4,0.3,0.6c0,0.2-0.1,0.4-0.3,0.6S205.1,168.5,204.9,168.5z"/>
	<path class="st2" d="M212.7,165.5l0.1-1.7c0.9,0,1.7-0.1,2.5-0.3c0.8-0.2,1.5-0.5,2.2-0.9c-0.4-0.2-0.8-0.4-1.2-0.5
		s-0.9-0.2-1.5-0.2c-0.2,0-0.4,0-0.6,0c-0.2,0-0.4,0.1-0.6,0.1l-0.2-1.6c0.2-0.1,0.5-0.1,0.7-0.1c0.3,0,0.5,0,0.7,0
		c0.5,0,1,0.1,1.5,0.2c0.4,0.1,0.8,0.3,1.2,0.5c0.4,0.2,0.7,0.4,1,0.5c0.3,0.1,0.6,0.2,0.9,0.2h0.4l0.2,1.6c-0.2,0-0.3,0-0.5,0.1
		c-0.2,0-0.3,0.1-0.5,0.1c0.2,0.1,0.4,0.2,0.7,0.3c0.3,0,0.6,0.1,1,0.1c0.3,0,0.5,0.1,0.6,0.2c0.1,0.2,0.2,0.4,0.2,0.6
		c0,0.2-0.1,0.5-0.2,0.6s-0.4,0.2-0.7,0.2c-0.6,0-1.2-0.1-1.7-0.3c-0.5-0.2-0.9-0.5-1.2-1.1c-0.4,0.2-0.8,0.4-1.2,0.6
		s-1,0.4-1.6,0.5C214.2,165.4,213.5,165.5,212.7,165.5z M216.1,168.2c-0.2,0-0.4-0.1-0.6-0.2s-0.2-0.4-0.2-0.6s0.1-0.4,0.2-0.6
		c0.2-0.2,0.4-0.3,0.6-0.3c0.2,0,0.4,0.1,0.6,0.3c0.2,0.2,0.3,0.4,0.3,0.6s-0.1,0.4-0.3,0.6S216.3,168.2,216.1,168.2z"/>
	<path class="st2" d="M220.5,165.5l0.1-1.7c0.5,0,0.8,0,1.1-0.1s0.4-0.1,0.5-0.3c0.1-0.1,0.2-0.3,0.2-0.6c0-0.2,0-0.5-0.1-0.8
		c-0.1-0.3-0.1-0.6-0.2-1c-0.1-0.3-0.2-0.6-0.3-0.9l1.7-0.5c0.1,0.3,0.2,0.6,0.3,0.9c0.1,0.4,0.2,0.7,0.2,1.1
		c0.1,0.4,0.1,0.7,0.1,1.1c0,0.5-0.1,1-0.3,1.3c-0.2,0.3-0.4,0.6-0.7,0.8c-0.3,0.2-0.7,0.3-1.1,0.4
		C221.5,165.5,221,165.5,220.5,165.5z M221.4,168.3c-0.2,0-0.4-0.1-0.6-0.2s-0.2-0.4-0.2-0.6s0.1-0.4,0.2-0.6s0.4-0.3,0.6-0.3
		c0.2,0,0.4,0.1,0.6,0.3s0.2,0.4,0.2,0.6s-0.1,0.4-0.2,0.6S221.6,168.3,221.4,168.3z M223.5,168.3c-0.2,0-0.4-0.1-0.6-0.2
		c-0.2-0.2-0.2-0.4-0.2-0.6s0.1-0.4,0.2-0.6c0.2-0.2,0.4-0.3,0.6-0.3c0.2,0,0.4,0.1,0.6,0.3c0.2,0.2,0.2,0.4,0.2,0.6
		s-0.1,0.4-0.2,0.6C223.9,168.2,223.7,168.3,223.5,168.3z"/>
	<path class="st2" d="M17.7,184.6c-0.8,0-1.6-0.1-2.2-0.4c-0.7-0.3-1.2-0.7-1.6-1.2c-0.4-0.5-0.6-1.2-0.6-2c0-0.9,0.2-1.6,0.6-2.3
		s1-1.2,1.7-1.7c0.7-0.4,1.5-0.8,2.4-1c-0.4-0.1-0.8-0.2-1.2-0.3c-0.5-0.1-1-0.2-1.5-0.2c-0.3,0-0.6,0-0.8,0.1
		c-0.3,0-0.5,0.1-0.7,0.1l-0.3-1.6c0.2-0.1,0.5-0.1,0.7-0.2s0.6-0.1,0.8-0.1c0.5,0,1,0.1,1.5,0.2c0.4,0.1,0.9,0.2,1.2,0.4
		c0.4,0.1,0.8,0.3,1.1,0.4c0.4,0.1,0.7,0.2,1.1,0.2h0.5l0.2,1.8c-0.4,0-0.8,0.1-1.3,0.2c-0.5,0.1-1,0.3-1.5,0.5
		c-0.5,0.2-1,0.5-1.4,0.8c-0.4,0.3-0.8,0.7-1.1,1.1s-0.4,0.9-0.4,1.4s0.1,0.9,0.4,1.2c0.3,0.3,0.6,0.5,1,0.7
		c0.4,0.1,0.9,0.2,1.4,0.2c0.9,0,1.8-0.2,2.7-0.6l0.5,1.5c-0.6,0.3-1.2,0.5-1.7,0.6C18.7,184.5,18.2,184.6,17.7,184.6z M17.9,181.3
		c-0.2,0-0.5-0.1-0.6-0.3c-0.2-0.2-0.3-0.4-0.3-0.6s0.1-0.5,0.3-0.6c0.2-0.2,0.4-0.3,0.6-0.3c0.2,0,0.4,0.1,0.6,0.3
		c0.2,0.2,0.3,0.4,0.3,0.6s-0.1,0.5-0.3,0.6C18.4,181.2,18.2,181.3,17.9,181.3z"/>
	<path class="st2" d="M22.1,182.6l-0.3-1.7c0.8-0.1,1.4-0.2,1.9-0.4c0.5-0.2,0.9-0.4,1.1-0.8c-0.1,0-0.2,0.1-0.4,0.1
		c-0.1,0-0.3,0-0.4,0c-0.4,0-0.7-0.1-1-0.2c-0.3-0.1-0.6-0.3-0.7-0.6s-0.3-0.6-0.3-1c0-0.4,0.1-0.8,0.2-1.1s0.3-0.7,0.5-1
		s0.5-0.5,0.8-0.7c0.3-0.2,0.6-0.3,1-0.3c0.4,0,0.7,0.1,1,0.3c0.3,0.2,0.6,0.5,0.8,0.8c0.2,0.3,0.4,0.7,0.5,1
		c0.1,0.4,0.2,0.7,0.2,1.1c0,0.9-0.2,1.7-0.6,2.3c-0.4,0.6-0.9,1.1-1.6,1.5S23.1,182.6,22.1,182.6z M23.6,177.8
		c0,0.3,0.3,0.5,0.8,0.5c0.3,0,0.5,0,0.8-0.1c0-0.2-0.1-0.4-0.1-0.6s-0.1-0.4-0.3-0.5c-0.1-0.1-0.3-0.2-0.4-0.2
		c-0.2,0-0.4,0.1-0.5,0.3C23.7,177.3,23.6,177.5,23.6,177.8z"/>
	<path class="st2" d="M27.6,182.6l-0.6-1.5c0.6-0.2,1.1-0.4,1.5-0.7c0.4-0.3,0.8-0.6,1-0.9s0.4-0.7,0.4-1.2c0-0.3-0.1-0.7-0.2-1.1
		c-0.2-0.4-0.3-0.8-0.6-1.2l1.6-0.8c0.1,0.2,0.3,0.5,0.4,0.8c0.1,0.3,0.2,0.5,0.3,0.8c0.1,0.2,0.1,0.4,0.1,0.5
		c0.1,0.4,0.3,0.6,0.5,0.8c0.2,0.1,0.5,0.2,1,0.2c0.3,0,0.5,0.1,0.6,0.2c0.1,0.2,0.2,0.3,0.2,0.6c0,0.2-0.1,0.5-0.3,0.6
		s-0.4,0.2-0.7,0.2c-0.6,0-1.1-0.2-1.4-0.5c-0.1,0.5-0.4,1-0.8,1.4c-0.4,0.4-0.8,0.8-1.4,1.1C28.7,182.2,28.1,182.5,27.6,182.6z"/>
	<path class="st2" d="M32.8,179.9l0.1-1.7c0.9,0,1.7-0.1,2.5-0.3c0.8-0.2,1.5-0.5,2.2-0.9c-0.4-0.2-0.8-0.4-1.2-0.5
		c-0.4-0.1-0.9-0.2-1.5-0.2c-0.2,0-0.4,0-0.6,0c-0.2,0-0.4,0.1-0.6,0.1l-0.2-1.6c0.2-0.1,0.5-0.1,0.7-0.1c0.3,0,0.5,0,0.7,0
		c0.5,0,1,0.1,1.5,0.2c0.4,0.1,0.8,0.3,1.2,0.5c0.4,0.2,0.7,0.4,1,0.5c0.3,0.1,0.6,0.2,0.9,0.2h0.4l0.2,1.6c-0.2,0-0.3,0-0.5,0.1
		c-0.2,0-0.3,0.1-0.5,0.1c0.2,0.1,0.4,0.2,0.7,0.3c0.3,0,0.6,0.1,1,0.1c0.3,0,0.5,0.1,0.6,0.2c0.1,0.2,0.2,0.3,0.2,0.6
		c0,0.2-0.1,0.5-0.2,0.6s-0.4,0.2-0.7,0.2c-0.6,0-1.2-0.1-1.7-0.3c-0.5-0.2-0.9-0.5-1.2-1.1c-0.4,0.2-0.8,0.4-1.2,0.6
		c-0.4,0.2-1,0.4-1.6,0.5C34.3,179.8,33.6,179.9,32.8,179.9z M34.8,173.4c-0.2,0-0.5-0.1-0.6-0.3c-0.2-0.2-0.3-0.4-0.3-0.6
		s0.1-0.5,0.3-0.6c0.2-0.2,0.4-0.3,0.6-0.3c0.2,0,0.4,0.1,0.6,0.3c0.2,0.2,0.3,0.4,0.3,0.6s-0.1,0.5-0.3,0.6
		C35.3,173.3,35.1,173.4,34.8,173.4z"/>
	<path class="st2" d="M40.6,179.9l0.1-1.7c0.4,0,0.6,0,0.8-0.1c0.2-0.1,0.3-0.2,0.3-0.4c0-0.2,0-0.5,0-0.9l-0.2-5.7h1.7l0.2,5.8
		c0,0.5,0,0.9-0.1,1.3c-0.1,0.4-0.2,0.7-0.4,1c-0.2,0.3-0.5,0.5-0.9,0.6C41.8,179.8,41.3,179.9,40.6,179.9z"/>
	<path class="st2" d="M45.1,179.9l-0.3-8.8h1.7l0.3,8.8H45.1z"/>
	<path class="st2" d="M55.7,180.1c-1.2,0-2.1-0.1-2.8-0.3c-0.7-0.2-1.2-0.6-1.5-1s-0.5-0.9-0.5-1.4c0-0.4,0-0.8,0.1-1.2
		c0.1-0.4,0.2-0.7,0.3-1l1.5,0.3c-0.1,0.2-0.1,0.5-0.2,0.7c-0.1,0.3-0.1,0.5-0.1,0.7c0,0.3,0.1,0.6,0.3,0.8s0.6,0.4,1.1,0.5
		c0.5,0.1,1.1,0.2,2,0.2v0l0,0c0.6,0,1.1,0,1.7-0.1c0.5-0.1,1-0.2,1.5-0.3c0.5-0.2,0.9-0.4,1.4-0.7s0.8-0.8,1.2-1.3l1.3,0.6
		c0,0.2-0.1,0.3-0.1,0.4c0,0.1,0,0.3,0,0.3c0,0.3,0.1,0.5,0.3,0.7c0.2,0.2,0.6,0.2,1.2,0.2c0.3,0,0.5,0.1,0.6,0.2
		c0.1,0.2,0.2,0.3,0.2,0.6c0,0.2-0.1,0.5-0.2,0.6s-0.4,0.2-0.7,0.2c-0.7,0-1.3-0.1-1.8-0.4c-0.5-0.3-0.8-0.6-0.9-1
		c-0.6,0.5-1.4,0.9-2.5,1.2S56.9,180.1,55.7,180.1L55.7,180.1L55.7,180.1z M55.8,174.6c-0.2,0-0.4-0.1-0.6-0.2
		c-0.2-0.2-0.2-0.4-0.2-0.6c0-0.2,0.1-0.4,0.2-0.6s0.4-0.3,0.6-0.3c0.2,0,0.4,0.1,0.6,0.3s0.2,0.4,0.2,0.6c0,0.2-0.1,0.4-0.2,0.6
		C56.2,174.5,56,174.6,55.8,174.6z M57.9,174.6c-0.2,0-0.4-0.1-0.6-0.2c-0.2-0.2-0.2-0.4-0.2-0.6s0.1-0.4,0.2-0.6
		c0.2-0.2,0.4-0.3,0.6-0.3c0.2,0,0.4,0.1,0.6,0.3s0.2,0.4,0.2,0.6s-0.1,0.4-0.2,0.6S58.1,174.6,57.9,174.6z"/>
	<path class="st2" d="M64.3,179.9l0.1-1.7c0.7,0,1.2,0,1.6,0c0.4,0,0.7,0,1-0.1s0.4-0.1,0.5-0.1c0.1,0,0.2-0.1,0.3-0.1
		c0.1,0,0.1-0.1,0.2-0.2c0.1-0.1,0.1-0.2,0.1-0.3c-0.3,0.1-0.7,0.2-1,0.2c-0.6,0-1.1-0.1-1.5-0.4c-0.4-0.3-0.6-0.7-0.6-1.4
		c0-0.4,0.1-0.7,0.2-1c0.1-0.3,0.3-0.7,0.5-0.9c0.2-0.3,0.5-0.5,0.8-0.7c0.3-0.2,0.6-0.3,1-0.3c0.5,0,1,0.2,1.4,0.5
		c0.4,0.3,0.6,0.7,0.8,1.3s0.3,1.1,0.3,1.8c0,0.6-0.1,1.1-0.3,1.5s-0.4,0.8-0.6,1c-0.2,0.2-0.4,0.4-0.7,0.5
		c-0.2,0.1-0.6,0.2-0.9,0.3s-0.8,0.1-1.3,0.2C65.6,179.9,65,179.9,64.3,179.9z M66.4,171.8c-0.2,0-0.4-0.1-0.6-0.2s-0.2-0.4-0.2-0.6
		c0-0.2,0.1-0.4,0.2-0.6s0.4-0.3,0.6-0.3c0.2,0,0.4,0.1,0.6,0.3s0.2,0.4,0.2,0.6c0,0.2-0.1,0.4-0.2,0.6S66.6,171.8,66.4,171.8z
		 M66.6,175.5c0,0.3,0.3,0.5,0.8,0.5c0.3,0,0.5,0,0.8-0.1c0-0.4-0.1-0.8-0.3-1c-0.1-0.2-0.3-0.3-0.6-0.3c-0.2,0-0.4,0.1-0.5,0.3
		C66.7,175,66.6,175.2,66.6,175.5z M68.5,171.8c-0.2,0-0.4-0.1-0.6-0.2c-0.2-0.2-0.2-0.4-0.2-0.6c0-0.2,0.1-0.4,0.2-0.6
		c0.2-0.2,0.4-0.3,0.6-0.3c0.2,0,0.4,0.1,0.6,0.3c0.2,0.2,0.2,0.4,0.2,0.6c0,0.2-0.1,0.4-0.2,0.6C68.9,171.7,68.7,171.8,68.5,171.8z
		"/>
	<path class="st2" d="M71,182.6l-0.3-1.7c0.8-0.1,1.4-0.2,1.9-0.4c0.5-0.2,0.9-0.4,1.1-0.8c-0.1,0-0.2,0.1-0.4,0.1
		c-0.1,0-0.3,0-0.4,0c-0.4,0-0.7-0.1-1-0.2c-0.3-0.1-0.6-0.3-0.7-0.6s-0.3-0.6-0.3-1c0-0.4,0.1-0.8,0.2-1.1s0.3-0.7,0.5-1
		s0.5-0.5,0.8-0.7c0.3-0.2,0.6-0.3,1-0.3c0.4,0,0.7,0.1,1,0.3c0.3,0.2,0.6,0.5,0.8,0.8c0.2,0.3,0.4,0.7,0.5,1
		c0.1,0.4,0.2,0.7,0.2,1.1c0,0.9-0.2,1.7-0.6,2.3c-0.4,0.6-0.9,1.1-1.6,1.5S72,182.6,71,182.6z M72.6,177.8c0,0.3,0.3,0.5,0.8,0.5
		c0.3,0,0.5,0,0.8-0.1c0-0.2-0.1-0.4-0.1-0.6s-0.1-0.4-0.3-0.5c-0.1-0.1-0.3-0.2-0.4-0.2c-0.2,0-0.4,0.1-0.5,0.3
		C72.6,177.3,72.6,177.5,72.6,177.8z"/>
	<path class="st2" d="M84.5,180.1c-1.2,0-2.1-0.1-2.8-0.3c-0.7-0.2-1.2-0.6-1.5-1s-0.5-0.9-0.5-1.4c0-0.4,0-0.8,0.1-1.2
		c0.1-0.4,0.2-0.7,0.3-1l1.5,0.3c-0.1,0.2-0.1,0.5-0.2,0.7c-0.1,0.3-0.1,0.5-0.1,0.7c0,0.3,0.1,0.6,0.3,0.8s0.6,0.4,1.1,0.5
		c0.5,0.1,1.1,0.2,2,0.2v0l0,0c1.6,0,2.7-0.1,3.5-0.3s1.1-0.5,1.1-0.9c0-0.3,0-0.6-0.1-1c-0.1-0.4-0.2-0.8-0.4-1.2l1.6-0.5
		c0.1,0.3,0.2,0.6,0.3,0.9c0.1,0.3,0.2,0.6,0.2,1s0.1,0.6,0.1,0.9c0,0.5-0.1,0.9-0.3,1.3c-0.2,0.4-0.6,0.6-1.1,0.9
		c-0.5,0.2-1.2,0.4-2,0.5C86.9,180.1,85.8,180.1,84.5,180.1L84.5,180.1L84.5,180.1z M85.4,182.9c-0.2,0-0.4-0.1-0.6-0.2
		c-0.2-0.2-0.2-0.4-0.2-0.6c0-0.2,0.1-0.4,0.2-0.6s0.4-0.3,0.6-0.3c0.2,0,0.4,0.1,0.6,0.3s0.3,0.4,0.3,0.6c0,0.2-0.1,0.4-0.3,0.6
		C85.9,182.8,85.7,182.9,85.4,182.9z"/>
	<path class="st2" d="M95.5,179.9c-0.7,0-1.3-0.1-1.7-0.2c-0.4-0.2-0.7-0.4-0.9-0.7s-0.3-0.7-0.3-1.2l-0.3-6.7h1.7l0.3,5.9
		c0,0.4,0.1,0.6,0.1,0.8c0.1,0.2,0.2,0.3,0.4,0.4c0.2,0.1,0.4,0.1,0.8,0.1c0.3,0,0.5,0.1,0.6,0.2c0.1,0.2,0.2,0.3,0.2,0.6
		c0,0.2-0.1,0.5-0.3,0.6S95.8,179.9,95.5,179.9z"/>
	<path class="st2" d="M95.5,179.9l0.1-1.7c0.3,0,0.5,0,0.6-0.1s0.3-0.1,0.4-0.3c0.1-0.2,0.2-0.4,0.3-0.7c0.1-0.3,0.2-0.7,0.3-1.3
		l1.6,0.3c0,0.2-0.1,0.4-0.1,0.7c-0.1,0.3-0.1,0.5-0.1,0.7c0,0.2,0.1,0.4,0.2,0.5c0.1,0.1,0.4,0.2,0.8,0.2c0.2,0,0.4,0,0.5-0.1
		c0.1,0,0.3-0.1,0.4-0.3c0.1-0.2,0.2-0.4,0.3-0.7s0.2-0.8,0.2-1.3l1.6,0.3c0,0.3-0.1,0.6-0.1,0.9c0,0.3-0.1,0.5-0.1,0.7
		s0.1,0.3,0.2,0.4s0.4,0.2,0.9,0.2c0.7,0,1.1-0.3,1.1-0.9c0-0.3,0-0.6,0-0.9c0-0.3-0.1-0.8-0.1-1.3l1.5-0.1c0.1,0.7,0.1,1.2,0.2,1.7
		c0.1,0.4,0.2,0.8,0.3,1c0.1,0.2,0.3,0.4,0.5,0.5s0.5,0.1,0.8,0.1c0.3,0,0.5,0.1,0.7,0.2c0.1,0.2,0.2,0.3,0.2,0.6
		c0,0.2-0.1,0.5-0.2,0.6s-0.4,0.2-0.7,0.2c-0.3,0-0.5,0-0.8-0.1c-0.3-0.1-0.5-0.2-0.8-0.3c-0.2-0.2-0.4-0.4-0.6-0.8
		c-0.2,0.5-0.4,0.8-0.8,1s-0.8,0.2-1.3,0.2c-0.4,0-0.8-0.1-1.1-0.2s-0.5-0.4-0.7-0.7c-0.2,0.3-0.3,0.4-0.5,0.6s-0.4,0.2-0.7,0.2
		s-0.6,0.1-0.9,0.1c-0.2,0-0.4,0-0.6,0c-0.2,0-0.4-0.1-0.6-0.2c-0.2-0.1-0.3-0.3-0.5-0.6c-0.3,0.4-0.6,0.6-1,0.7
		C96.5,179.9,96,179.9,95.5,179.9z"/>
	<path class="st2" d="M107.8,179.9l0.1-1.7c0.3,0,0.5,0,0.7-0.1c0.2-0.1,0.4-0.2,0.5-0.3c0.1-0.2,0.3-0.4,0.4-0.8
		c0.1-0.3,0.2-0.8,0.3-1.3l1.6,0.3c0,0.2-0.1,0.4-0.1,0.7s-0.1,0.5-0.1,0.7c0,0.3,0.1,0.5,0.4,0.7c0.2,0.2,0.7,0.2,1.2,0.2
		c0.3,0,0.5,0.1,0.6,0.2s0.2,0.3,0.2,0.6c0,0.2-0.1,0.5-0.2,0.6s-0.4,0.2-0.7,0.2c-0.6,0-1-0.1-1.4-0.2c-0.4-0.1-0.7-0.4-0.9-0.8
		c-0.2,0.3-0.5,0.5-0.8,0.6c-0.3,0.1-0.6,0.2-0.9,0.3C108.4,179.9,108.1,179.9,107.8,179.9z M109.5,174.6c-0.2,0-0.4-0.1-0.6-0.2
		c-0.2-0.2-0.2-0.4-0.2-0.6c0-0.2,0.1-0.4,0.2-0.6c0.2-0.2,0.4-0.3,0.6-0.3c0.2,0,0.4,0.1,0.6,0.3c0.2,0.2,0.2,0.4,0.2,0.6
		c0,0.2-0.1,0.4-0.2,0.6C110,174.5,109.8,174.6,109.5,174.6z M111.6,174.6c-0.2,0-0.4-0.1-0.6-0.2s-0.2-0.4-0.2-0.6s0.1-0.4,0.2-0.6
		s0.4-0.3,0.6-0.3c0.2,0,0.4,0.1,0.6,0.3c0.2,0.2,0.2,0.4,0.2,0.6s-0.1,0.4-0.2,0.6C112,174.5,111.8,174.6,111.6,174.6z"/>
	<path class="st2" d="M112.7,179.9l0.1-1.7c0.9,0,1.7-0.1,2.5-0.3c0.8-0.2,1.5-0.5,2.2-0.9c-0.4-0.2-0.8-0.4-1.2-0.5
		s-0.9-0.2-1.5-0.2c-0.2,0-0.4,0-0.6,0c-0.2,0-0.4,0.1-0.6,0.1l-0.2-1.6c0.2-0.1,0.5-0.1,0.7-0.1c0.3,0,0.5,0,0.7,0
		c0.5,0,1,0.1,1.5,0.2c0.4,0.1,0.8,0.3,1.2,0.5c0.4,0.2,0.7,0.4,1,0.5c0.3,0.1,0.6,0.2,0.9,0.2h0.4l0.2,1.6c-0.4,0-0.7,0.1-1,0.2
		s-0.6,0.3-0.9,0.4s-0.6,0.4-0.9,0.5c-0.3,0.2-0.7,0.4-1.1,0.5c-0.4,0.2-0.9,0.3-1.4,0.4S113.4,179.9,112.7,179.9z"/>
	<path class="st2" d="M125,173.4c0-0.4,0-0.8-0.1-1.2c-0.1-0.4-0.1-0.7-0.2-1l1.7-0.2c0,0.2,0.1,0.4,0.1,0.6c0,0.3,0.1,0.5,0.1,0.8
		c0,0.3,0,0.6,0,0.8c0,1-0.2,1.8-0.6,2.5c0.5,0.5,0.8,0.9,0.9,1.3c0.2,0.4,0.2,0.7,0.2,1c0,0.3-0.1,0.6-0.2,0.9
		c-0.1,0.3-0.3,0.5-0.6,0.6c-0.3,0.2-0.7,0.2-1.2,0.2h-3.5v-1.6c1.1-0.8,1.8-1.5,2.4-2.2c-0.4-0.4-0.9-0.7-1.5-1.1
		c-0.6-0.4-1.2-0.8-1.8-1.2l0.9-1.3c0.7,0.4,1.3,0.8,1.8,1.2c0.5,0.4,1,0.7,1.4,1C124.9,174.3,125,173.9,125,173.4z M121.4,183.6
		l-0.2-0.8c0.3,0,0.5-0.1,0.6-0.1c-0.1-0.1-0.3-0.2-0.4-0.4c-0.1-0.2-0.2-0.4-0.2-0.6c0-0.3,0.1-0.5,0.2-0.7s0.3-0.3,0.5-0.4
		s0.4-0.1,0.6-0.1c0.2,0,0.4,0,0.6,0.1l-0.1,0.9c-0.1,0-0.2,0-0.2,0s-0.2,0-0.3,0c-0.1,0-0.2,0-0.3,0.1s-0.1,0.2-0.1,0.2
		c0,0.2,0.1,0.3,0.2,0.4c0.1,0.1,0.3,0.2,0.4,0.2c0.3-0.1,0.5-0.2,0.7-0.2l0.2,0.8c-0.3,0.1-0.7,0.2-1.1,0.4
		C122.3,183.4,121.8,183.5,121.4,183.6z M123.8,178.2h0.8c0.4,0,0.7,0,0.8-0.1c0.1-0.1,0.2-0.2,0.2-0.3c0-0.2-0.2-0.4-0.5-0.7
		C124.7,177.5,124.3,177.9,123.8,178.2z"/>
	<path class="st2" d="M135.5,184.6c-0.8,0-1.6-0.1-2.2-0.4c-0.7-0.3-1.2-0.7-1.6-1.2c-0.4-0.5-0.6-1.2-0.6-2c0-0.9,0.2-1.6,0.6-2.3
		s1-1.2,1.7-1.7c0.7-0.4,1.5-0.8,2.4-1c-0.4-0.1-0.8-0.2-1.2-0.3c-0.5-0.1-1-0.2-1.5-0.2c-0.3,0-0.6,0-0.8,0.1
		c-0.3,0-0.5,0.1-0.7,0.1l-0.3-1.6c0.2-0.1,0.5-0.1,0.7-0.2c0.3,0,0.6-0.1,0.8-0.1c0.5,0,1,0.1,1.5,0.2c0.4,0.1,0.9,0.2,1.2,0.4
		s0.8,0.3,1.1,0.4c0.4,0.1,0.7,0.2,1.1,0.2h0.5l0.2,1.8c-0.4,0-0.8,0.1-1.3,0.2s-1,0.3-1.5,0.5s-1,0.5-1.4,0.8
		c-0.4,0.3-0.8,0.7-1.1,1.1c-0.3,0.4-0.4,0.9-0.4,1.4s0.1,0.9,0.4,1.2c0.3,0.3,0.6,0.5,1,0.7s0.9,0.2,1.4,0.2c0.9,0,1.8-0.2,2.7-0.6
		l0.5,1.5c-0.6,0.3-1.2,0.5-1.7,0.6S135.9,184.6,135.5,184.6z M135.7,181.3c-0.2,0-0.5-0.1-0.6-0.3c-0.2-0.2-0.3-0.4-0.3-0.6
		s0.1-0.5,0.3-0.6c0.2-0.2,0.4-0.3,0.6-0.3c0.2,0,0.4,0.1,0.6,0.3c0.2,0.2,0.3,0.4,0.3,0.6s-0.1,0.5-0.3,0.6
		C136.2,181.2,136,181.3,135.7,181.3z"/>
	<path class="st2" d="M139.9,182.6l-0.3-1.7c0.8-0.1,1.4-0.2,1.9-0.4s0.9-0.4,1.1-0.8c-0.1,0-0.2,0.1-0.4,0.1c-0.1,0-0.3,0-0.4,0
		c-0.4,0-0.7-0.1-1-0.2c-0.3-0.1-0.6-0.3-0.7-0.6c-0.2-0.3-0.3-0.6-0.3-1c0-0.4,0.1-0.8,0.2-1.1s0.3-0.7,0.5-1
		c0.2-0.3,0.5-0.5,0.8-0.7c0.3-0.2,0.6-0.3,1-0.3c0.4,0,0.7,0.1,1,0.3c0.3,0.2,0.6,0.5,0.8,0.8c0.2,0.3,0.4,0.7,0.5,1
		c0.1,0.4,0.2,0.7,0.2,1.1c0,0.9-0.2,1.7-0.6,2.3c-0.4,0.6-0.9,1.1-1.6,1.5S140.8,182.6,139.9,182.6z M141.4,177.8
		c0,0.3,0.3,0.5,0.8,0.5c0.3,0,0.5,0,0.8-0.1c0-0.2-0.1-0.4-0.1-0.6c-0.1-0.2-0.1-0.4-0.3-0.5s-0.3-0.2-0.4-0.2
		c-0.2,0-0.4,0.1-0.5,0.3C141.5,177.3,141.4,177.5,141.4,177.8z"/>
	<path class="st2" d="M145.3,182.6l-0.6-1.5c0.6-0.2,1.1-0.4,1.5-0.7c0.4-0.3,0.8-0.6,1-0.9s0.4-0.7,0.4-1.2c0-0.3-0.1-0.7-0.2-1.1
		c-0.2-0.4-0.3-0.8-0.6-1.2l1.6-0.8c0.1,0.2,0.3,0.5,0.4,0.8s0.2,0.5,0.3,0.8c0.1,0.2,0.1,0.4,0.1,0.5c0.1,0.4,0.3,0.6,0.5,0.8
		s0.5,0.2,1,0.2c0.3,0,0.5,0.1,0.6,0.2c0.1,0.2,0.2,0.3,0.2,0.6c0,0.2-0.1,0.5-0.3,0.6s-0.4,0.2-0.7,0.2c-0.6,0-1.1-0.2-1.4-0.5
		c-0.1,0.5-0.4,1-0.8,1.4c-0.4,0.4-0.8,0.8-1.4,1.1C146.5,182.2,145.9,182.5,145.3,182.6z"/>
	<path class="st2" d="M150.5,179.9l0.1-1.7c0.9,0,1.7-0.1,2.5-0.3c0.8-0.2,1.5-0.5,2.2-0.9c-0.4-0.2-0.8-0.4-1.2-0.5
		c-0.4-0.1-0.9-0.2-1.5-0.2c-0.2,0-0.4,0-0.6,0c-0.2,0-0.4,0.1-0.6,0.1l-0.2-1.6c0.2-0.1,0.5-0.1,0.7-0.1c0.3,0,0.5,0,0.7,0
		c0.5,0,1,0.1,1.5,0.2c0.4,0.1,0.8,0.3,1.2,0.5c0.4,0.2,0.7,0.4,1,0.5c0.3,0.1,0.6,0.2,0.9,0.2h0.4l0.2,1.6c-0.4,0-0.7,0.1-1,0.2
		s-0.6,0.3-0.9,0.4s-0.6,0.4-0.9,0.5c-0.3,0.2-0.7,0.4-1.1,0.5c-0.4,0.2-0.9,0.3-1.4,0.4S151.3,179.9,150.5,179.9z M152.6,173.5
		c-0.2,0-0.5-0.1-0.6-0.3s-0.3-0.4-0.3-0.6c0-0.2,0.1-0.5,0.3-0.6s0.4-0.3,0.6-0.3c0.2,0,0.4,0.1,0.6,0.3s0.3,0.4,0.3,0.6
		c0,0.2-0.1,0.5-0.3,0.6S152.9,173.5,152.6,173.5z"/>
	<path class="st2" d="M161.5,179.5c0-0.3,0-0.6,0.1-1c0.1-0.4,0.2-0.9,0.5-1.5l1.5,0.5c-0.1,0.4-0.2,0.7-0.3,1
		c-0.1,0.3-0.1,0.5-0.1,0.8c0,0.5,0.2,0.9,0.7,1.3c0.5,0.3,1.1,0.5,2,0.5c0.9,0,1.6-0.1,2.1-0.2c0.5-0.2,0.8-0.4,0.8-0.7
		c0-0.1-0.1-0.3-0.3-0.4c-0.2-0.1-0.6-0.3-1.1-0.5l0.4-1.7c0.7,0.3,1.3,0.5,1.9,0.6c0.6,0.1,1.1,0.2,1.5,0.2c0.3,0,0.5,0.1,0.6,0.2
		s0.2,0.3,0.2,0.6c0,0.2-0.1,0.5-0.3,0.6s-0.4,0.2-0.7,0.2h-0.6c0,0.1,0,0.1,0,0.2c0,0.1,0,0.1,0,0.2c0,0.3-0.1,0.5-0.3,0.8
		c-0.2,0.3-0.5,0.5-0.8,0.8s-0.9,0.4-1.4,0.6c-0.6,0.1-1.3,0.2-2.1,0.2c-1.3,0-2.3-0.3-3.1-0.8C161.9,181.4,161.5,180.6,161.5,179.5
		z M170.8,179.9l0.1-1.7c0.4,0,0.6,0,0.8-0.1c0.2-0.1,0.3-0.2,0.3-0.4c0-0.2,0-0.5,0-0.9l-0.2-5.7h1.7l0.2,5.7
		c0,0.4,0.1,0.7,0.1,0.9c0.1,0.2,0.2,0.4,0.4,0.4c0.2,0.1,0.4,0.1,0.8,0.1c0.3,0,0.5,0.1,0.6,0.2s0.2,0.3,0.2,0.6
		c0,0.2-0.1,0.5-0.3,0.6s-0.4,0.2-0.7,0.2c-0.4,0-0.8-0.1-1.1-0.2c-0.3-0.1-0.6-0.3-0.8-0.7c-0.2,0.3-0.5,0.6-0.9,0.7
		C171.8,179.9,171.4,179.9,170.8,179.9z"/>
	<path class="st2" d="M174.9,179.9l0.1-1.7c0.4,0,0.7,0,0.9,0c0.2,0,0.4,0,0.5,0c0.1,0,0.2,0,0.3,0c-0.1-0.1-0.2-0.2-0.3-0.3
		c-0.1-0.2-0.2-0.3-0.3-0.6c-0.1-0.2-0.1-0.5-0.1-0.9c0-0.5,0.1-0.9,0.4-1.3s0.6-0.7,1-0.9c0.4-0.2,0.9-0.3,1.5-0.3
		c0.5,0,0.9,0.1,1.4,0.2l-0.3,1.6c-0.2,0-0.3-0.1-0.5-0.1c-0.2,0-0.3,0-0.5,0c-0.4,0-0.7,0.1-1,0.3c-0.2,0.2-0.4,0.4-0.4,0.7
		c0,0.2,0.1,0.4,0.2,0.6s0.3,0.3,0.5,0.4c0.2,0.1,0.3,0.2,0.4,0.2c0.3-0.1,0.5-0.1,0.7-0.2c0.2-0.1,0.4-0.1,0.6-0.2
		c0.2-0.1,0.5-0.2,0.8-0.3l0.5,1.6c-0.7,0.3-1.3,0.6-2,0.8c-0.6,0.2-1.3,0.3-2,0.4C176.5,179.9,175.8,179.9,174.9,179.9z"/>
	<path class="st2" d="M189.4,180c-0.8,0-1.6,0-2.4-0.1c-0.8,0-1.4-0.1-2-0.2l0.2-1.7c0.3,0,0.6,0.1,0.8,0.1c0.3,0,0.5,0,0.8,0
		c0.2-0.2,0.3-0.4,0.5-0.7l-0.2-6.5h1.7l0.2,4.8c0.5-0.4,0.9-0.7,1.4-0.9s1-0.3,1.5-0.3c0.5,0,1,0.1,1.3,0.3s0.7,0.5,0.9,0.9
		s0.3,0.8,0.3,1.3c0,0.6-0.2,1.1-0.5,1.5c-0.3,0.4-0.9,0.8-1.6,1C191.6,179.9,190.6,180,189.4,180z M191.7,176.3
		c-0.4,0-0.7,0.1-1.1,0.3c-0.4,0.2-0.7,0.5-1,0.8c-0.3,0.3-0.6,0.6-0.9,1c0.2,0,0.3,0,0.5,0c0.9,0,1.6,0,2.1-0.2
		c0.5-0.1,0.9-0.2,1.1-0.4c0.2-0.2,0.3-0.4,0.3-0.6c0-0.2-0.1-0.4-0.3-0.6S192.1,176.3,191.7,176.3z M195.1,179.9
		c-0.6,0-1.2-0.1-1.7-0.2c-0.5-0.2-0.9-0.4-1.2-0.6l1.1-1.2c0.3,0.1,0.6,0.2,0.9,0.3c0.3,0.1,0.7,0.1,1.1,0.1c0.3,0,0.5,0.1,0.6,0.2
		c0.1,0.2,0.2,0.3,0.2,0.6c0,0.2-0.1,0.5-0.3,0.6S195.4,179.9,195.1,179.9z"/>
	<path class="st2" d="M195,179.9l0.1-1.7c0.4,0,0.7,0,1.1-0.1s0.6-0.1,0.9-0.2c-0.2-0.2-0.3-0.4-0.5-0.6c-0.2-0.2-0.3-0.3-0.5-0.4
		c0,0-0.1-0.1-0.1-0.3c-0.1-0.1-0.1-0.3-0.1-0.4s-0.1-0.3-0.1-0.3c0-0.2,0.1-0.4,0.3-0.6s0.4-0.4,0.7-0.6c0.3-0.2,0.6-0.3,1-0.4
		c0.4-0.1,0.7-0.2,1.1-0.2c0.7,0,1.3,0.2,1.7,0.5c0.4,0.3,0.6,0.7,0.6,1.3c0,0.4-0.1,0.7-0.2,1.1c-0.1,0.4-0.4,0.7-0.7,1
		c0.2,0.1,0.5,0.1,0.8,0.1c0.3,0,0.6,0,0.9,0s0.5,0.1,0.6,0.2c0.1,0.2,0.2,0.3,0.2,0.6c0,0.2-0.1,0.5-0.3,0.6s-0.4,0.2-0.7,0.2
		c-0.7,0-1.3-0.1-1.8-0.2c-0.5-0.1-1-0.3-1.4-0.5c-0.5,0.2-1,0.4-1.6,0.5C196.4,179.9,195.7,179.9,195,179.9z M197.3,176
		c0.2,0.2,0.4,0.4,0.7,0.6c0.3,0.2,0.5,0.5,0.7,0.8c0.4-0.3,0.7-0.7,0.7-1.1c0-0.2-0.1-0.3-0.2-0.4s-0.3-0.2-0.6-0.2
		c-0.2,0-0.4,0-0.6,0.1C197.7,175.8,197.5,175.9,197.3,176z M198.7,173.1c-0.2,0-0.5-0.1-0.6-0.3c-0.2-0.2-0.3-0.4-0.3-0.6
		s0.1-0.5,0.3-0.6c0.2-0.2,0.4-0.3,0.6-0.3c0.2,0,0.4,0.1,0.6,0.3c0.2,0.2,0.3,0.4,0.3,0.6s-0.1,0.5-0.3,0.6
		C199.1,173,198.9,173.1,198.7,173.1z"/>
	<path class="st2" d="M207.9,180.1c-0.9,0-1.6,0-2.1-0.1s-0.9-0.2-1.2-0.4c-0.3-0.2-0.5-0.4-0.7-0.6c-0.3,0.4-0.6,0.7-1,0.8
		c-0.4,0.1-0.8,0.2-1.2,0.2l0.1-1.7c0.3,0,0.6-0.1,0.7-0.2c0.2-0.1,0.3-0.4,0.4-0.7c0.1-0.3,0.2-0.8,0.4-1.4l1.5,0.4
		c-0.2,0.6-0.3,1.1-0.3,1.3c0,0.2,0,0.3,0.1,0.5c0.1,0.1,0.3,0.2,0.6,0.3c0.3-0.5,0.7-0.9,1-1.4c0.4-0.4,0.8-0.8,1.2-1.2
		s0.9-0.6,1.3-0.8c0.5-0.2,0.9-0.3,1.4-0.3c0.8,0,1.4,0.2,1.9,0.7s0.7,1,0.7,1.8c0,0.6-0.2,1.1-0.5,1.5s-0.9,0.8-1.6,1.1
		C210.1,179.9,209.1,180.1,207.9,180.1z M210.2,176.3c-0.4,0-0.7,0.1-1.1,0.3c-0.4,0.2-0.7,0.5-1,0.8c-0.3,0.3-0.6,0.7-0.9,1
		c0.1,0,0.2,0,0.4,0c0.9,0,1.6,0,2.2-0.1s0.9-0.2,1.1-0.4c0.2-0.2,0.3-0.4,0.3-0.7c0-0.2-0.1-0.4-0.2-0.6S210.6,176.3,210.2,176.3z
		 M210,173.5c-0.2,0-0.5-0.1-0.6-0.3s-0.3-0.4-0.3-0.6s0.1-0.5,0.3-0.6s0.4-0.3,0.6-0.3c0.2,0,0.4,0.1,0.6,0.3
		c0.2,0.2,0.3,0.4,0.3,0.6s-0.1,0.5-0.3,0.6C210.5,173.4,210.3,173.5,210,173.5z M213.7,179.9c-0.6,0-1.2-0.1-1.7-0.2
		c-0.5-0.2-0.9-0.4-1.2-0.6l1.1-1.2c0.3,0.1,0.6,0.2,0.9,0.3c0.3,0.1,0.7,0.1,1.1,0.1c0.3,0,0.5,0.1,0.6,0.2s0.2,0.3,0.2,0.6
		c0,0.2-0.1,0.5-0.3,0.6S214.1,179.9,213.7,179.9z"/>
	<path class="st2" d="M213.8,179.9l0.1-1.7c0.4,0,0.6,0,0.8-0.1c0.2-0.1,0.3-0.2,0.3-0.4c0-0.2,0-0.5,0-0.9l-0.2-5.7h1.7l0.2,5.8
		c0,0.5,0,0.9-0.1,1.3s-0.2,0.7-0.4,1c-0.2,0.3-0.5,0.5-0.9,0.6C215,179.8,214.4,179.9,213.8,179.9z"/>
	<path class="st2" d="M218.3,179.9l-0.3-8.8h1.7l0.3,8.8H218.3z"/>
</g>
</svg>
