<?xml version="1.0" encoding="utf-8"?>
<!-- Generator: Adobe Illustrator 23.0.0, SVG Export Plug-In . SVG Version: 6.00 Build 0)  -->
<svg version="1.1" id="Layer_1" xmlns="http://www.w3.org/2000/svg" xmlns:xlink="http://www.w3.org/1999/xlink" x="0px" y="0px"
	 viewBox="0 0 230.4 208.2" style="enable-background:new 0 0 230.4 208.2;" xml:space="preserve">
<style type="text/css">
	.st0{fill:#1D4ED8;}
	.st1{fill:#FEC63D;}
	.st2{fill:#FAFCFF;}
</style>
<rect x="2.7" y="148.8" class="st0" width="225.3" height="45.9"/>
<circle class="st1" cx="29" cy="194.7" r="8.7"/>
<g>
	<path class="st0" d="M32,198.6h-6v-1.3l2.1-2.2c0.4-0.4,0.8-0.8,1-1.1c0.3-0.3,0.5-0.6,0.6-0.8c0.1-0.2,0.2-0.5,0.2-0.8
		c0-0.3-0.1-0.6-0.3-0.8s-0.4-0.3-0.8-0.3c-0.3,0-0.6,0.1-1,0.2c-0.3,0.2-0.6,0.4-1,0.6l-1-1.2c0.2-0.2,0.5-0.4,0.8-0.6
		c0.3-0.2,0.6-0.3,1-0.5c0.4-0.1,0.8-0.2,1.3-0.2c0.6,0,1,0.1,1.4,0.3s0.7,0.5,0.9,0.8s0.3,0.7,0.3,1.2c0,0.5-0.1,0.9-0.3,1.3
		c-0.2,0.4-0.5,0.8-0.8,1.2c-0.4,0.4-0.8,0.8-1.3,1.3l-1.1,1v0.1H32V198.6z"/>
</g>
<g>
	<path class="st2" d="M31.1,170.2c-0.8,0-1.6-0.1-2.2-0.4c-0.7-0.3-1.2-0.7-1.6-1.2c-0.4-0.5-0.6-1.2-0.6-2c0-0.9,0.2-1.6,0.6-2.3
		c0.4-0.7,1-1.2,1.7-1.6c0.7-0.4,1.5-0.8,2.4-1c-0.4-0.1-0.8-0.2-1.2-0.3c-0.5-0.1-1-0.2-1.5-0.2c-0.3,0-0.6,0-0.8,0.1
		c-0.3,0-0.5,0.1-0.7,0.1l-0.3-1.6c0.2-0.1,0.5-0.1,0.7-0.2c0.3,0,0.6-0.1,0.8-0.1c0.5,0,1,0.1,1.5,0.2s0.9,0.2,1.2,0.4
		c0.4,0.1,0.8,0.3,1.1,0.4c0.4,0.1,0.7,0.2,1.1,0.2h0.5l0.2,1.8c-0.3,0-0.5,0-0.9,0.1c0.1,0.4,0.2,0.7,0.5,0.9s0.5,0.3,0.8,0.4
		c0.3,0.1,0.7,0.1,1.1,0.1c0.3,0,0.5,0.1,0.6,0.2c0.1,0.2,0.2,0.4,0.2,0.6c0,0.2-0.1,0.5-0.2,0.6s-0.4,0.2-0.7,0.2
		c-0.4,0-0.9,0-1.2-0.1c-0.4-0.1-0.7-0.2-1-0.4c-0.3-0.2-0.5-0.5-0.7-0.8c-0.2-0.4-0.3-0.8-0.4-1.4c-0.4,0.1-0.9,0.3-1.3,0.6
		c-0.4,0.2-0.8,0.5-1.2,0.8s-0.6,0.6-0.8,1s-0.3,0.8-0.3,1.2c0,0.5,0.1,0.9,0.4,1.2c0.3,0.3,0.6,0.5,1,0.7c0.4,0.1,0.9,0.2,1.4,0.2
		c0.9,0,1.8-0.2,2.7-0.6l0.5,1.5c-0.6,0.3-1.2,0.5-1.7,0.6C32.1,170.1,31.5,170.2,31.1,170.2z"/>
	<path class="st2" d="M35.4,165.5l0.1-1.7c0.3,0,0.5,0,0.6-0.1s0.3-0.1,0.4-0.3s0.2-0.4,0.3-0.7c0.1-0.3,0.2-0.7,0.3-1.3l1.6,0.3
		c0,0.2-0.1,0.4-0.1,0.7c-0.1,0.3-0.1,0.5-0.1,0.7c0,0.2,0.1,0.4,0.2,0.5s0.4,0.2,0.8,0.2c0.2,0,0.4,0,0.5-0.1
		c0.1,0,0.3-0.1,0.4-0.3s0.2-0.4,0.3-0.7s0.2-0.8,0.2-1.4l1.6,0.3c0,0.3-0.1,0.6-0.1,0.9c0,0.3-0.1,0.5-0.1,0.7
		c0,0.2,0.1,0.3,0.2,0.4c0.1,0.1,0.4,0.2,0.9,0.2c0.7,0,1.1-0.3,1.1-0.9c0-0.3,0-0.6,0-0.9c0-0.3-0.1-0.8-0.1-1.3l1.5-0.1
		c0.1,0.7,0.1,1.2,0.2,1.7c0.1,0.4,0.2,0.8,0.3,1c0.1,0.2,0.3,0.4,0.5,0.5s0.5,0.1,0.8,0.1c0.3,0,0.5,0.1,0.7,0.2
		c0.1,0.2,0.2,0.4,0.2,0.6c0,0.2-0.1,0.5-0.2,0.6s-0.4,0.2-0.7,0.2c-0.3,0-0.5,0-0.8-0.1c-0.3-0.1-0.5-0.2-0.8-0.3
		c-0.2-0.2-0.4-0.4-0.6-0.8c-0.2,0.5-0.4,0.8-0.8,1s-0.8,0.2-1.3,0.2c-0.4,0-0.8-0.1-1.1-0.2c-0.3-0.1-0.5-0.4-0.7-0.7
		c-0.2,0.3-0.3,0.4-0.5,0.6s-0.4,0.2-0.7,0.2s-0.6,0.1-0.9,0.1c-0.2,0-0.4,0-0.6,0s-0.4-0.1-0.6-0.2s-0.3-0.3-0.5-0.6
		c-0.3,0.4-0.6,0.6-1,0.7C36.3,165.5,35.9,165.5,35.4,165.5z"/>
	<path class="st2" d="M47.6,165.5l0.1-1.7c0.2,0,0.3,0,0.5-0.1c0.1-0.1,0.3-0.2,0.4-0.5c0.1-0.2,0.3-0.5,0.5-0.9
		c0.4-0.7,0.7-1.2,1.1-1.5c0.4-0.3,0.8-0.4,1.2-0.4c0.5,0,0.9,0.1,1.3,0.4s0.7,0.6,0.9,1s0.3,0.9,0.3,1.3c0,0.4-0.1,0.8-0.3,1.1
		c-0.2,0.3-0.4,0.6-0.7,0.8c-0.3,0.2-0.7,0.3-1.1,0.3c-0.3,0-0.7,0-1-0.1c-0.4-0.1-0.8-0.3-1.2-0.6c-0.2,0.3-0.5,0.5-0.8,0.6
		C48.5,165.5,48.1,165.5,47.6,165.5z M51.5,162.1c-0.2,0-0.4,0.1-0.6,0.3c-0.1,0.2-0.3,0.5-0.5,0.9c0.2,0.1,0.5,0.2,0.7,0.3
		c0.2,0.1,0.4,0.1,0.5,0.1c0.2,0,0.4,0,0.5-0.1c0.1-0.1,0.2-0.2,0.2-0.4c0-0.2,0-0.3-0.1-0.5c-0.1-0.2-0.2-0.3-0.3-0.5
		C51.8,162.2,51.6,162.1,51.5,162.1z"/>
	<path class="st2" d="M61.9,168.7c-0.7,0-1.4-0.1-2-0.3c-0.6-0.2-1.1-0.5-1.4-1s-0.5-1-0.5-1.8c0-0.3,0-0.6,0.1-1
		c0.1-0.4,0.3-0.9,0.6-1.6l1.5,0.6c-0.2,0.4-0.3,0.8-0.4,1s-0.1,0.5-0.1,0.7c0,0.5,0.2,0.9,0.7,1.2c0.4,0.3,1,0.4,1.8,0.4
		c0.6,0,1.1-0.1,1.5-0.2c0.4-0.1,0.8-0.3,1.1-0.6c0.3-0.2,0.5-0.5,0.6-0.7l0,0h-0.3c-0.9,0-1.6-0.2-2-0.5c-0.4-0.3-0.7-0.8-0.7-1.4
		c0-0.4,0.1-0.7,0.2-1c0.1-0.3,0.3-0.6,0.5-0.9c0.2-0.3,0.5-0.5,0.8-0.6c0.3-0.2,0.6-0.2,0.9-0.2c0.7,0,1.3,0.3,1.7,0.8
		s0.7,1.3,0.7,2.2h0.9c0.3,0,0.5,0.1,0.6,0.2s0.2,0.4,0.2,0.6c0,0.3-0.1,0.5-0.3,0.6c-0.2,0.2-0.4,0.2-0.7,0.2H67
		c-0.1,0.4-0.2,0.7-0.4,1c-0.4,0.7-1,1.3-1.8,1.7C64,168.5,63.1,168.7,61.9,168.7z M63.8,159.7c-0.2,0-0.4-0.1-0.6-0.2
		s-0.2-0.4-0.2-0.6c0-0.2,0.1-0.4,0.2-0.6s0.4-0.3,0.6-0.3c0.2,0,0.4,0.1,0.6,0.3s0.2,0.4,0.2,0.6c0,0.2-0.1,0.4-0.2,0.6
		S64,159.7,63.8,159.7z M64,163.3c0,0.1,0,0.2,0.1,0.3s0.2,0.2,0.4,0.2c0.2,0,0.6,0.1,1,0c0-0.5-0.1-0.8-0.2-1.1s-0.3-0.4-0.6-0.4
		c-0.2,0-0.3,0-0.4,0.1c-0.1,0.1-0.2,0.2-0.3,0.3S64,163.2,64,163.3z M65.8,159.7c-0.2,0-0.4-0.1-0.6-0.2c-0.2-0.2-0.2-0.4-0.2-0.6
		c0-0.2,0.1-0.4,0.2-0.6c0.2-0.2,0.4-0.3,0.6-0.3c0.2,0,0.4,0.1,0.6,0.3s0.2,0.4,0.2,0.6c0,0.2-0.1,0.4-0.2,0.6
		C66.3,159.6,66.1,159.7,65.8,159.7z"/>
	<path class="st2" d="M68,165.5l0.1-1.7c0.5,0,0.8,0,1.1-0.1c0.3,0,0.4-0.1,0.5-0.3c0.1-0.1,0.2-0.3,0.2-0.6c0-0.2,0-0.5-0.1-0.8
		c-0.1-0.3-0.1-0.6-0.2-1s-0.2-0.6-0.3-0.9l1.7-0.5c0.1,0.3,0.2,0.6,0.3,0.9c0.1,0.4,0.2,0.7,0.2,1.1c0.1,0.4,0.1,0.7,0.1,1.1
		c0,0.5-0.1,1-0.3,1.3c-0.2,0.3-0.4,0.6-0.7,0.8c-0.3,0.2-0.7,0.3-1.1,0.4C69,165.5,68.5,165.5,68,165.5z M68.9,168.3
		c-0.2,0-0.4-0.1-0.6-0.2s-0.2-0.4-0.2-0.6s0.1-0.4,0.2-0.6s0.4-0.3,0.6-0.3c0.2,0,0.4,0.1,0.6,0.3s0.2,0.4,0.2,0.6
		s-0.1,0.4-0.2,0.6S69.1,168.3,68.9,168.3z M71,168.3c-0.2,0-0.4-0.1-0.6-0.2c-0.2-0.2-0.2-0.4-0.2-0.6s0.1-0.4,0.2-0.6
		c0.2-0.2,0.4-0.3,0.6-0.3c0.2,0,0.4,0.1,0.6,0.3c0.2,0.2,0.2,0.4,0.2,0.6s-0.1,0.4-0.2,0.6C71.4,168.2,71.2,168.3,71,168.3z"/>
	<path class="st2" d="M72.5,168.2l-0.6-1.5c0.6-0.2,1.1-0.4,1.5-0.7c0.4-0.3,0.8-0.6,1-0.9c0.3-0.3,0.4-0.7,0.4-1.2
		c0-0.3-0.1-0.7-0.2-1.1s-0.3-0.8-0.6-1.2l1.6-0.8c0.1,0.2,0.3,0.5,0.4,0.8c0.1,0.3,0.2,0.5,0.3,0.8c0.1,0.2,0.1,0.4,0.1,0.5
		c0.1,0.4,0.3,0.6,0.5,0.8c0.2,0.1,0.5,0.2,1,0.2c0.3,0,0.5,0.1,0.6,0.2c0.1,0.2,0.2,0.4,0.2,0.6c0,0.2-0.1,0.5-0.3,0.6
		s-0.4,0.2-0.7,0.2c-0.6,0-1.1-0.2-1.4-0.5c-0.1,0.5-0.4,1-0.8,1.4c-0.4,0.4-0.8,0.8-1.4,1.1C73.6,167.8,73.1,168.1,72.5,168.2z"/>
	<path class="st2" d="M77.7,165.5l0.1-1.7h0.6c0.2-0.2,0.3-0.5,0.5-0.7l-0.2-6.4h1.7l0.2,4.7c0.5-0.4,0.9-0.7,1.4-0.9
		c0.5-0.2,1-0.3,1.5-0.3c0.5,0,1,0.1,1.4,0.3c0.4,0.2,0.7,0.5,0.9,0.9c0.2,0.4,0.3,0.8,0.3,1.3c0,0.5-0.1,1-0.4,1.4s-0.8,0.8-1.5,1
		c-0.3,0.1-0.6,0.2-1,0.3c-0.3,0.1-0.7,0.1-1.2,0.2c-0.5,0-1,0.1-1.7,0.1H77.7z M83.4,161.8c-0.4,0-0.7,0.1-1.1,0.3s-0.7,0.5-1,0.8
		c-0.3,0.3-0.6,0.7-0.9,1h0.1c1,0,1.8,0,2.4-0.2c0.6-0.1,1-0.2,1.2-0.4c0.2-0.2,0.3-0.4,0.3-0.6c0-0.2-0.1-0.4-0.2-0.6
		C84,161.8,83.7,161.8,83.4,161.8z"/>
	<path class="st2" d="M90,165.1c0-0.3,0-0.6,0.1-1c0.1-0.4,0.2-0.9,0.5-1.5l1.5,0.5c-0.1,0.4-0.2,0.7-0.3,1
		c-0.1,0.3-0.1,0.5-0.1,0.8c0,0.5,0.2,1,0.6,1.3s0.9,0.5,1.6,0.5c0.6,0,1.1-0.1,1.5-0.3c0.4-0.2,0.6-0.4,0.8-0.7
		c0.1-0.3,0.2-0.7,0.2-1c0-0.3-0.1-0.7-0.2-1.2c-0.1-0.5-0.3-1-0.4-1.5l1.7-0.4c0.1,0.5,0.2,0.8,0.3,1.1s0.1,0.4,0.2,0.6
		c0.1,0.4,0.3,0.6,0.6,0.7c0.3,0.1,0.6,0.2,1.1,0.2c0.3,0,0.5,0.1,0.6,0.2c0.1,0.2,0.2,0.4,0.2,0.6c0,0.2-0.1,0.5-0.3,0.6
		s-0.4,0.2-0.7,0.2c-0.3,0-0.5,0-0.8-0.1c-0.3-0.1-0.5-0.2-0.7-0.3c-0.1,1-0.5,1.8-1.2,2.3c-0.7,0.6-1.7,0.8-2.9,0.8
		c-0.7,0-1.4-0.1-1.9-0.3c-0.6-0.2-1-0.5-1.4-1S90,165.9,90,165.1z M93.9,160.6c-0.2,0-0.5-0.1-0.6-0.3c-0.2-0.2-0.3-0.4-0.3-0.6
		s0.1-0.5,0.3-0.6c0.2-0.2,0.4-0.3,0.6-0.3c0.2,0,0.4,0.1,0.6,0.3c0.2,0.2,0.3,0.4,0.3,0.6s-0.1,0.5-0.3,0.6
		C94.3,160.5,94.1,160.6,93.9,160.6z"/>
	<path class="st2" d="M99.3,165.5l0.1-1.7c0.4,0,0.7,0,0.9,0c0.2,0,0.4,0,0.5,0c0.1,0,0.2,0,0.3,0c-0.1-0.1-0.2-0.2-0.3-0.3
		s-0.2-0.3-0.3-0.6c-0.1-0.2-0.1-0.5-0.1-0.9c0-0.5,0.1-0.9,0.4-1.3s0.6-0.7,1-0.9c0.4-0.2,0.9-0.3,1.5-0.3c0.5,0,0.9,0.1,1.4,0.2
		l-0.3,1.6c-0.2,0-0.3-0.1-0.5-0.1c-0.2,0-0.3,0-0.5,0c-0.4,0-0.7,0.1-1,0.3c-0.2,0.2-0.4,0.4-0.4,0.7c0,0.2,0.1,0.4,0.2,0.6
		c0.1,0.2,0.3,0.3,0.5,0.4c0.2,0.1,0.3,0.2,0.4,0.2c0.3-0.1,0.5-0.1,0.7-0.2c0.2-0.1,0.4-0.1,0.6-0.2c0.2-0.1,0.5-0.2,0.8-0.3
		l0.5,1.6c-0.7,0.3-1.3,0.6-2,0.8c-0.6,0.2-1.3,0.3-2,0.4C100.9,165.5,100.2,165.5,99.3,165.5z"/>
	<path class="st2" d="M114.2,165.7c-1.2,0-2.1-0.1-2.8-0.3c-0.7-0.2-1.2-0.6-1.5-1c-0.3-0.4-0.5-0.9-0.5-1.4c0-0.4,0-0.8,0.1-1.2
		c0.1-0.4,0.2-0.7,0.3-1l1.5,0.3c-0.1,0.2-0.1,0.5-0.2,0.7c-0.1,0.3-0.1,0.5-0.1,0.7c0,0.3,0.1,0.6,0.3,0.8c0.2,0.2,0.6,0.4,1,0.5
		s1.1,0.2,2,0.2v0l0,0c0.6,0,1.1,0,1.7-0.1c0.5-0.1,1-0.2,1.5-0.3s0.9-0.4,1.4-0.7s0.8-0.8,1.2-1.3l1.3,0.6c0,0.2-0.1,0.3-0.1,0.4
		c0,0.1,0,0.3,0,0.3c0,0.3,0.1,0.5,0.3,0.7c0.2,0.2,0.6,0.2,1.2,0.2c0.3,0,0.5,0.1,0.6,0.2c0.1,0.2,0.2,0.4,0.2,0.6
		c0,0.2-0.1,0.5-0.2,0.6s-0.4,0.2-0.7,0.2c-0.7,0-1.3-0.1-1.8-0.4s-0.8-0.6-0.9-1c-0.6,0.5-1.4,0.9-2.5,1.2
		C116.6,165.6,115.5,165.7,114.2,165.7L114.2,165.7L114.2,165.7z M115.1,168.5c-0.2,0-0.4-0.1-0.6-0.2s-0.2-0.4-0.2-0.6
		c0-0.2,0.1-0.4,0.2-0.6s0.4-0.3,0.6-0.3c0.2,0,0.4,0.1,0.6,0.3s0.3,0.4,0.3,0.6c0,0.2-0.1,0.4-0.3,0.6S115.3,168.5,115.1,168.5z"/>
	<path class="st2" d="M122.8,165.5l0.1-1.7c0.4,0,0.6,0,0.8-0.1c0.2-0.1,0.3-0.2,0.3-0.4c0-0.2,0-0.5,0-0.9l-0.2-5.7h1.7l0.2,5.8
		c0,0.5,0,0.9-0.1,1.3s-0.2,0.7-0.4,1c-0.2,0.3-0.5,0.5-0.9,0.6C124,165.4,123.5,165.5,122.8,165.5z"/>
	<path class="st2" d="M130.2,165.5c-0.7,0-1.3-0.1-1.7-0.2c-0.4-0.2-0.7-0.4-0.9-0.7c-0.2-0.3-0.3-0.7-0.3-1.2l-0.3-6.7h1.7l0.3,5.9
		c0,0.4,0.1,0.6,0.1,0.8c0.1,0.2,0.2,0.3,0.4,0.4c0.2,0.1,0.4,0.1,0.8,0.1c0.3,0,0.5,0.1,0.6,0.2c0.1,0.2,0.2,0.4,0.2,0.6
		c0,0.2-0.1,0.5-0.3,0.6S130.5,165.5,130.2,165.5z"/>
	<path class="st2" d="M130.2,165.5l0.1-1.7h0.6c0.2-0.2,0.3-0.5,0.5-0.7l-0.2-6.4h1.7l0.2,4.7c0.5-0.4,0.9-0.7,1.4-0.9
		c0.5-0.2,1-0.3,1.5-0.3c0.5,0,1,0.1,1.4,0.3c0.4,0.2,0.7,0.5,0.9,0.9c0.2,0.4,0.3,0.8,0.3,1.3c0,0.5-0.1,1-0.4,1.4s-0.8,0.8-1.5,1
		c-0.3,0.1-0.6,0.2-1,0.3c-0.3,0.1-0.7,0.1-1.2,0.2c-0.5,0-1,0.1-1.7,0.1H130.2z M135.9,161.8c-0.4,0-0.7,0.1-1.1,0.3
		c-0.4,0.2-0.7,0.5-1,0.8c-0.3,0.3-0.6,0.7-0.9,1h0.1c1,0,1.8,0,2.4-0.2c0.6-0.1,1-0.2,1.2-0.4c0.2-0.2,0.3-0.4,0.3-0.6
		c0-0.2-0.1-0.4-0.2-0.6C136.5,161.8,136.3,161.8,135.9,161.8z M139.3,165.5c-0.6,0-1.2-0.1-1.7-0.2c-0.5-0.2-0.9-0.4-1.2-0.6
		l1.1-1.2c0.3,0.1,0.6,0.2,0.9,0.3c0.3,0.1,0.7,0.1,1.1,0.1c0.3,0,0.5,0.1,0.6,0.2c0.1,0.2,0.2,0.4,0.2,0.6c0,0.2-0.1,0.5-0.3,0.6
		S139.7,165.5,139.3,165.5z"/>
	<path class="st2" d="M139.4,165.5l0.1-1.7c0.4,0,0.6,0,0.8-0.1c0.2-0.1,0.3-0.2,0.3-0.4c0-0.2,0-0.5,0-0.9l-0.2-5.7h1.7l0.2,5.8
		c0,0.5,0,0.9-0.1,1.3s-0.2,0.7-0.4,1c-0.2,0.3-0.5,0.5-0.9,0.6C140.6,165.4,140,165.5,139.4,165.5z"/>
	<path class="st2" d="M143.9,165.5l-0.3-8.8h1.7l0.3,8.8H143.9z"/>
	<path class="st2" d="M149.5,168.2l-0.6-1.5c0.6-0.2,1.1-0.4,1.5-0.7c0.4-0.3,0.8-0.6,1-0.9c0.3-0.3,0.4-0.7,0.4-1.2
		c0-0.3-0.1-0.7-0.2-1.1c-0.2-0.4-0.3-0.8-0.6-1.2l1.6-0.8c0.1,0.2,0.3,0.5,0.4,0.8c0.1,0.3,0.2,0.5,0.3,0.8
		c0.1,0.2,0.1,0.4,0.1,0.5c0.1,0.4,0.3,0.6,0.5,0.8s0.5,0.2,1,0.2c0.3,0,0.5,0.1,0.6,0.2c0.1,0.2,0.2,0.4,0.2,0.6
		c0,0.2-0.1,0.5-0.3,0.6s-0.4,0.2-0.7,0.2c-0.6,0-1.1-0.2-1.4-0.5c-0.1,0.5-0.4,1-0.8,1.4s-0.8,0.8-1.4,1.1
		C150.6,167.8,150.1,168.1,149.5,168.2z"/>
	<path class="st2" d="M154.7,165.5l0.1-1.7c0.3,0,0.5,0,0.7-0.1s0.4-0.2,0.5-0.3c0.1-0.2,0.3-0.4,0.4-0.8c0.1-0.3,0.2-0.8,0.3-1.3
		l1.6,0.3c0,0.2-0.1,0.4-0.1,0.7c0,0.3-0.1,0.5-0.1,0.7c0,0.3,0.1,0.5,0.4,0.7c0.2,0.2,0.7,0.2,1.2,0.2c0.3,0,0.5,0.1,0.6,0.2
		c0.1,0.2,0.2,0.4,0.2,0.6c0,0.2-0.1,0.5-0.2,0.6s-0.4,0.2-0.7,0.2c-0.6,0-1-0.1-1.4-0.2c-0.4-0.1-0.7-0.4-0.9-0.8
		c-0.2,0.3-0.5,0.5-0.8,0.6s-0.6,0.2-0.9,0.3C155.3,165.5,155,165.5,154.7,165.5z M156,168.3c-0.2,0-0.4-0.1-0.6-0.2
		c-0.2-0.2-0.2-0.4-0.2-0.6s0.1-0.4,0.2-0.6c0.2-0.2,0.4-0.3,0.6-0.3c0.2,0,0.4,0.1,0.6,0.3c0.2,0.2,0.2,0.4,0.2,0.6
		s-0.1,0.4-0.2,0.6C156.4,168.2,156.2,168.3,156,168.3z M158.1,168.3c-0.2,0-0.4-0.1-0.6-0.2s-0.2-0.4-0.2-0.6s0.1-0.4,0.2-0.6
		s0.4-0.3,0.6-0.3c0.2,0,0.4,0.1,0.6,0.3s0.2,0.4,0.2,0.6s-0.1,0.4-0.2,0.6S158.3,168.3,158.1,168.3z"/>
	<path class="st2" d="M165.8,165.7c-0.9,0-1.6,0-2.1-0.1c-0.5-0.1-1-0.2-1.2-0.4s-0.5-0.4-0.7-0.6c-0.3,0.4-0.6,0.7-1,0.8
		c-0.4,0.1-0.8,0.2-1.2,0.2l0.1-1.7c0.3,0,0.6-0.1,0.7-0.2c0.2-0.1,0.3-0.4,0.4-0.7c0.1-0.3,0.2-0.8,0.4-1.4l1.5,0.4
		c-0.2,0.6-0.3,1.1-0.3,1.3c0,0.2,0,0.3,0.2,0.5c0.1,0.1,0.3,0.2,0.6,0.3c0.3-0.5,0.7-0.9,1-1.4c0.4-0.4,0.8-0.8,1.2-1.2
		c0.4-0.3,0.9-0.6,1.3-0.8c0.5-0.2,0.9-0.3,1.4-0.3c0.8,0,1.4,0.2,1.9,0.7c0.4,0.5,0.7,1,0.7,1.8c0,0.6-0.2,1.1-0.5,1.5
		c-0.3,0.4-0.9,0.8-1.6,1.1C168,165.5,167,165.7,165.8,165.7z M168.1,161.9c-0.4,0-0.7,0.1-1.1,0.3c-0.4,0.2-0.7,0.5-1,0.8
		c-0.3,0.3-0.6,0.7-0.9,1c0.1,0,0.2,0,0.4,0c0.9,0,1.6,0,2.2-0.1c0.5-0.1,0.9-0.2,1.1-0.4c0.2-0.2,0.3-0.4,0.3-0.7
		c0-0.2-0.1-0.4-0.2-0.6C168.8,162,168.5,161.9,168.1,161.9z M168,159.1c-0.2,0-0.5-0.1-0.6-0.3s-0.3-0.4-0.3-0.6s0.1-0.5,0.3-0.6
		c0.2-0.2,0.4-0.3,0.6-0.3c0.2,0,0.4,0.1,0.6,0.3c0.2,0.2,0.3,0.4,0.3,0.6s-0.1,0.5-0.3,0.6S168.2,159.1,168,159.1z M171.7,165.5
		c-0.6,0-1.2-0.1-1.7-0.2s-0.9-0.4-1.2-0.6l1.1-1.2c0.3,0.1,0.6,0.2,0.9,0.3s0.7,0.1,1.1,0.1c0.3,0,0.5,0.1,0.6,0.2
		c0.1,0.2,0.2,0.4,0.2,0.6c0,0.2-0.1,0.5-0.3,0.6S172,165.5,171.7,165.5z"/>
	<path class="st2" d="M171.7,165.5l0.1-1.7c0.9,0,1.7-0.1,2.5-0.3c0.8-0.2,1.5-0.5,2.2-0.9c-0.4-0.2-0.8-0.4-1.2-0.5
		c-0.4-0.1-0.9-0.2-1.5-0.2c-0.2,0-0.4,0-0.6,0c-0.2,0-0.4,0.1-0.6,0.1l-0.2-1.6c0.2-0.1,0.5-0.1,0.7-0.1s0.5,0,0.7,0
		c0.5,0,1,0.1,1.5,0.2c0.4,0.1,0.8,0.3,1.2,0.5c0.4,0.2,0.7,0.4,1,0.5c0.3,0.1,0.6,0.2,0.9,0.2h0.4l0.2,1.6c-0.2,0-0.3,0-0.5,0.1
		s-0.3,0.1-0.5,0.1c0.2,0.1,0.4,0.2,0.7,0.3s0.6,0.1,1,0.1c0.3,0,0.5,0.1,0.6,0.2c0.1,0.2,0.2,0.4,0.2,0.6c0,0.2-0.1,0.5-0.2,0.6
		s-0.4,0.2-0.7,0.2c-0.6,0-1.2-0.1-1.7-0.3c-0.5-0.2-0.9-0.5-1.2-1.1c-0.4,0.2-0.8,0.4-1.2,0.6c-0.4,0.2-1,0.4-1.6,0.5
		C173.2,165.4,172.5,165.5,171.7,165.5z"/>
	<path class="st2" d="M179.5,165.5l0.1-1.7c0.5,0,0.8,0,1.1-0.1s0.4-0.1,0.5-0.3c0.1-0.1,0.2-0.3,0.2-0.6c0-0.2,0-0.5-0.1-0.8
		c-0.1-0.3-0.1-0.6-0.2-1c-0.1-0.3-0.2-0.6-0.3-0.9l1.7-0.5c0.1,0.3,0.2,0.6,0.3,0.9c0.1,0.4,0.2,0.7,0.2,1.1
		c0.1,0.4,0.1,0.7,0.1,1.1c0,0.5-0.1,1-0.3,1.3c-0.2,0.3-0.4,0.6-0.7,0.8c-0.3,0.2-0.7,0.3-1.1,0.4
		C180.5,165.5,180,165.5,179.5,165.5z M180.7,158.8c-0.2,0-0.4-0.1-0.6-0.2s-0.2-0.4-0.2-0.6c0-0.2,0.1-0.4,0.2-0.6s0.4-0.3,0.6-0.3
		c0.2,0,0.4,0.1,0.6,0.3s0.2,0.4,0.2,0.6c0,0.2-0.1,0.4-0.2,0.6S180.9,158.8,180.7,158.8z M182.8,158.8c-0.2,0-0.4-0.1-0.6-0.2
		c-0.2-0.2-0.2-0.4-0.2-0.6c0-0.2,0.1-0.4,0.2-0.6c0.2-0.2,0.4-0.3,0.6-0.3c0.2,0,0.4,0.1,0.6,0.3c0.2,0.2,0.2,0.4,0.2,0.6
		c0,0.2-0.1,0.4-0.2,0.6C183.2,158.7,183,158.8,182.8,158.8z"/>
	<path class="st2" d="M187.9,170.2c-0.3-1-0.5-1.9-0.6-2.7c-0.1-0.8-0.2-1.5-0.2-2c0-0.7,0.1-1.3,0.3-1.9c0.2-0.6,0.5-1,0.9-1.4
		c0.4-0.4,0.8-0.7,1.2-1s0.8-0.5,1.2-0.6c0.4-0.1,0.7-0.2,1-0.2c0.3,0,0.5,0.1,0.7,0.2c0.2,0.2,0.4,0.4,0.5,0.7
		c0.1,0.3,0.3,0.6,0.5,1c0.2,0.4,0.4,0.8,0.5,1c0.2,0.2,0.3,0.4,0.5,0.4s0.3,0.1,0.5,0.1c0.3,0,0.5,0.1,0.7,0.2
		c0.1,0.2,0.2,0.4,0.2,0.6c0,0.2-0.1,0.5-0.3,0.6s-0.4,0.2-0.7,0.2c-0.4,0-0.7-0.1-0.9-0.2c-0.3-0.1-0.5-0.3-0.7-0.5
		c-0.1,0.2-0.3,0.4-0.5,0.6c-0.2,0.1-0.5,0.2-0.8,0.2c-1,0-1.9-0.5-2.7-1.6c-0.1,0.2-0.2,0.5-0.2,0.7s-0.1,0.5-0.1,0.8
		c0,0.3,0,0.7,0.1,1.2c0.1,0.5,0.2,1,0.3,1.5s0.2,1,0.4,1.4L187.9,170.2z M191.8,164c0.2,0,0.4,0,0.5-0.1c0.1-0.1,0.1-0.2,0-0.4
		c-0.2-0.4-0.3-0.7-0.4-1c-0.1-0.2-0.3-0.3-0.4-0.3c-0.1,0-0.3,0-0.5,0.1c-0.2,0.1-0.4,0.2-0.5,0.3s-0.3,0.2-0.3,0.3
		c0.2,0.3,0.5,0.6,0.8,0.8C191.2,163.9,191.5,164,191.8,164z"/>
	<path class="st2" d="M194.9,165.5l0.1-1.7c0.3,0,0.5,0,0.7-0.1s0.4-0.2,0.5-0.3c0.1-0.2,0.3-0.4,0.4-0.8c0.1-0.3,0.2-0.8,0.3-1.3
		l1.6,0.3c0,0.2-0.1,0.4-0.1,0.7c0,0.3-0.1,0.5-0.1,0.7c0,0.3,0.1,0.5,0.4,0.7c0.2,0.2,0.7,0.2,1.2,0.2c0.3,0,0.5,0.1,0.6,0.2
		c0.1,0.2,0.2,0.4,0.2,0.6c0,0.2-0.1,0.5-0.2,0.6c-0.2,0.2-0.4,0.2-0.7,0.2c-0.6,0-1-0.1-1.4-0.2c-0.4-0.1-0.7-0.4-0.9-0.8
		c-0.2,0.3-0.5,0.5-0.8,0.6s-0.6,0.2-0.9,0.3S195.2,165.5,194.9,165.5z M196.7,160.2c-0.2,0-0.4-0.1-0.6-0.2s-0.2-0.4-0.2-0.6
		c0-0.2,0.1-0.4,0.2-0.6s0.4-0.3,0.6-0.3c0.2,0,0.4,0.1,0.6,0.3s0.2,0.4,0.2,0.6c0,0.2-0.1,0.4-0.2,0.6S196.9,160.2,196.7,160.2z
		 M198.7,160.2c-0.2,0-0.4-0.1-0.6-0.2c-0.2-0.2-0.2-0.4-0.2-0.6c0-0.2,0.1-0.4,0.2-0.6s0.4-0.3,0.6-0.3c0.2,0,0.4,0.1,0.6,0.3
		s0.2,0.4,0.2,0.6c0,0.2-0.1,0.4-0.2,0.6C199.1,160.1,199,160.2,198.7,160.2z"/>
	<path class="st2" d="M199.8,165.5l0.1-1.7c0.5,0,0.8,0,1.1-0.1s0.4-0.1,0.5-0.3c0.1-0.1,0.2-0.3,0.2-0.6c0-0.2,0-0.5-0.1-0.8
		c-0.1-0.3-0.1-0.6-0.2-1c-0.1-0.3-0.2-0.6-0.3-0.9l1.7-0.5c0.1,0.3,0.2,0.6,0.3,0.9c0.1,0.4,0.2,0.7,0.2,1.1
		c0.1,0.4,0.1,0.7,0.1,1.1c0,0.5-0.1,1-0.3,1.3c-0.2,0.3-0.4,0.6-0.7,0.8c-0.3,0.2-0.7,0.3-1.1,0.4
		C200.8,165.5,200.3,165.5,199.8,165.5z M200.7,168.3c-0.2,0-0.4-0.1-0.6-0.2s-0.2-0.4-0.2-0.6s0.1-0.4,0.2-0.6s0.4-0.3,0.6-0.3
		c0.2,0,0.4,0.1,0.6,0.3s0.2,0.4,0.2,0.6s-0.1,0.4-0.2,0.6S200.9,168.3,200.7,168.3z M202.7,168.3c-0.2,0-0.4-0.1-0.6-0.2
		c-0.2-0.2-0.2-0.4-0.2-0.6s0.1-0.4,0.2-0.6c0.2-0.2,0.4-0.3,0.6-0.3c0.2,0,0.4,0.1,0.6,0.3c0.2,0.2,0.2,0.4,0.2,0.6
		s-0.1,0.4-0.2,0.6C203.2,168.2,203,168.3,202.7,168.3z"/>
	<path class="st2" d="M27.3,179.9c-0.4,0-0.9-0.1-1.2-0.2c-0.4-0.2-0.6-0.4-0.8-0.7c-0.2-0.3-0.3-0.7-0.3-1.2c0-0.4,0.1-0.8,0.3-1.3
		s0.6-0.9,1-1.4l-0.5-0.4l1.1-1.4c0.9,0.7,1.6,1.4,2.1,2s0.8,1.4,0.8,2.1c0,0.2,0,0.5-0.1,0.8c-0.1,0.3-0.2,0.5-0.4,0.8
		s-0.5,0.4-0.8,0.6C28.3,179.8,27.8,179.9,27.3,179.9z M26.4,172.4c-0.2,0-0.4-0.1-0.6-0.2c-0.2-0.2-0.2-0.4-0.2-0.6
		c0-0.2,0.1-0.4,0.2-0.6c0.2-0.2,0.4-0.3,0.6-0.3c0.2,0,0.4,0.1,0.6,0.3s0.2,0.4,0.2,0.6c0,0.2-0.1,0.4-0.2,0.6
		S26.6,172.4,26.4,172.4z M27.4,178.2c0.3,0,0.5-0.1,0.7-0.3s0.2-0.4,0.2-0.6c0-0.2-0.1-0.4-0.2-0.6c-0.1-0.2-0.4-0.5-0.7-0.8
		c-0.3,0.3-0.5,0.6-0.6,0.8s-0.2,0.5-0.2,0.7c0,0.3,0.1,0.4,0.3,0.6C27,178.2,27.2,178.2,27.4,178.2z M28.4,172.4
		c-0.2,0-0.4-0.1-0.6-0.2c-0.2-0.2-0.2-0.4-0.2-0.6c0-0.2,0.1-0.4,0.2-0.6c0.2-0.2,0.4-0.3,0.6-0.3c0.2,0,0.4,0.1,0.6,0.3
		c0.2,0.2,0.2,0.4,0.2,0.6c0,0.2-0.1,0.4-0.2,0.6C28.8,172.4,28.7,172.4,28.4,172.4z"/>
	<path class="st2" d="M30.5,182.6l-0.6-1.5c1-0.4,1.8-0.8,2.2-1.2s0.7-1,0.7-1.5c0-0.3-0.1-0.7-0.2-1.1s-0.3-0.8-0.6-1.2l1.6-0.8
		c0.3,0.5,0.5,1,0.7,1.5c0.2,0.5,0.2,0.9,0.2,1.4c0,1-0.3,1.9-1,2.6S31.9,182.1,30.5,182.6z"/>
	<path class="st2" d="M35.9,182.6l-0.3-1.7c0.7-0.1,1.3-0.2,1.8-0.3c0.5-0.1,0.9-0.4,1.1-0.7h-0.3c-0.8,0-1.3-0.1-1.8-0.4
		c-0.4-0.3-0.6-0.8-0.6-1.4c0-0.4,0.1-0.7,0.2-1.1c0.1-0.4,0.3-0.7,0.5-1s0.5-0.5,0.8-0.7c0.3-0.2,0.6-0.3,1-0.3
		c0.5,0,0.9,0.1,1.3,0.4c0.4,0.3,0.6,0.7,0.9,1.2s0.3,1,0.3,1.6h0.9c0.3,0,0.5,0.1,0.6,0.2s0.2,0.3,0.2,0.6c0,0.2-0.1,0.5-0.3,0.6
		s-0.4,0.2-0.7,0.2h-1.1c-0.3,0.8-0.9,1.5-1.6,1.9C38,182.3,37,182.6,35.9,182.6z M37.4,177.8c0,0.1,0,0.2,0.1,0.3s0.2,0.2,0.4,0.2
		c0.2,0.1,0.6,0.1,1,0c0-0.5-0.1-0.8-0.2-1.1c-0.1-0.3-0.3-0.4-0.6-0.4c-0.2,0-0.3,0.1-0.4,0.2c-0.1,0.1-0.2,0.3-0.2,0.4
		C37.4,177.5,37.4,177.7,37.4,177.8z"/>
	<path class="st2" d="M41.5,179.9l0.1-1.7c0.3,0,0.5,0,0.7-0.1c0.2-0.1,0.3-0.2,0.4-0.3c0.1-0.2,0.2-0.4,0.3-0.8
		c0.1-0.3,0.2-0.8,0.2-1.3l1.6,0.3c0,0.2-0.1,0.4-0.1,0.7s-0.1,0.5-0.1,0.7c0,0.2,0,0.4,0.1,0.5c0.1,0.1,0.2,0.2,0.5,0.3
		s0.5,0.1,1,0.1c0.3,0,0.5,0.1,0.6,0.2s0.2,0.3,0.2,0.6c0,0.2-0.1,0.5-0.2,0.6s-0.4,0.2-0.7,0.2c-0.6,0-1.1-0.1-1.5-0.2
		s-0.6-0.4-0.8-0.7c-0.3,0.4-0.6,0.7-1.1,0.8C42.4,179.9,42,179.9,41.5,179.9z M43.6,182.7c-0.2,0-0.4-0.1-0.6-0.2s-0.2-0.4-0.2-0.6
		c0-0.2,0.1-0.4,0.2-0.6c0.2-0.2,0.4-0.3,0.6-0.3c0.2,0,0.4,0.1,0.6,0.3c0.2,0.2,0.3,0.4,0.3,0.6c0,0.2-0.1,0.4-0.3,0.6
		S43.8,182.7,43.6,182.7z"/>
	<path class="st2" d="M46.1,179.9l0.1-1.7c0.3,0,0.5,0,0.6-0.1s0.3-0.1,0.4-0.3c0.1-0.2,0.2-0.4,0.3-0.7c0.1-0.3,0.2-0.7,0.3-1.3
		l1.6,0.3c0,0.2-0.1,0.4-0.1,0.7c-0.1,0.3-0.1,0.5-0.1,0.7c0,0.2,0.1,0.4,0.2,0.5c0.1,0.1,0.4,0.2,0.8,0.2c0.2,0,0.4,0,0.5-0.1
		c0.1,0,0.3-0.1,0.4-0.3c0.1-0.2,0.2-0.4,0.3-0.7s0.2-0.8,0.2-1.3l1.6,0.3c0,0.3-0.1,0.6-0.1,0.9c0,0.3-0.1,0.5-0.1,0.7
		s0.1,0.3,0.2,0.4s0.4,0.2,0.9,0.2c0.7,0,1.1-0.3,1.1-0.9c0-0.3,0-0.6,0-0.9c0-0.3-0.1-0.8-0.1-1.3l1.5-0.1c0.1,0.7,0.1,1.2,0.2,1.7
		c0.1,0.4,0.2,0.8,0.3,1c0.1,0.2,0.3,0.4,0.5,0.5s0.5,0.1,0.8,0.1c0.3,0,0.5,0.1,0.7,0.2c0.1,0.2,0.2,0.3,0.2,0.6
		c0,0.2-0.1,0.5-0.2,0.6s-0.4,0.2-0.7,0.2c-0.3,0-0.5,0-0.8-0.1c-0.3-0.1-0.5-0.2-0.8-0.3c-0.2-0.2-0.4-0.4-0.6-0.8
		c-0.2,0.5-0.4,0.8-0.8,1s-0.8,0.2-1.3,0.2c-0.4,0-0.8-0.1-1.1-0.2s-0.5-0.4-0.7-0.7c-0.2,0.3-0.3,0.4-0.5,0.6s-0.4,0.2-0.7,0.2
		s-0.6,0.1-0.9,0.1c-0.2,0-0.4,0-0.6,0c-0.2,0-0.4-0.1-0.6-0.2c-0.2-0.1-0.3-0.3-0.5-0.6c-0.3,0.4-0.6,0.6-1,0.7
		C47,179.9,46.6,179.9,46.1,179.9z"/>
	<path class="st2" d="M58.3,179.9l0.1-1.7c0.4,0,0.6,0,0.8-0.1c0.2-0.1,0.3-0.2,0.3-0.4c0-0.2,0-0.5,0-0.9l-0.2-5.7H61l0.2,5.8
		c0,0.5,0,0.9-0.1,1.3c-0.1,0.4-0.2,0.7-0.4,1c-0.2,0.3-0.5,0.5-0.9,0.6C59.5,179.8,59,179.9,58.3,179.9z"/>
	<path class="st2" d="M62.8,179.9l-0.3-8.8h1.7l0.3,8.8H62.8z"/>
	<path class="st2" d="M68.6,179.5c0-0.3,0-0.6,0.1-1c0.1-0.4,0.2-0.9,0.5-1.5l1.5,0.5c-0.1,0.4-0.2,0.7-0.3,1
		c-0.1,0.3-0.1,0.5-0.1,0.8c0,0.5,0.2,0.9,0.7,1.3c0.5,0.3,1.1,0.5,2,0.5c0.9,0,1.6-0.1,2.1-0.2c0.5-0.2,0.8-0.4,0.8-0.7
		c0-0.1-0.1-0.3-0.3-0.4c-0.2-0.1-0.6-0.3-1.1-0.5l0.4-1.7c0.7,0.3,1.3,0.5,1.9,0.6c0.6,0.1,1.1,0.2,1.5,0.2c0.3,0,0.5,0.1,0.6,0.2
		c0.1,0.2,0.2,0.3,0.2,0.6c0,0.2-0.1,0.5-0.3,0.6s-0.4,0.2-0.7,0.2h-0.6c0,0.1,0,0.1,0,0.2c0,0.1,0,0.1,0,0.2c0,0.3-0.1,0.5-0.3,0.8
		c-0.2,0.3-0.5,0.5-0.8,0.8s-0.9,0.4-1.4,0.6c-0.6,0.1-1.3,0.2-2.1,0.2c-1.3,0-2.3-0.3-3.1-0.8C69,181.4,68.6,180.6,68.6,179.5z
		 M71.8,185.4c-0.2,0-0.4-0.1-0.6-0.2c-0.2-0.2-0.2-0.4-0.2-0.6c0-0.2,0.1-0.4,0.2-0.6c0.2-0.2,0.4-0.3,0.6-0.3
		c0.2,0,0.4,0.1,0.6,0.3c0.2,0.2,0.2,0.4,0.2,0.6c0,0.2-0.1,0.4-0.2,0.6C72.3,185.3,72.1,185.4,71.8,185.4z M73.9,185.4
		c-0.2,0-0.4-0.1-0.6-0.2c-0.2-0.2-0.2-0.4-0.2-0.6c0-0.2,0.1-0.4,0.2-0.6s0.4-0.3,0.6-0.3c0.2,0,0.4,0.1,0.6,0.3s0.2,0.4,0.2,0.6
		c0,0.2-0.1,0.4-0.2,0.6C74.3,185.3,74.1,185.4,73.9,185.4z"/>
	<path class="st2" d="M77.9,179.9l0.1-1.7c0.7,0,1.2,0,1.6,0c0.4,0,0.7,0,1-0.1s0.4-0.1,0.5-0.1c0.1,0,0.2-0.1,0.3-0.1
		c0.1,0,0.1-0.1,0.2-0.2c0.1-0.1,0.1-0.2,0.1-0.3c-0.3,0.1-0.7,0.2-1,0.2c-0.6,0-1.1-0.1-1.5-0.4c-0.4-0.3-0.6-0.7-0.6-1.4
		c0-0.4,0.1-0.7,0.2-1c0.1-0.3,0.3-0.7,0.5-0.9c0.2-0.3,0.5-0.5,0.8-0.7c0.3-0.2,0.6-0.3,1-0.3c0.5,0,1,0.2,1.4,0.5
		c0.4,0.3,0.6,0.7,0.8,1.3s0.3,1.1,0.3,1.8c0,0.6-0.1,1.1-0.3,1.5s-0.4,0.8-0.6,1c-0.2,0.2-0.4,0.4-0.7,0.5
		c-0.2,0.1-0.6,0.2-0.9,0.3s-0.8,0.1-1.3,0.2C79.2,179.9,78.6,179.9,77.9,179.9z M81.1,171.8c-0.2,0-0.5-0.1-0.6-0.3
		c-0.2-0.2-0.3-0.4-0.3-0.6c0-0.2,0.1-0.5,0.3-0.6c0.2-0.2,0.4-0.3,0.6-0.3c0.2,0,0.4,0.1,0.6,0.3c0.2,0.2,0.3,0.4,0.3,0.6
		c0,0.2-0.1,0.5-0.3,0.6C81.5,171.7,81.3,171.8,81.1,171.8z M80.2,175.5c0,0.3,0.3,0.5,0.8,0.5c0.3,0,0.5,0,0.8-0.1
		c0-0.4-0.1-0.8-0.3-1c-0.1-0.2-0.3-0.3-0.6-0.3c-0.2,0-0.4,0.1-0.5,0.3C80.3,175,80.2,175.2,80.2,175.5z"/>
	<path class="st2" d="M87.5,179.4l0.6-1.5c0.6,0.3,1.1,0.4,1.7,0.4c0.8,0,1.3-0.2,1.3-0.7c0-0.1,0-0.3-0.1-0.6
		c-0.1-0.2-0.2-0.6-0.4-0.9c-0.2-0.4-0.5-0.9-0.9-1.4l1.4-0.9c0.6,0.8,1,1.6,1.4,2.3c0.3,0.7,0.5,1.4,0.5,1.9c0,0.6-0.2,1.1-0.7,1.5
		s-1.2,0.6-2.1,0.6c-0.2,0-0.5,0-0.8-0.1c-0.3,0-0.6-0.1-0.9-0.2C88,179.6,87.7,179.5,87.5,179.4z"/>
	<path class="st2" d="M94,182.6l-0.3-1.7c0.7-0.1,1.3-0.2,1.8-0.3c0.5-0.1,0.9-0.4,1.1-0.7h-0.3c-0.8,0-1.3-0.1-1.8-0.4
		c-0.4-0.3-0.6-0.8-0.6-1.4c0-0.4,0.1-0.7,0.2-1.1c0.1-0.4,0.3-0.7,0.5-1s0.5-0.5,0.8-0.7c0.3-0.2,0.6-0.3,1-0.3
		c0.5,0,0.9,0.1,1.3,0.4c0.4,0.3,0.6,0.7,0.9,1.2s0.3,1,0.3,1.6h0.9c0.3,0,0.5,0.1,0.6,0.2s0.2,0.3,0.2,0.6c0,0.2-0.1,0.5-0.3,0.6
		s-0.4,0.2-0.7,0.2h-1.1c-0.3,0.8-0.9,1.5-1.6,1.9C96,182.3,95.1,182.6,94,182.6z M95.5,177.8c0,0.1,0,0.2,0.1,0.3s0.2,0.2,0.4,0.2
		c0.2,0.1,0.6,0.1,1,0c0-0.5-0.1-0.8-0.2-1.1c-0.1-0.3-0.3-0.4-0.6-0.4c-0.2,0-0.3,0.1-0.4,0.2c-0.1,0.1-0.2,0.3-0.2,0.4
		C95.5,177.5,95.5,177.7,95.5,177.8z"/>
	<path class="st2" d="M99.6,179.9l0.1-1.7c0.9,0,1.7-0.1,2.5-0.3c0.8-0.2,1.5-0.5,2.2-0.9c-0.4-0.2-0.8-0.4-1.2-0.5
		c-0.4-0.1-0.9-0.2-1.5-0.2c-0.2,0-0.4,0-0.6,0c-0.2,0-0.4,0.1-0.6,0.1l-0.2-1.6c0.2-0.1,0.5-0.1,0.7-0.1c0.3,0,0.5,0,0.7,0
		c0.5,0,1,0.1,1.5,0.2c0.4,0.1,0.8,0.3,1.2,0.5c0.4,0.2,0.7,0.4,1,0.5c0.3,0.1,0.6,0.2,0.9,0.2h0.4l0.2,1.6c-0.4,0-0.7,0.1-1,0.2
		s-0.6,0.3-0.9,0.4s-0.6,0.4-0.9,0.5c-0.3,0.2-0.7,0.4-1.1,0.5c-0.4,0.2-0.9,0.3-1.4,0.4S100.3,179.9,99.6,179.9z M103.2,182.7
		c-0.2,0-0.4-0.1-0.6-0.2s-0.2-0.4-0.2-0.6c0-0.2,0.1-0.4,0.2-0.6c0.2-0.2,0.4-0.3,0.6-0.3c0.2,0,0.4,0.1,0.6,0.3
		c0.2,0.2,0.3,0.4,0.3,0.6c0,0.2-0.1,0.4-0.3,0.6S103.4,182.7,103.2,182.7z"/>
	<path class="st2" d="M107.8,182.6l-0.3-1.7c0.7-0.1,1.3-0.2,1.8-0.3c0.5-0.1,0.9-0.4,1.1-0.7h-0.3c-0.8,0-1.3-0.1-1.8-0.4
		c-0.4-0.3-0.6-0.8-0.6-1.4c0-0.4,0.1-0.7,0.2-1.1c0.1-0.4,0.3-0.7,0.5-1s0.5-0.5,0.8-0.7c0.3-0.2,0.6-0.3,1-0.3
		c0.5,0,0.9,0.1,1.3,0.4c0.4,0.3,0.6,0.7,0.9,1.2s0.3,1,0.3,1.6h0.9c0.3,0,0.5,0.1,0.6,0.2c0.1,0.2,0.2,0.3,0.2,0.6
		c0,0.2-0.1,0.5-0.3,0.6s-0.4,0.2-0.7,0.2h-1.1c-0.3,0.8-0.9,1.5-1.6,1.9C109.9,182.3,108.9,182.6,107.8,182.6z M109.3,177.8
		c0,0.1,0,0.2,0.1,0.3c0.1,0.1,0.2,0.2,0.4,0.2c0.2,0.1,0.6,0.1,1,0c0-0.5-0.1-0.8-0.2-1.1c-0.1-0.3-0.3-0.4-0.6-0.4
		c-0.2,0-0.3,0.1-0.4,0.2c-0.1,0.1-0.2,0.3-0.2,0.4S109.3,177.7,109.3,177.8z"/>
	<path class="st2" d="M113.4,179.9l0.1-1.7c0.2,0,0.3,0,0.5-0.1c0.1-0.1,0.2-0.2,0.3-0.4c0.1-0.2,0.2-0.5,0.4-0.8
		c0.4-0.8,0.8-1.3,1.3-1.6c0.5-0.3,0.9-0.4,1.3-0.4c0.4,0,0.8,0.1,1.2,0.4s0.7,0.8,1.1,1.6c0.2,0.5,0.5,0.9,0.7,1.1
		c0.2,0.2,0.5,0.3,0.7,0.3c0.3,0,0.5,0.1,0.6,0.2s0.2,0.3,0.2,0.6c0,0.2-0.1,0.5-0.3,0.6s-0.4,0.2-0.7,0.2c-0.4,0-0.7-0.1-1-0.2
		c-0.3-0.1-0.5-0.3-0.7-0.5c-0.1,0.2-0.3,0.4-0.6,0.5c-0.2,0.2-0.5,0.2-0.9,0.2c-0.2,0-0.4,0-0.7-0.1c-0.3-0.1-0.5-0.2-0.8-0.4
		c-0.3-0.2-0.5-0.4-0.8-0.7c-0.2,0.4-0.5,0.7-0.8,0.9C114.3,179.8,113.9,179.9,113.4,179.9z M116.1,177.4c0.2,0.2,0.4,0.5,0.7,0.7
		s0.6,0.3,0.9,0.3c0.2,0,0.3-0.1,0.4-0.2c0.1-0.1,0.1-0.3,0-0.6c-0.1-0.1-0.1-0.3-0.2-0.5c-0.1-0.2-0.2-0.3-0.3-0.5
		c-0.1-0.1-0.3-0.2-0.4-0.2c-0.2,0-0.3,0.1-0.5,0.2C116.5,176.9,116.3,177.1,116.1,177.4z"/>
	<path class="st2" d="M120.9,179.9l0.1-1.7c0.4,0,0.6,0,0.8-0.1c0.2-0.1,0.3-0.2,0.3-0.4c0-0.2,0-0.5,0-0.9l-0.2-5.7h1.7l0.2,5.8
		c0,0.5,0,0.9-0.1,1.3s-0.2,0.7-0.4,1c-0.2,0.3-0.5,0.5-0.9,0.6C122.1,179.8,121.6,179.9,120.9,179.9z"/>
	<path class="st2" d="M125.4,179.9l-0.3-8.8h1.7l0.3,8.8H125.4z"/>
	<path class="st2" d="M131,182.6l-0.6-1.5c1-0.4,1.8-0.8,2.2-1.2s0.7-1,0.7-1.5c0-0.3-0.1-0.7-0.2-1.1c-0.1-0.4-0.3-0.8-0.6-1.2
		l1.6-0.8c0.3,0.5,0.5,1,0.7,1.5c0.2,0.5,0.2,0.9,0.2,1.4c0,1-0.3,1.9-1,2.6C133.4,181.5,132.4,182.1,131,182.6z"/>
	<path class="st2" d="M138.1,170.8c-0.2,0-0.5,0-0.6-0.1c-0.2-0.1-0.4-0.2-0.5-0.2s-0.3-0.1-0.4-0.1c-0.1,0-0.3,0-0.4,0.1
		c-0.1,0.1-0.2,0.2-0.4,0.3l-0.6-0.5c0.4-0.5,0.9-0.8,1.3-0.8c0.2,0,0.4,0,0.6,0.1s0.3,0.2,0.5,0.2c0.2,0.1,0.4,0.1,0.6,0.1
		c0.1,0,0.2,0,0.4-0.1c0.1,0,0.2-0.1,0.4-0.2l0.4,0.7c-0.3,0.3-0.5,0.4-0.7,0.5C138.3,170.7,138.2,170.8,138.1,170.8z M136.7,179.9
		l-0.2-7.9h1.7l0.2,7.9H136.7z"/>
	<path class="st2" d="M142.8,182.6l-0.3-1.7c0.7-0.1,1.3-0.2,1.8-0.3s0.9-0.4,1.1-0.7h-0.3c-0.8,0-1.3-0.1-1.8-0.4
		c-0.4-0.3-0.6-0.8-0.6-1.4c0-0.4,0.1-0.7,0.2-1.1c0.1-0.4,0.3-0.7,0.5-1c0.2-0.3,0.5-0.5,0.8-0.7c0.3-0.2,0.6-0.3,1-0.3
		c0.5,0,0.9,0.1,1.3,0.4s0.6,0.7,0.9,1.2s0.3,1,0.3,1.6h0.9c0.3,0,0.5,0.1,0.6,0.2c0.1,0.2,0.2,0.3,0.2,0.6c0,0.2-0.1,0.5-0.3,0.6
		s-0.4,0.2-0.7,0.2h-1.1c-0.3,0.8-0.9,1.5-1.6,1.9C144.9,182.3,143.9,182.6,142.8,182.6z M144.3,177.8c0,0.1,0,0.2,0.1,0.3
		c0.1,0.1,0.2,0.2,0.4,0.2c0.2,0.1,0.6,0.1,1,0c0-0.5-0.1-0.8-0.2-1.1c-0.1-0.3-0.3-0.4-0.6-0.4c-0.2,0-0.3,0.1-0.4,0.2
		s-0.2,0.3-0.2,0.4C144.4,177.5,144.3,177.7,144.3,177.8z"/>
	<path class="st2" d="M148.4,179.9l0.1-1.7c0.3,0,0.5,0,0.7-0.1c0.2-0.1,0.4-0.2,0.5-0.3c0.1-0.2,0.3-0.4,0.4-0.8
		c0.1-0.3,0.2-0.8,0.3-1.3l1.6,0.3c0,0.2-0.1,0.4-0.1,0.7s-0.1,0.5-0.1,0.7c0,0.3,0.1,0.5,0.4,0.7c0.2,0.2,0.7,0.2,1.2,0.2
		c0.3,0,0.5,0.1,0.6,0.2s0.2,0.3,0.2,0.6c0,0.2-0.1,0.5-0.2,0.6s-0.4,0.2-0.7,0.2c-0.6,0-1-0.1-1.4-0.2c-0.4-0.1-0.7-0.4-0.9-0.8
		c-0.2,0.3-0.5,0.5-0.8,0.6c-0.3,0.1-0.6,0.2-0.9,0.3C149,179.9,148.7,179.9,148.4,179.9z M149.7,182.7c-0.2,0-0.4-0.1-0.6-0.2
		c-0.2-0.2-0.2-0.4-0.2-0.6s0.1-0.4,0.2-0.6c0.2-0.2,0.4-0.3,0.6-0.3c0.2,0,0.4,0.1,0.6,0.3c0.2,0.2,0.2,0.4,0.2,0.6
		s-0.1,0.4-0.2,0.6C150.1,182.6,149.9,182.7,149.7,182.7z M151.8,182.7c-0.2,0-0.4-0.1-0.6-0.2c-0.2-0.2-0.2-0.4-0.2-0.6
		s0.1-0.4,0.2-0.6s0.4-0.3,0.6-0.3c0.2,0,0.4,0.1,0.6,0.3s0.2,0.4,0.2,0.6s-0.1,0.4-0.2,0.6C152.2,182.6,152,182.7,151.8,182.7z"/>
	<path class="st2" d="M153.3,179.9l0.1-1.7h1.7c0.7,0,1-0.2,1-0.6c0-0.1,0-0.3-0.2-0.5c-0.1-0.2-0.3-0.5-0.6-0.8
		c-0.2-0.2-0.4-0.3-0.6-0.5s-0.4-0.4-0.6-0.5c-0.2-0.2-0.3-0.3-0.5-0.4c-0.1-0.1-0.2-0.2-0.2-0.3c0-0.2,0-0.4,0.1-0.6
		c0-0.2,0.1-0.4,0.2-0.5c0.2-0.2,0.5-0.4,0.9-0.6c0.4-0.2,0.9-0.5,1.5-0.8c0.6-0.3,1.2-0.6,1.9-0.9l0.7,1.5
		c-0.7,0.3-1.3,0.6-1.8,0.8c-0.6,0.3-1.1,0.5-1.5,0.8c0.6,0.5,1,0.9,1.3,1.2s0.6,0.7,0.7,1s0.3,0.6,0.3,0.8c0.1,0.2,0.1,0.4,0.1,0.6
		c0,0.2,0,0.4-0.1,0.6c-0.1,0.2-0.3,0.4-0.5,0.6c-0.2,0.2-0.6,0.4-1,0.5c-0.4,0.1-1,0.2-1.6,0.2H153.3z"/>
	<path class="st2" d="M161.9,179.9l0.1-1.7h3.5c0.3,0,0.5,0.1,0.7,0.2s0.2,0.3,0.2,0.6c0,0.2-0.1,0.5-0.3,0.6
		c-0.2,0.2-0.4,0.2-0.7,0.2H161.9z"/>
	<path class="st2" d="M165.3,179.9l0.1-1.7c0.4,0,0.6,0,0.8-0.1s0.3-0.2,0.3-0.4s0-0.5,0-0.9l-0.2-5.7h1.7l0.2,5.8
		c0,0.5,0,0.9-0.1,1.3c-0.1,0.4-0.2,0.7-0.4,1c-0.2,0.3-0.5,0.5-0.9,0.6C166.6,179.8,166,179.9,165.3,179.9z"/>
	<path class="st2" d="M177.1,180.1c-1.2,0-2.1-0.1-2.8-0.3c-0.7-0.2-1.2-0.6-1.5-1c-0.3-0.4-0.5-0.9-0.5-1.4c0-0.4,0-0.8,0.1-1.2
		c0.1-0.4,0.2-0.7,0.3-1l1.5,0.3c-0.1,0.2-0.1,0.5-0.2,0.7s-0.1,0.5-0.1,0.7c0,0.3,0.1,0.6,0.3,0.8s0.6,0.4,1,0.5s1.1,0.2,2,0.2v0
		l0,0c0.6,0,1.1,0,1.7-0.1c0.5-0.1,1-0.2,1.5-0.3s0.9-0.4,1.4-0.7s0.8-0.8,1.2-1.3l1.3,0.6c0,0.2-0.1,0.3-0.1,0.4c0,0.1,0,0.3,0,0.3
		c0,0.3,0.1,0.5,0.3,0.7c0.2,0.2,0.6,0.2,1.2,0.2c0.3,0,0.5,0.1,0.6,0.2s0.2,0.3,0.2,0.6c0,0.2-0.1,0.5-0.2,0.6s-0.4,0.2-0.7,0.2
		c-0.7,0-1.3-0.1-1.8-0.4s-0.8-0.6-0.9-1c-0.6,0.5-1.4,0.9-2.5,1.2C179.6,180,178.4,180.1,177.1,180.1L177.1,180.1L177.1,180.1z
		 M178,182.9c-0.2,0-0.4-0.1-0.6-0.2c-0.2-0.2-0.2-0.4-0.2-0.6c0-0.2,0.1-0.4,0.2-0.6s0.4-0.3,0.6-0.3c0.2,0,0.4,0.1,0.6,0.3
		s0.3,0.4,0.3,0.6c0,0.2-0.1,0.4-0.3,0.6C178.4,182.8,178.2,182.9,178,182.9z"/>
	<path class="st2" d="M185.7,179.9l0.1-1.7c0.4,0,0.6,0,0.8-0.1c0.2-0.1,0.3-0.2,0.3-0.4c0-0.2,0-0.5,0-0.9l-0.2-5.7h1.7l0.2,5.8
		c0,0.5,0,0.9-0.1,1.3s-0.2,0.7-0.4,1c-0.2,0.3-0.5,0.5-0.9,0.6C186.9,179.8,186.4,179.9,185.7,179.9z"/>
	<path class="st2" d="M193.1,179.9c-0.7,0-1.3-0.1-1.7-0.2c-0.4-0.2-0.7-0.4-0.9-0.7s-0.3-0.7-0.3-1.2l-0.3-6.7h1.7l0.3,5.9
		c0,0.4,0.1,0.6,0.1,0.8c0.1,0.2,0.2,0.3,0.4,0.4c0.2,0.1,0.4,0.1,0.8,0.1c0.3,0,0.5,0.1,0.6,0.2s0.2,0.3,0.2,0.6
		c0,0.2-0.1,0.5-0.3,0.6S193.4,179.9,193.1,179.9z"/>
	<path class="st2" d="M193.1,179.9l0.1-1.7h0.6c0.2-0.2,0.3-0.5,0.5-0.7l-0.2-6.4h1.7l0.2,4.7c0.5-0.4,0.9-0.7,1.4-0.9
		c0.5-0.2,1-0.3,1.5-0.3c0.5,0,1,0.1,1.4,0.3c0.4,0.2,0.7,0.5,0.9,0.9c0.2,0.4,0.3,0.8,0.3,1.3c0,0.5-0.1,1-0.4,1.4s-0.8,0.8-1.5,1
		c-0.3,0.1-0.6,0.2-1,0.3c-0.3,0.1-0.7,0.1-1.2,0.2c-0.5,0-1,0.1-1.7,0.1H193.1z M198.8,176.2c-0.4,0-0.7,0.1-1.1,0.3
		c-0.4,0.2-0.7,0.5-1,0.8c-0.3,0.3-0.6,0.7-0.9,1h0.1c1,0,1.8,0,2.4-0.1c0.6-0.1,1-0.2,1.2-0.4c0.2-0.2,0.3-0.4,0.3-0.6
		c0-0.2-0.1-0.4-0.2-0.6C199.4,176.2,199.2,176.2,198.8,176.2z M202.3,179.9c-0.6,0-1.2-0.1-1.7-0.2c-0.5-0.2-0.9-0.4-1.2-0.6
		l1.1-1.2c0.3,0.1,0.6,0.2,0.9,0.3c0.3,0.1,0.7,0.1,1.1,0.1c0.3,0,0.5,0.1,0.6,0.2c0.1,0.2,0.2,0.3,0.2,0.6c0,0.2-0.1,0.5-0.3,0.6
		S202.6,179.9,202.3,179.9z"/>
	<path class="st2" d="M202.3,179.9l0.1-1.7c0.4,0,0.6,0,0.8-0.1c0.2-0.1,0.3-0.2,0.3-0.4c0-0.2,0-0.5,0-0.9l-0.2-5.7h1.7l0.2,5.8
		c0,0.5,0,0.9-0.1,1.3s-0.2,0.7-0.4,1c-0.2,0.3-0.5,0.5-0.9,0.6C203.5,179.8,202.9,179.9,202.3,179.9z"/>
	<path class="st2" d="M206.8,179.9l-0.3-8.8h1.7l0.3,8.8H206.8z"/>
</g>
</svg>
