<?xml version="1.0" encoding="utf-8"?>
<!-- Generator: Adobe Illustrator 24.1.1, SVG Export Plug-In . SVG Version: 6.00 Build 0)  -->
<svg version="1.1" id="Layer_1" xmlns="http://www.w3.org/2000/svg" xmlns:xlink="http://www.w3.org/1999/xlink" x="0px" y="0px"
	 viewBox="0 0 311 131" style="enable-background:new 0 0 311 131;" xml:space="preserve">
<style type="text/css">
	.st0{fill:#A1A1A9;}
</style>
<g>
	<g>
		<g>
			<path class="st0" d="M204.2,10.7v96.5h96.4V10.7H204.2z M284.8,59.7h-16.3V43.4h-16.3v16.3v14.9h16.3h16.3v16.3h-16.3h-16.3H236
				h-16.3V74.5H236V59.7V43.4h16.3V27.1h16.3v16.3h16.3V59.7z"/>
			<g>
				<path class="st0" d="M60.7,52.8l-1.6,6.1H20.5c-2.1,0-4-0.6-5.7-1.7c-1.7-1.1-2.9-2.6-3.6-4.5c-0.5-1-0.8-2.3-0.8-3.8V36.2
					l6.2-0.9c0,6.3,0,10.4,0.1,12.3c0,3.5,2,5.2,6.1,5.2h12.5l-0.1-0.1c-0.5-1-0.7-2.3-0.7-3.9V43c0-1.4,0.2-2.8,0.7-3.9
					c1.1-2.6,2.9-4.4,5.5-5.4c1.2-0.6,2.5-0.9,3.8-0.9h6c1.2,0,2.5,0.3,3.9,0.9c2.5,1,4.3,2.8,5.4,5.4c0.6,1.3,0.8,2.6,0.8,3.9v9.8
					H60.7z M54.4,45.2c0-4.1-1.8-6.1-5.3-6.1h-3.2c-3.5,0-5.3,2-5.3,6.1v1.4c0,1.9,0.4,3.4,1.3,4.5c0.9,1.2,2.2,1.8,4,1.8h8.5V45.2z
					 M44.9,23.5c0-0.6,0.2-1.1,0.6-1.5s0.9-0.6,1.4-0.6h4.5v4.2c0,0.6-0.2,1.1-0.6,1.5c-0.4,0.4-0.9,0.6-1.4,0.6h-4.5
					C44.8,27.7,44.8,23.5,44.9,23.5z"/>
				<path class="st0" d="M65.8,58.9V18.7l6.3-1v41.2H65.8z"/>
				<path class="st0" d="M89.8,61.7c0,1.5-0.2,2.8-0.7,3.9c-1.1,2.7-2.9,4.5-5.5,5.5c-1.4,0.5-2.6,0.7-3.8,0.7h-4.2l-1-6.2h3.8
					c1.7,0,3.1-0.6,4-1.7c0.8-1.1,1.3-2.6,1.3-4.4V33.8l6.1-1.1L89.8,61.7L89.8,61.7z"/>
				<path class="st0" d="M89.7,58.9v-6.1h3.2c4,0,6.1-1.6,6.2-4.9V35.2l6.2,0.9v11.4c0,2.7,1,4.4,3,5.1c-0.2-5.7,0.1-9.4,0.8-11
					c1-2.3,4.4-4.5,10.2-6.4c5-1.7,9-2.5,12-2.5c2.2,0,4.3,0.5,6.1,1.5c2,1.1,3.4,2.7,4.2,4.7c0.5,1.2,0.8,2.5,0.8,3.9v5.8
					c0,1.4-0.3,2.7-0.8,3.9c-1,2.7-2.9,4.5-5.4,5.5c-1.4,0.5-2.8,0.7-3.9,0.7h-23.1c-2.7,0-5-0.9-7-2.7c-2,1.8-4.3,2.7-7,2.7h-5.5
					V58.9z M114.6,50.2c0,1.1-0.1,2-0.1,2.6h16.4c1.7,0,3.1-0.6,4-1.8c0.8-1.1,1.3-2.6,1.3-4.5v-1.9c-0.2-3.7-1.9-5.6-5.2-5.6h-0.6
					c-2.5,0-5.5,0.7-9.1,2c-4.4,1.7-6.6,3.7-6.6,5.9C114.6,48,114.6,49.1,114.6,50.2z"/>
				<path class="st0" d="M141.6,58.9v-6.1h3.1c4.2,0,6.2-1.7,6.2-5.2V32.8l6.3,1.1V49c0,1.3-0.3,2.6-0.8,3.8c-0.8,1.8-2,3.3-3.7,4.5
					c-1.7,1.1-3.6,1.7-5.7,1.7L141.6,58.9L141.6,58.9z M154.1,25.4c0,0.6-0.2,1.1-0.6,1.5c-0.4,0.4-0.9,0.6-1.5,0.6h-4.4v-4.2
					c0-0.5,0.2-1,0.6-1.4c0.4-0.4,0.9-0.6,1.5-0.6h4.5v4.1H154.1z"/>
				<path class="st0" d="M159.2,69c0-2.4,1.1-4.1,3.4-5c0.6-0.3,1.3-0.4,2-0.4h8.1l0.7,3.6h-7.8c-1.8,0-2.7,0.9-2.7,2.8v0.9
					c0,2,0.8,3,2.5,3.1h9l-0.6,3.7h-16.6l-0.5-3.7h2.7c-0.2-0.5-0.2-1.1-0.2-1.7L159.2,69L159.2,69z M162.2,58.9V18.7l6.3-1v41.2
					H162.2z"/>
			</g>
		</g>
	</g>
	<g>
		<g>
			<path class="st0" d="M25.2,95.2c0.2-0.2,0.3-0.5,0.3-1v-6.6c0-0.2,0.1-0.2,0.2-0.2h0.8c0.2,0,0.2,0.1,0.2,0.2v6.6
				c0,0.9-0.2,1.5-0.6,1.9s-1,0.6-1.8,0.6h-11c-1,0-1.7-0.2-2.1-0.6s-0.6-1-0.6-2V89c0-0.2,0.1-0.2,0.2-0.2h0.8
				c0.2,0,0.2,0.1,0.2,0.2v5.1c0,0.4,0.1,0.8,0.3,1c0.2,0.2,0.5,0.3,0.8,0.3h11.4C24.9,95.5,25.1,95.4,25.2,95.2z M18,100.6
				c-0.2,0-0.2-0.1-0.2-0.2V99c0-0.2,0.1-0.2,0.2-0.2h1.2c0.2,0,0.2,0.1,0.2,0.2v1.4c0,0.2-0.1,0.2-0.2,0.2H18z"/>
			<path class="st0" d="M40.9,95.6c-0.2,0.4-0.5,0.7-0.9,0.9c-0.4,0.2-0.9,0.3-1.6,0.3h-9c-0.2,0-0.2-0.1-0.2-0.2v-0.8
				c0-0.2,0.1-0.2,0.2-0.2h5v-11c0-0.2,0.1-0.2,0.2-0.2h0.8c0.2,0,0.2,0.1,0.2,0.2v11h3c0.4,0,0.7-0.1,0.8-0.3
				c0.2-0.2,0.3-0.5,0.3-1v-13c0-0.2,0.1-0.2,0.2-0.2h0.8c0.2,0,0.2,0.1,0.2,0.2v12.9c0,0.5,0.2,0.8,0.7,1.1c0.4,0.2,1,0.3,1.6,0.3
				h0.1c0.3,0,0.5,0,0.7,0.1s0.2,0.2,0.2,0.5c0,0.4-0.1,0.6-0.2,0.6c-0.1,0.1-0.4,0.1-0.7,0.1c-0.6,0-1.2-0.1-1.6-0.2
				C41.5,96.4,41.1,96.1,40.9,95.6z"/>
			<path class="st0" d="M58.2,95.3c-0.2,0.3-0.4,0.6-0.6,0.8c-0.3,0.2-0.6,0.3-0.9,0.4c-0.3,0.1-0.7,0.2-1.2,0.2c-0.4,0-0.9,0-1.5,0
				h-6.9c-0.1,0-0.3,0-0.4,0s-0.3-0.1-0.3-0.2c-0.2,0.1-0.3,0.1-0.5,0.2c-0.2,0-0.4,0-0.7,0h-1.6c-0.3,0-0.5,0-0.7-0.1
				s-0.2-0.3-0.2-0.5c0-0.4,0.3-0.6,0.9-0.6H45c0.3,0,0.5,0,0.7-0.1s0.3-0.2,0.4-0.3c0.1-0.2,0.2-0.4,0.2-0.6c0-0.3,0.1-0.6,0.1-1
				V81.2c0-0.2,0.1-0.2,0.2-0.2h0.8c0.2,0,0.2,0.1,0.2,0.2v7.4c0.8-0.4,1.7-0.8,2.6-1.1c1-0.3,1.9-0.5,3-0.5c1.2,0,2.1,0.2,2.8,0.5
				s1.3,0.8,1.7,1.3s0.7,1.1,0.8,1.8s0.2,1.3,0.2,1.9c0,0.2,0,0.5,0,0.7s0,0.4,0,0.6c0,0.6,0.2,1,0.6,1.3c0.4,0.3,1,0.4,1.6,0.4H61
				c0.3,0,0.5,0,0.7,0.1s0.2,0.2,0.2,0.5c0,0.4-0.1,0.6-0.2,0.6c-0.1,0.1-0.4,0.1-0.7,0.1c-0.7,0-1.3-0.1-1.8-0.3
				C58.7,96.3,58.2,95.9,58.2,95.3z M54.5,95.5c0.5,0,0.9,0,1.3-0.1c0.3-0.1,0.6-0.2,0.8-0.4c0.2-0.2,0.4-0.5,0.5-0.9s0.1-1,0.1-1.6
				s-0.1-1.2-0.2-1.7c-0.1-0.5-0.3-0.9-0.6-1.3s-0.7-0.6-1.2-0.8c-0.5-0.2-1.1-0.3-1.9-0.3c-0.5,0-1,0.1-1.6,0.2
				c-0.5,0.1-1,0.2-1.5,0.4c-0.5,0.2-1,0.3-1.4,0.5s-0.9,0.4-1.2,0.6V94c0,0.2,0,0.5-0.1,0.8c0,0.3-0.1,0.5-0.2,0.7H54.5z"/>
			<path class="st0" d="M60.9,96.8c-0.3,0-0.5,0-0.7-0.1S60,96.5,60,96.2s0.1-0.5,0.2-0.6c0.1-0.1,0.4-0.1,0.7-0.1h1.7
				c0.4,0,0.7-0.1,0.9-0.3c0.2-0.2,0.3-0.5,0.3-1v-13c0-0.2,0.1-0.2,0.2-0.2h0.8c0.2,0,0.2,0.1,0.2,0.2v12.6c0,0.5,0,0.9-0.1,1.3
				s-0.2,0.7-0.4,0.9c-0.2,0.2-0.5,0.4-0.8,0.5c-0.3,0.1-0.8,0.2-1.4,0.2L60.9,96.8L60.9,96.8z"/>
			<path class="st0" d="M69.9,96.5c0,0.2-0.1,0.2-0.2,0.2h-0.8c-0.2,0-0.2-0.1-0.2-0.2V81.2c0-0.2,0.1-0.2,0.2-0.2h0.8
				c0.2,0,0.2,0.1,0.2,0.2V96.5z"/>
			<path class="st0" d="M82.4,96.9c-1.3,0-2.3-0.4-3-1.2c-0.7-0.8-1-2.1-1-3.8c0-3.3,1.4-4.9,4.1-4.9c2.7,0,4.1,1.6,4.1,4.9
				c0,1.7-0.3,3-1,3.8C84.9,96.5,83.9,96.9,82.4,96.9z M82.4,88.3c-1,0-1.7,0.3-2.1,1c-0.4,0.7-0.6,1.6-0.6,2.7
				c0,1.2,0.2,2.1,0.6,2.7c0.4,0.6,1.1,0.9,2.1,0.9s1.7-0.3,2.1-0.9c0.4-0.6,0.7-1.5,0.7-2.7c0-1.1-0.2-2-0.7-2.7
				C84.2,88.6,83.4,88.3,82.4,88.3z M80.4,85.1c-0.2,0-0.2-0.1-0.2-0.2v-1.4c0-0.2,0.1-0.2,0.2-0.2h1.2c0.2,0,0.2,0.1,0.2,0.2v1.4
				c0,0.2-0.1,0.2-0.2,0.2H80.4z M83.4,85.1c-0.2,0-0.2-0.1-0.2-0.2v-1.4c0-0.2,0.1-0.2,0.2-0.2h1.2c0.2,0,0.2,0.1,0.2,0.2v1.4
				c0,0.2-0.1,0.2-0.2,0.2H83.4z"/>
			<path class="st0" d="M88.2,101.3c-0.2,0-0.2-0.1-0.2-0.2v-0.8c0-0.2,0.1-0.2,0.2-0.2h0.5c0.6,0,1.1-0.2,1.4-0.5
				c0.3-0.3,0.5-0.8,0.5-1.5V87.6c0-0.2,0.1-0.2,0.2-0.2h0.8c0.2,0,0.2,0.1,0.2,0.2v10.3c0,1.1-0.3,1.9-0.8,2.5s-1.4,0.9-2.6,0.9
				H88.2z"/>
			<path class="st0" d="M96.6,96.5c0,0.2-0.1,0.2-0.2,0.2h-0.8c-0.2,0-0.2-0.1-0.2-0.2V81.2c0-0.2,0.1-0.2,0.2-0.2h0.8
				c0.2,0,0.2,0.1,0.2,0.2V96.5z"/>
			<path class="st0" d="M108.2,92.8c0,0.8-0.1,1.4-0.2,1.9c-0.1,0.5-0.3,0.9-0.5,1.2c-0.3,0.3-0.6,0.5-1,0.6s-0.9,0.2-1.5,0.2h-4.9
				c-0.2,0-0.2-0.1-0.2-0.2v-0.8c0-0.2,0.1-0.2,0.2-0.2h4.6c0.5,0,0.8,0,1.1-0.1s0.5-0.2,0.6-0.4c0.1-0.2,0.2-0.4,0.3-0.7
				c0-0.3,0.1-0.7,0.1-1.1v-2.3c0-0.9-0.2-1.5-0.7-1.9s-1.2-0.6-2.2-0.6h-2.7c-0.2,0-0.2-0.1-0.2-0.2v-0.8c0-0.2,0.1-0.2,0.2-0.2
				h3.1c0.6,0,1.1,0.1,1.6,0.2c0.5,0.2,0.9,0.4,1.2,0.7c0.3,0.3,0.6,0.7,0.8,1.2s0.3,1.1,0.3,1.8L108.2,92.8L108.2,92.8z"/>
			<path class="st0" d="M110.6,102.1c-0.1-0.2-0.2-0.4-0.3-0.6s-0.1-0.5-0.1-0.9c0-0.2,0-0.4,0.1-0.7c0.1-0.2,0.2-0.5,0.4-0.7
				s0.4-0.4,0.7-0.6s0.7-0.2,1.1-0.2c0.4,0,0.7,0.1,1,0.2s0.6,0.4,0.8,0.6c0,0.1,0,0.1,0,0.2c0,0,0,0.1-0.1,0.1l-0.3,0.3
				c-0.1,0.1-0.2,0.1-0.3,0c-0.1-0.2-0.3-0.3-0.5-0.4s-0.4-0.1-0.7-0.1c-0.4,0-0.7,0.1-0.9,0.4s-0.3,0.6-0.3,1
				c0,0.3,0.1,0.6,0.2,0.8c0.1,0.3,0.3,0.5,0.5,0.6h2.4c0.1,0,0.1,0.1,0.1,0.2v0.6c0,0.1,0,0.2-0.1,0.2h-4.5c-0.1,0-0.1-0.1-0.1-0.2
				v-0.6c0-0.1,0-0.2,0.1-0.2C109.7,102.1,110.6,102.1,110.6,102.1z M112.4,96.5c0,0.2-0.1,0.2-0.2,0.2h-0.8c-0.2,0-0.2-0.1-0.2-0.2
				V81.2c0-0.2,0.1-0.2,0.2-0.2h0.8c0.2,0,0.2,0.1,0.2,0.2V96.5z"/>
			<path class="st0" d="M123.6,96.8c-0.6,0-1,0.2-1.2,0.5s-0.3,0.7-0.3,1.1c0,0.6,0.1,1,0.4,1.2c0.3,0.3,0.8,0.4,1.5,0.4h1.5
				c0.2,0,0.2,0.1,0.2,0.2v0.8c0,0.2-0.1,0.2-0.2,0.2h-1.4c-2.2,0-3.4-1-3.4-2.9c0-0.6,0.1-1.1,0.3-1.5s0.4-0.7,0.7-0.9
				c0.3-0.2,0.6-0.4,0.9-0.5c0.3-0.1,0.6-0.1,0.9-0.1h4.5c0.5,0,0.8,0,1.1-0.1s0.5-0.2,0.6-0.4c0.1-0.2,0.2-0.4,0.3-0.8
				c0-0.3,0.1-0.7,0.1-1.2c0-0.7-0.1-1.4-0.2-2c-0.1-0.6-0.3-1.1-0.6-1.5s-0.6-0.7-1.1-0.9c-0.4-0.2-1-0.3-1.7-0.3
				c-0.5,0-1.1,0.1-1.6,0.3c-0.5,0.2-0.9,0.5-1.3,1c-0.1,0.1-0.2,0.2-0.3,0l-0.6-0.6c-0.1-0.1-0.2-0.2-0.1-0.3
				c0.4-0.5,0.9-0.9,1.5-1.3c0.6-0.3,1.4-0.5,2.4-0.5s1.8,0.2,2.5,0.5c0.6,0.3,1.1,0.8,1.5,1.3s0.6,1.2,0.7,1.9
				c0.1,0.7,0.2,1.4,0.2,2.1v1.1c0,0.5,0.2,0.9,0.5,1.2c0.4,0.3,0.8,0.4,1.4,0.4h0.4c0.3,0,0.5,0,0.7,0.1s0.2,0.3,0.2,0.5
				c0,0.3-0.1,0.5-0.2,0.5c-0.1,0.1-0.4,0.1-0.7,0.1c-0.6,0-1.2-0.1-1.7-0.2c-0.5-0.2-0.8-0.5-1-1.1c-0.2,0.5-0.6,0.8-1,1
				s-1,0.3-1.7,0.3h-4.7V96.8z M126.9,100.7c-0.2,0-0.2-0.1-0.2-0.2V99c0-0.2,0.1-0.2,0.2-0.2h1.2c0.2,0,0.2,0.1,0.2,0.2v1.4
				c0,0.2-0.1,0.2-0.2,0.2L126.9,100.7L126.9,100.7z"/>
			<path class="st0" d="M140.6,96.9c-0.7,0-1.3-0.1-1.9-0.3c-0.6-0.2-1-0.5-1.3-1c-0.3,0.5-0.6,0.8-1,1c-0.4,0.1-0.8,0.2-1.2,0.2
				h-1.4c-0.3,0-0.5,0-0.7-0.1s-0.2-0.2-0.2-0.5s0.1-0.5,0.2-0.6c0.1-0.1,0.4-0.1,0.7-0.1h1.3c0.2,0,0.3,0,0.5-0.1s0.3-0.2,0.5-0.3
				s0.3-0.4,0.3-0.6c0.1-0.3,0.1-0.6,0.1-1c0-0.2,0-0.4,0-0.6s0-0.4,0-0.6c0-3.4,1.4-5.2,4.1-5.2c1.3,0,2.4,0.4,3,1.2
				c0.7,0.8,1,2.1,1,3.7c0,1.7-0.3,3-1,3.8C142.9,96.5,141.9,96.9,140.6,96.9z M140.6,88.3c-1,0-1.7,0.3-2.1,1
				c-0.4,0.7-0.6,1.6-0.6,2.7c0,1.2,0.2,2.1,0.6,2.7c0.4,0.6,1.1,0.9,2.1,0.9s1.7-0.3,2.1-0.9c0.4-0.6,0.7-1.5,0.7-2.7
				c0-1.1-0.2-2-0.7-2.7C142.3,88.6,141.6,88.3,140.6,88.3z"/>
			<path class="st0" d="M147.8,81.2c0-0.2,0.1-0.2,0.2-0.2h0.8c0.2,0,0.2,0.1,0.2,0.2v13c0,0.5,0.1,0.8,0.3,1s0.5,0.3,0.9,0.3h1.2
				c0.6,0,0.9,0.2,0.9,0.6c0,0.3-0.1,0.5-0.2,0.6c-0.1,0.1-0.4,0.1-0.7,0.1h-0.9c-1,0-1.7-0.2-2.1-0.6c-0.4-0.4-0.6-1-0.6-1.9
				L147.8,81.2L147.8,81.2z"/>
			<path class="st0" d="M151.4,96.8c-0.3,0-0.5,0-0.7-0.1s-0.2-0.2-0.2-0.5s0.1-0.5,0.2-0.6c0.1-0.1,0.4-0.1,0.7-0.1h1.7
				c0.4,0,0.7-0.1,0.9-0.3c0.2-0.2,0.3-0.5,0.3-1v-6.6c0-0.2,0.1-0.2,0.2-0.2h0.8c0.2,0,0.2,0.1,0.2,0.2v6.2c0,0.5,0,0.9-0.1,1.3
				s-0.2,0.7-0.4,0.9c-0.2,0.2-0.5,0.4-0.8,0.5s-0.8,0.2-1.4,0.2L151.4,96.8L151.4,96.8z M154.4,85.1c-0.2,0-0.2-0.1-0.2-0.2v-1.4
				c0-0.2,0.1-0.2,0.2-0.2h0.9c0.2,0,0.2,0.1,0.2,0.2v1.4c0,0.2-0.1,0.2-0.2,0.2H154.4z"/>
			<path class="st0" d="M161.3,93.7c0,0.6,0.2,1,0.6,1.3c0.4,0.3,1,0.4,1.6,0.4h0.1c0.3,0,0.5,0,0.7,0.1s0.2,0.2,0.2,0.5
				c0,0.4-0.1,0.6-0.2,0.6c-0.1,0.1-0.4,0.1-0.7,0.1c-0.5,0-1,0-1.3-0.1c-0.4-0.1-0.7-0.3-1-0.6v1.9c0,1.1-0.3,1.9-0.8,2.5
				s-1.4,0.9-2.6,0.9h-0.4c-0.2,0-0.2-0.1-0.2-0.2v-0.8c0-0.2,0.1-0.2,0.2-0.2h0.5c0.6,0,1.1-0.2,1.4-0.5s0.5-0.8,0.5-1.5V87.6
				c0-0.2,0.1-0.2,0.2-0.2h0.8c0.2,0,0.2,0.1,0.2,0.2v6.1H161.3z"/>
			<path class="st0" d="M163.7,96.8c-0.3,0-0.5,0-0.7-0.1s-0.2-0.2-0.2-0.5s0.1-0.5,0.2-0.6c0.1-0.1,0.4-0.1,0.7-0.1h1.7
				c0.4,0,0.7-0.1,0.9-0.3c0.2-0.2,0.3-0.5,0.3-1v-6.6c0-0.2,0.1-0.2,0.2-0.2h0.8c0.2,0,0.2,0.1,0.2,0.2v6.2c0,0.5,0,0.9-0.1,1.3
				s-0.2,0.7-0.4,0.9c-0.2,0.2-0.5,0.4-0.8,0.5s-0.8,0.2-1.4,0.2L163.7,96.8L163.7,96.8z M165.9,100.5c-0.2,0-0.2-0.1-0.2-0.2v-1.4
				c0-0.2,0.1-0.2,0.2-0.2h1.2c0.2,0,0.2,0.1,0.2,0.2v1.4c0,0.2-0.1,0.2-0.2,0.2H165.9z"/>
		</g>
		<g>
			<path class="st0" d="M16.7,117c-0.4,0-0.8,0-1.2-0.1c-0.4-0.1-0.8-0.2-1.1-0.3c-0.4-0.1-0.7-0.3-1-0.5s-0.5-0.3-0.8-0.5
				c-0.1-0.1-0.1-0.2,0-0.3l0.4-0.5c0.1-0.1,0.2-0.1,0.3,0c0.4,0.3,0.9,0.6,1.5,0.9s1.3,0.4,2,0.4c1,0,1.7-0.2,2.3-0.7
				c0.6-0.5,0.8-1.1,0.8-1.8c0-0.3,0-0.6-0.1-0.8c-0.1-0.3-0.3-0.5-0.5-0.7s-0.5-0.4-0.9-0.5s-0.8-0.3-1.4-0.3l-0.6-0.1
				c-1.2-0.2-2.1-0.5-2.6-1.1c-0.6-0.5-0.9-1.3-0.9-2.2c0-1.1,0.3-1.9,1-2.5s1.6-0.9,2.8-0.9c0.7,0,1.3,0.1,1.9,0.3
				c0.6,0.2,1.1,0.4,1.5,0.7c0.1,0.1,0.1,0.1,0,0.3l-0.4,0.6c-0.1,0.1-0.2,0.1-0.2,0c-0.5-0.3-1-0.5-1.4-0.7c-0.5-0.1-1-0.2-1.5-0.2
				c-0.9,0-1.5,0.2-2,0.7c-0.5,0.4-0.7,1-0.7,1.7c0,0.6,0.2,1.1,0.7,1.5c0.4,0.4,1.2,0.7,2.2,0.8l0.6,0.1c1.2,0.2,2.1,0.5,2.7,1.1
				s0.8,1.3,0.8,2.2c0,0.5-0.1,1-0.3,1.4c-0.2,0.4-0.5,0.8-0.8,1.1c-0.4,0.3-0.8,0.6-1.3,0.7C18,117,17.5,117,16.7,117z"/>
			<path class="st0" d="M26.2,116.9c-0.8,0-1.4-0.2-1.7-0.5c-0.3-0.3-0.5-0.9-0.5-1.8v-5.3c0-0.1,0-0.1-0.1-0.1H23
				c-0.1,0-0.2-0.1-0.2-0.2v-0.5c0-0.1,0.1-0.2,0.2-0.2H24c0.1,0,0.1,0,0.1-0.1v-2.5c0-0.1,0.1-0.2,0.2-0.2h0.6
				c0.1,0,0.2,0.1,0.2,0.2v2.5c0,0.1,0,0.1,0.1,0.1h1.6c0.1,0,0.2,0.1,0.2,0.2v0.5c0,0.1-0.1,0.2-0.2,0.2h-1.6c-0.1,0-0.1,0-0.1,0.1
				v5.3c0,0.6,0.1,1,0.3,1.1c0.2,0.2,0.6,0.3,1.1,0.3h0.3c0.1,0,0.2,0.1,0.2,0.2v0.6c0,0.1-0.1,0.2-0.2,0.2L26.2,116.9L26.2,116.9z"
				/>
			<path class="st0" d="M34.9,116.9c-0.1,0-0.2-0.1-0.2-0.2v-1l0,0c-0.2,0.4-0.5,0.7-1,1c-0.4,0.2-0.9,0.4-1.5,0.4
				c-1,0-1.7-0.3-2.2-0.8c-0.5-0.6-0.8-1.4-0.8-2.4v-5.3c0-0.1,0.1-0.2,0.2-0.2H30c0.1,0,0.2,0.1,0.2,0.2v5c0,1.7,0.7,2.6,2.2,2.6
				c0.3,0,0.6-0.1,0.9-0.2s0.5-0.3,0.7-0.5s0.4-0.5,0.5-0.8s0.2-0.6,0.2-1v-5.2c0-0.1,0.1-0.2,0.2-0.2h0.6c0.1,0,0.2,0.1,0.2,0.2
				v8.2c0,0.1-0.1,0.2-0.2,0.2C35.4,116.9,34.9,116.9,34.9,116.9z"/>
			<path class="st0" d="M44.4,116.9c-0.1,0-0.2-0.1-0.2-0.2v-1l0,0c-0.2,0.4-0.5,0.7-0.9,1s-1,0.4-1.7,0.4c-1.5,0-2.5-0.7-2.9-2
				c-0.1-0.3-0.2-0.7-0.2-1.1s-0.1-0.8-0.1-1.3s0-0.9,0.1-1.3c0-0.4,0.1-0.8,0.2-1.1c0.4-1.4,1.4-2,2.9-2c0.7,0,1.3,0.1,1.7,0.4
				c0.4,0.3,0.7,0.6,0.9,1l0,0V105c0-0.1,0.1-0.2,0.2-0.2H45c0.1,0,0.2,0.1,0.2,0.2v11.8c0,0.1-0.1,0.2-0.2,0.2h-0.6V116.9z
				 M41.7,116.1c0.5,0,1-0.1,1.4-0.4s0.6-0.6,0.8-1.1c0.1-0.2,0.1-0.5,0.2-0.8c0-0.3,0.1-0.7,0.1-1.2s0-0.9-0.1-1.2
				c0-0.3-0.1-0.6-0.2-0.8c-0.2-0.5-0.4-0.9-0.8-1.1c-0.4-0.3-0.8-0.4-1.4-0.4s-1,0.1-1.4,0.4s-0.6,0.6-0.8,1.1
				c-0.1,0.3-0.2,0.6-0.2,0.9s0,0.7,0,1.1s0,0.7,0,1.1c0,0.3,0.1,0.6,0.2,0.9c0.2,0.5,0.4,0.9,0.8,1.1
				C40.7,116,41.2,116.1,41.7,116.1z"/>
			<path class="st0" d="M51.4,117c-0.8,0-1.5-0.2-2.1-0.6s-1-0.9-1.2-1.7c-0.1-0.3-0.1-0.6-0.2-0.9c0-0.3-0.1-0.8-0.1-1.3
				s0-1,0.1-1.3c0-0.3,0.1-0.6,0.2-0.9c0.2-0.7,0.6-1.3,1.2-1.6c0.5-0.4,1.2-0.6,2-0.6s1.4,0.2,2,0.6s1,0.9,1.2,1.6
				c0.1,0.3,0.2,0.6,0.2,0.9s0.1,0.8,0.1,1.4c0,0.1-0.1,0.2-0.2,0.2H49c-0.1,0-0.1,0-0.1,0.1c0,0.4,0,0.6,0,0.9
				c0,0.2,0.1,0.4,0.1,0.6c0.2,0.6,0.5,1,0.9,1.3c0.4,0.3,0.9,0.4,1.5,0.4s1-0.1,1.4-0.3c0.4-0.2,0.7-0.5,1-0.8
				c0.1-0.1,0.2-0.1,0.3,0l0.4,0.4c0.1,0.1,0.1,0.2,0,0.3c-0.3,0.4-0.7,0.8-1.3,1C52.7,116.9,52.2,117,51.4,117z M53.7,112
				c0.1,0,0.1,0,0.1-0.1c0-0.3,0-0.5,0-0.7s-0.1-0.4-0.1-0.5c-0.2-0.5-0.4-0.9-0.8-1.2c-0.4-0.3-0.9-0.4-1.4-0.4
				c-0.6,0-1,0.1-1.4,0.4s-0.7,0.7-0.8,1.2c-0.1,0.2-0.1,0.3-0.1,0.5s0,0.4,0,0.7c0,0.1,0,0.1,0.1,0.1H53.7z"/>
			<path class="st0" d="M63.2,116.9c-0.1,0-0.2-0.1-0.2-0.2v-5c0-1.7-0.7-2.6-2.2-2.6c-0.7,0-1.2,0.2-1.7,0.6
				c-0.4,0.4-0.7,1-0.7,1.8v5.2c0,0.1-0.1,0.2-0.2,0.2h-0.6c-0.1,0-0.2-0.1-0.2-0.2v-8.2c0-0.1,0.1-0.2,0.2-0.2h0.6
				c0.1,0,0.2,0.1,0.2,0.2v1l0,0c0.2-0.4,0.5-0.8,1-1c0.4-0.3,0.9-0.4,1.6-0.4c1,0,1.7,0.3,2.2,0.8c0.5,0.6,0.8,1.4,0.8,2.4v5.3
				c0,0.1-0.1,0.2-0.2,0.2L63.2,116.9L63.2,116.9z"/>
			<path class="st0" d="M69.6,116.9c-0.8,0-1.4-0.2-1.7-0.5s-0.5-0.9-0.5-1.8v-5.3c0-0.1,0-0.1-0.1-0.1h-0.9c-0.1,0-0.2-0.1-0.2-0.2
				v-0.5c0-0.1,0.1-0.2,0.2-0.2h0.9c0.1,0,0.1,0,0.1-0.1v-2.5c0-0.1,0.1-0.2,0.2-0.2h0.6c0.1,0,0.2,0.1,0.2,0.2v2.5
				c0,0.1,0,0.1,0.1,0.1h1.6c0.1,0,0.2,0.1,0.2,0.2v0.5c0,0.1-0.1,0.2-0.2,0.2h-1.6c-0.1,0-0.1,0-0.1,0.1v5.3c0,0.6,0.1,1,0.3,1.1
				c0.2,0.2,0.6,0.3,1.1,0.3h0.3c0.1,0,0.2,0.1,0.2,0.2v0.6c0,0.1-0.1,0.2-0.2,0.2L69.6,116.9L69.6,116.9z"/>
			<path class="st0" d="M88.3,116.9c-0.1,0-0.2-0.1-0.2-0.2v-5c0-1.7-0.8-2.6-2.3-2.6c-0.7,0-1.2,0.2-1.6,0.6
				c-0.4,0.4-0.7,1-0.7,1.8v5.2c0,0.1-0.1,0.2-0.2,0.2h-0.6c-0.1,0-0.2-0.1-0.2-0.2v-5c0-1.7-0.7-2.6-2.2-2.6
				c-0.7,0-1.2,0.2-1.7,0.6c-0.4,0.4-0.7,1-0.7,1.8v5.2c0,0.1-0.1,0.2-0.2,0.2h-0.6c-0.1,0-0.2-0.1-0.2-0.2v-8.2
				c0-0.1,0.1-0.2,0.2-0.2h0.6c0.1,0,0.2,0.1,0.2,0.2v1l0,0c0.2-0.4,0.5-0.8,1-1c0.4-0.3,0.9-0.4,1.6-0.4c1.3,0,2.2,0.5,2.6,1.6l0,0
				c0.3-0.5,0.6-0.9,1.1-1.2c0.5-0.3,1-0.4,1.7-0.4c1,0,1.7,0.3,2.2,0.8c0.5,0.6,0.8,1.4,0.8,2.4v5.3c0,0.1-0.1,0.2-0.2,0.2
				L88.3,116.9L88.3,116.9z"/>
			<path class="st0" d="M95.1,109.1c-0.5,0-0.9,0.1-1.3,0.2c-0.3,0.1-0.6,0.3-0.9,0.5c-0.1,0.1-0.2,0.1-0.3,0l-0.3-0.4
				c-0.1-0.1,0-0.2,0.1-0.3c0.3-0.3,0.7-0.5,1.1-0.6c0.4-0.1,1-0.2,1.6-0.2c0.5,0,1,0,1.4,0.1s0.7,0.3,1,0.5s0.4,0.5,0.6,0.9
				c0.1,0.4,0.2,0.8,0.2,1.3v5.7c0,0.1-0.1,0.2-0.2,0.2h-0.5c-0.1,0-0.2-0.1-0.2-0.2v-0.9l0,0c-0.2,0.4-0.5,0.7-0.9,0.9
				c-0.4,0.2-1,0.4-1.7,0.4c-0.9,0-1.6-0.2-2.1-0.6s-0.8-1.1-0.8-1.9c0-0.9,0.3-1.5,0.8-1.9c0.6-0.4,1.4-0.6,2.4-0.6h2.2
				c0.1,0,0.1,0,0.1-0.1V111c0-0.3,0-0.6-0.1-0.9s-0.2-0.5-0.4-0.6c-0.2-0.2-0.4-0.3-0.7-0.3C95.9,109.1,95.6,109.1,95.1,109.1z
				 M94.9,116.2c0.7,0,1.3-0.2,1.8-0.5c0.4-0.3,0.7-0.8,0.7-1.4V113c0-0.1,0-0.1-0.1-0.1h-2c-0.9,0-1.5,0.1-1.8,0.4
				c-0.4,0.3-0.6,0.7-0.6,1.3c0,0.5,0.2,0.9,0.5,1.2C93.7,116,94.2,116.2,94.9,116.2z"/>
			<path class="st0" d="M107.2,116.9c-0.1,0-0.2-0.1-0.2-0.2v-5c0-1.7-0.7-2.6-2.2-2.6c-0.7,0-1.2,0.2-1.7,0.6
				c-0.4,0.4-0.7,1-0.7,1.8v5.2c0,0.1-0.1,0.2-0.2,0.2h-0.6c-0.1,0-0.2-0.1-0.2-0.2v-8.2c0-0.1,0.1-0.2,0.2-0.2h0.6
				c0.1,0,0.2,0.1,0.2,0.2v1l0,0c0.2-0.4,0.5-0.8,1-1c0.4-0.3,0.9-0.4,1.6-0.4c1,0,1.7,0.3,2.2,0.8c0.5,0.6,0.8,1.4,0.8,2.4v5.3
				c0,0.1-0.1,0.2-0.2,0.2L107.2,116.9L107.2,116.9z"/>
			<path class="st0" d="M113.9,109.1c-0.5,0-0.9,0.1-1.3,0.2c-0.3,0.1-0.6,0.3-0.9,0.5c-0.1,0.1-0.2,0.1-0.3,0l-0.3-0.4
				c-0.1-0.1,0-0.2,0.1-0.3c0.3-0.3,0.7-0.5,1.1-0.6c0.4-0.1,1-0.2,1.6-0.2c0.5,0,1,0,1.4,0.1s0.7,0.3,1,0.5s0.4,0.5,0.6,0.9
				c0.1,0.4,0.2,0.8,0.2,1.3v5.7c0,0.1-0.1,0.2-0.2,0.2h-0.6c-0.1,0-0.2-0.1-0.2-0.2v-0.9l0,0c-0.2,0.4-0.5,0.7-0.9,0.9
				c-0.4,0.2-1,0.4-1.7,0.4c-0.9,0-1.6-0.2-2.1-0.6s-0.8-1.1-0.8-1.9c0-0.9,0.3-1.5,0.8-1.9c0.6-0.4,1.4-0.6,2.4-0.6h2.2
				c0.1,0,0.1,0,0.1-0.1V111c0-0.3,0-0.6-0.1-0.9s-0.2-0.5-0.4-0.6c-0.2-0.2-0.4-0.3-0.7-0.3C114.8,109.1,114.4,109.1,113.9,109.1z
				 M113.8,116.2c0.7,0,1.3-0.2,1.8-0.5c0.4-0.3,0.7-0.8,0.7-1.4V113c0-0.1,0-0.1-0.1-0.1h-2c-0.9,0-1.5,0.1-1.8,0.4
				c-0.4,0.3-0.6,0.7-0.6,1.3c0,0.5,0.2,0.9,0.5,1.2C112.6,116,113.1,116.2,113.8,116.2z"/>
			<path class="st0" d="M122.9,120.3c-0.6,0-1.2-0.1-1.7-0.4c-0.5-0.2-0.9-0.5-1.1-0.9c-0.1-0.1,0-0.2,0-0.3l0.4-0.4
				c0.1-0.1,0.2-0.1,0.3,0c0.5,0.6,1.2,0.9,2.1,0.9c0.8,0,1.4-0.2,1.8-0.6c0.4-0.4,0.6-1.1,0.6-2v-1.2l0,0c-0.2,0.4-0.5,0.8-0.9,1
				c-0.4,0.3-0.9,0.4-1.6,0.4c-0.7,0-1.3-0.2-1.8-0.5c-0.5-0.4-0.8-0.9-1-1.5c-0.1-0.3-0.2-0.6-0.2-1s-0.1-0.8-0.1-1.3s0-1,0.1-1.3
				c0-0.4,0.1-0.7,0.2-1c0.2-0.7,0.6-1.2,1-1.5c0.5-0.4,1.1-0.5,1.8-0.5s1.2,0.1,1.6,0.4c0.4,0.3,0.7,0.6,0.9,1l0,0v-1
				c0-0.1,0.1-0.2,0.2-0.2h0.6c0.1,0,0.2,0.1,0.2,0.2v8.2c0,1.2-0.3,2.1-0.9,2.7C124.9,120,123.9,120.3,122.9,120.3z M123.1,116
				c0.5,0,0.9-0.1,1.3-0.3c0.4-0.2,0.6-0.6,0.8-1.2c0.1-0.2,0.1-0.5,0.2-0.8c0-0.3,0-0.7,0-1.1s0-0.8,0-1.1c0-0.3-0.1-0.6-0.2-0.8
				c-0.2-0.5-0.5-0.9-0.8-1.2c-0.4-0.2-0.8-0.3-1.3-0.3c-1.1,0-1.8,0.5-2.1,1.5c-0.1,0.2-0.2,0.5-0.2,0.8s-0.1,0.7-0.1,1.1
				c0,0.8,0.1,1.5,0.3,1.9C121.3,115.5,121.9,116,123.1,116z"/>
			<path class="st0" d="M132.6,117c-0.8,0-1.5-0.2-2.1-0.6s-1-0.9-1.2-1.7c-0.1-0.3-0.1-0.6-0.2-0.9c0-0.3-0.1-0.8-0.1-1.3
				s0-1,0.1-1.3c0-0.3,0.1-0.6,0.2-0.9c0.2-0.7,0.6-1.3,1.2-1.6c0.5-0.4,1.2-0.6,2-0.6s1.4,0.2,2,0.6s1,0.9,1.2,1.6
				c0.1,0.3,0.2,0.6,0.2,0.9s0.1,0.8,0.1,1.4c0,0.1-0.1,0.2-0.2,0.2h-5.6c-0.1,0-0.1,0-0.1,0.1c0,0.4,0,0.6,0,0.9
				c0,0.2,0.1,0.4,0.1,0.6c0.2,0.6,0.5,1,0.9,1.3s0.9,0.4,1.5,0.4s1-0.1,1.4-0.3c0.4-0.2,0.7-0.5,1-0.8c0.1-0.1,0.2-0.1,0.3,0
				l0.4,0.4c0.1,0.1,0.1,0.2,0,0.3c-0.3,0.4-0.7,0.8-1.3,1C133.9,116.9,133.3,117,132.6,117z M134.9,112c0.1,0,0.1,0,0.1-0.1
				c0-0.3,0-0.5,0-0.7s-0.1-0.4-0.1-0.5c-0.2-0.5-0.4-0.9-0.8-1.2c-0.4-0.3-0.9-0.4-1.4-0.4c-0.6,0-1,0.1-1.4,0.4s-0.7,0.7-0.8,1.2
				c-0.1,0.2-0.1,0.3-0.1,0.5s0,0.4,0,0.7c0,0.1,0,0.1,0.1,0.1H134.9z"/>
			<path class="st0" d="M145.9,109.1c-0.5,0-0.9,0.1-1.3,0.2s-0.6,0.3-0.9,0.5c-0.1,0.1-0.2,0.1-0.3,0l-0.3-0.4
				c-0.1-0.1,0-0.2,0.1-0.3c0.3-0.3,0.7-0.5,1.1-0.6c0.4-0.1,1-0.2,1.6-0.2c0.5,0,1,0,1.4,0.1s0.7,0.3,1,0.5s0.4,0.5,0.6,0.9
				c0.1,0.4,0.2,0.8,0.2,1.3v5.7c0,0.1-0.1,0.2-0.2,0.2h-0.6c-0.1,0-0.2-0.1-0.2-0.2v-0.9l0,0c-0.2,0.4-0.5,0.7-0.9,0.9
				c-0.4,0.2-1,0.4-1.7,0.4c-0.9,0-1.5-0.2-2.1-0.6c-0.5-0.4-0.8-1.1-0.8-1.9c0-0.9,0.3-1.5,0.8-1.9c0.6-0.4,1.4-0.6,2.4-0.6h2.2
				c0.1,0,0.1,0,0.1-0.1V111c0-0.3,0-0.6-0.1-0.9s-0.2-0.5-0.4-0.6c-0.2-0.2-0.4-0.3-0.7-0.3C146.7,109.1,146.3,109.1,145.9,109.1z
				 M145.6,116.2c0.7,0,1.3-0.2,1.8-0.5c0.4-0.3,0.7-0.8,0.7-1.4V113c0-0.1,0-0.1-0.1-0.1h-2c-0.9,0-1.5,0.1-1.8,0.4
				c-0.4,0.3-0.6,0.7-0.6,1.3c0,0.5,0.2,0.9,0.5,1.2C144.4,116,144.9,116.2,145.6,116.2z"/>
			<path class="st0" d="M152.4,120.1c-0.1,0-0.2-0.1-0.2-0.2v-11.4c0-0.1,0.1-0.2,0.2-0.2h0.6c0.1,0,0.2,0.1,0.2,0.2v1l0,0
				c0.2-0.4,0.5-0.7,0.9-1s1-0.4,1.7-0.4c1.5,0,2.4,0.7,2.9,2c0.1,0.3,0.2,0.7,0.2,1.1s0.1,0.8,0.1,1.3s0,0.9-0.1,1.3
				c0,0.4-0.1,0.8-0.2,1.1c-0.5,1.4-1.4,2-2.9,2c-0.7,0-1.3-0.1-1.7-0.4s-0.7-0.6-0.9-1l0,0v4.3c0,0.1-0.1,0.2-0.2,0.2L152.4,120.1
				L152.4,120.1z M155.6,116.1c0.6,0,1-0.1,1.4-0.4s0.6-0.6,0.8-1.1c0.1-0.3,0.2-0.6,0.2-0.9s0-0.7,0-1.1s0-0.7,0-1.1
				c0-0.3-0.1-0.7-0.2-0.9c-0.2-0.5-0.4-0.9-0.8-1.1c-0.4-0.3-0.8-0.4-1.4-0.4c-0.5,0-1,0.1-1.4,0.4s-0.6,0.6-0.8,1.1
				c-0.1,0.2-0.1,0.5-0.2,0.8s-0.1,0.7-0.1,1.2s0,0.9,0.1,1.2c0,0.3,0.1,0.6,0.2,0.8c0.2,0.5,0.4,0.9,0.8,1.1
				C154.6,116,155.1,116.1,155.6,116.1z"/>
			<path class="st0" d="M161.9,120.1c-0.1,0-0.2-0.1-0.2-0.2v-11.4c0-0.1,0.1-0.2,0.2-0.2h0.6c0.1,0,0.2,0.1,0.2,0.2v1l0,0
				c0.2-0.4,0.5-0.7,0.9-1s1-0.4,1.7-0.4c1.5,0,2.4,0.7,2.9,2c0.1,0.3,0.2,0.7,0.2,1.1s0.1,0.8,0.1,1.3s0,0.9-0.1,1.3
				c0,0.4-0.1,0.8-0.2,1.1c-0.5,1.4-1.4,2-2.9,2c-0.7,0-1.3-0.1-1.7-0.4s-0.7-0.6-0.9-1l0,0v4.3c0,0.1-0.1,0.2-0.2,0.2L161.9,120.1
				L161.9,120.1z M165.1,116.1c0.6,0,1-0.1,1.4-0.4s0.6-0.6,0.8-1.1c0.1-0.3,0.2-0.6,0.2-0.9s0-0.7,0-1.1s0-0.7,0-1.1
				c0-0.3-0.1-0.7-0.2-0.9c-0.2-0.5-0.4-0.9-0.8-1.1c-0.4-0.3-0.8-0.4-1.4-0.4c-0.5,0-1,0.1-1.4,0.4s-0.6,0.6-0.8,1.1
				c-0.1,0.2-0.1,0.5-0.2,0.8s-0.1,0.7-0.1,1.2s0,0.9,0.1,1.2c0,0.3,0.1,0.6,0.2,0.8c0.2,0.5,0.4,0.9,0.8,1.1
				C164.1,116,164.6,116.1,165.1,116.1z"/>
		</g>
	</g>
</g>
</svg>
