<?xml version="1.0" encoding="utf-8"?>
<!-- Generator: Adobe Illustrator 23.0.0, SVG Export Plug-In . SVG Version: 6.00 Build 0)  -->
<svg version="1.1" id="Layer_1" xmlns="http://www.w3.org/2000/svg" xmlns:xlink="http://www.w3.org/1999/xlink" x="0px" y="0px"
	 viewBox="0 0 230.4 208.2" style="enable-background:new 0 0 230.4 208.2;" xml:space="preserve">
<style type="text/css">
	.st0{fill:#1D4ED8;}
	.st1{fill:#FAFCFF;}
</style>
<rect x="2.7" y="148.8" class="st0" width="225.3" height="45.9"/>
<g>
	<path class="st1" d="M59.4,165.7c-1.2,0-2.1-0.1-2.8-0.3c-0.7-0.2-1.2-0.6-1.5-1c-0.3-0.4-0.5-0.9-0.5-1.4c0-0.4,0-0.8,0.1-1.2
		c0.1-0.4,0.2-0.7,0.3-1l1.5,0.3c-0.1,0.2-0.1,0.5-0.2,0.7c-0.1,0.3-0.1,0.5-0.1,0.7c0,0.3,0.1,0.6,0.3,0.8c0.2,0.2,0.6,0.4,1.1,0.5
		c0.5,0.1,1.1,0.2,2,0.2v0l0,0c0.6,0,1.1,0,1.7-0.1c0.5-0.1,1-0.2,1.5-0.3c0.5-0.2,0.9-0.4,1.4-0.7c0.4-0.3,0.8-0.8,1.2-1.3l1.3,0.6
		c0,0.2-0.1,0.3-0.1,0.4c0,0.1,0,0.3,0,0.3c0,0.3,0.1,0.5,0.3,0.7c0.2,0.2,0.6,0.2,1.2,0.2c0.3,0,0.5,0.1,0.6,0.2
		c0.1,0.2,0.2,0.4,0.2,0.6c0,0.2-0.1,0.5-0.2,0.6s-0.4,0.2-0.7,0.2c-0.7,0-1.3-0.1-1.8-0.4c-0.5-0.3-0.8-0.6-0.9-1
		c-0.6,0.5-1.4,0.9-2.5,1.2S60.7,165.7,59.4,165.7L59.4,165.7L59.4,165.7z M60.3,168.5c-0.2,0-0.4-0.1-0.6-0.2s-0.2-0.4-0.2-0.6
		c0-0.2,0.1-0.4,0.2-0.6s0.4-0.3,0.6-0.3c0.2,0,0.4,0.1,0.6,0.3s0.3,0.4,0.3,0.6c0,0.2-0.1,0.4-0.3,0.6S60.5,168.5,60.3,168.5z"/>
	<path class="st1" d="M68.1,165.5l0.1-1.7c0.4,0,0.6,0,0.8-0.1c0.2-0.1,0.3-0.2,0.3-0.4c0-0.2,0-0.5,0-0.9l-0.2-5.7h1.7l0.2,5.8
		c0,0.5,0,0.9-0.1,1.3c-0.1,0.4-0.2,0.7-0.4,1c-0.2,0.3-0.5,0.5-0.9,0.6C69.3,165.4,68.7,165.5,68.1,165.5z"/>
	<path class="st1" d="M75.4,165.5c-0.7,0-1.3-0.1-1.7-0.2c-0.4-0.2-0.7-0.4-0.9-0.7c-0.2-0.3-0.3-0.7-0.3-1.2l-0.3-6.7H74l0.3,5.9
		c0,0.4,0.1,0.6,0.1,0.8c0.1,0.2,0.2,0.3,0.4,0.4c0.2,0.1,0.4,0.1,0.8,0.1c0.3,0,0.5,0.1,0.6,0.2c0.1,0.2,0.2,0.4,0.2,0.6
		c0,0.2-0.1,0.5-0.3,0.6S75.7,165.5,75.4,165.5z"/>
	<path class="st1" d="M75.4,165.5l0.1-1.7h0.6c0.2-0.2,0.3-0.5,0.5-0.7l-0.2-6.4h1.7l0.2,4.7c0.5-0.4,0.9-0.7,1.4-0.9
		c0.5-0.2,1-0.3,1.5-0.3c0.5,0,1,0.1,1.4,0.3c0.4,0.2,0.7,0.5,0.9,0.9c0.2,0.4,0.3,0.8,0.3,1.3c0,0.5-0.1,1-0.4,1.4s-0.8,0.8-1.5,1
		c-0.3,0.1-0.6,0.2-1,0.3c-0.3,0.1-0.7,0.1-1.2,0.2c-0.5,0-1,0.1-1.7,0.1H75.4z M81.1,161.8c-0.4,0-0.7,0.1-1.1,0.3s-0.7,0.5-1,0.8
		c-0.3,0.3-0.6,0.7-0.9,1h0.1c1,0,1.8,0,2.4-0.2c0.6-0.1,1-0.2,1.2-0.4c0.2-0.2,0.3-0.4,0.3-0.6c0-0.2-0.1-0.4-0.2-0.6
		C81.7,161.8,81.5,161.8,81.1,161.8z M84.6,165.5c-0.6,0-1.2-0.1-1.7-0.2s-0.9-0.4-1.2-0.6l1.1-1.2c0.3,0.1,0.6,0.2,0.9,0.3
		s0.7,0.1,1.1,0.1c0.3,0,0.5,0.1,0.6,0.2c0.1,0.2,0.2,0.4,0.2,0.6c0,0.2-0.1,0.5-0.3,0.6S84.9,165.5,84.6,165.5z"/>
	<path class="st1" d="M84.6,165.5l0.1-1.7c0.4,0,0.6,0,0.8-0.1c0.2-0.1,0.3-0.2,0.3-0.4c0-0.2,0-0.5,0-0.9l-0.2-5.7h1.7l0.2,5.8
		c0,0.5,0,0.9-0.1,1.3c-0.1,0.4-0.2,0.7-0.4,1c-0.2,0.3-0.5,0.5-0.9,0.6C85.8,165.4,85.3,165.5,84.6,165.5z"/>
	<path class="st1" d="M89.1,165.5l-0.3-8.8h1.7l0.3,8.8H89.1z"/>
	<path class="st1" d="M94.9,165.1c0-0.3,0-0.6,0.1-1c0.1-0.4,0.2-0.9,0.5-1.5l1.5,0.5c-0.1,0.4-0.2,0.7-0.3,1
		c-0.1,0.3-0.1,0.5-0.1,0.8c0,0.5,0.2,0.9,0.6,1.2s1,0.5,1.8,0.5c0.6,0,1.1-0.1,1.6-0.2c0.4-0.1,0.8-0.3,1-0.5
		c0.2-0.2,0.3-0.4,0.3-0.5c0-0.1-0.1-0.2-0.3-0.3c-0.2-0.1-0.4-0.2-0.7-0.3c-0.3-0.1-0.6-0.2-0.8-0.4c-0.3-0.1-0.5-0.3-0.7-0.6
		c-0.2-0.2-0.3-0.5-0.3-0.9c0-0.3,0.1-0.6,0.2-1s0.4-0.7,0.7-1c0.3-0.3,0.6-0.6,1.1-0.8c0.4-0.2,0.9-0.3,1.4-0.3
		c0.4,0,0.7,0.1,1,0.2c0.3,0.1,0.5,0.2,0.7,0.4l-0.6,1.4c-0.4-0.2-0.7-0.3-1.1-0.3c-0.3,0-0.6,0.1-0.8,0.2c-0.3,0.1-0.5,0.3-0.6,0.5
		c-0.2,0.2-0.2,0.4-0.2,0.6c0,0.1,0.1,0.3,0.2,0.4c0.1,0.1,0.3,0.2,0.5,0.3c0.2,0.1,0.5,0.2,0.7,0.3s0.5,0.2,0.7,0.3
		s0.4,0.3,0.5,0.4c0.1,0.2,0.2,0.4,0.2,0.6c0,0.4-0.1,0.7-0.3,1.1s-0.5,0.7-0.9,1c-0.4,0.3-0.9,0.6-1.5,0.8
		c-0.6,0.2-1.3,0.3-2.1,0.3c-0.8,0-1.5-0.1-2-0.3c-0.6-0.2-1.1-0.6-1.4-1C95,166.4,94.9,165.8,94.9,165.1z M97.8,171
		c-0.2,0-0.4-0.1-0.6-0.2s-0.2-0.4-0.2-0.6c0-0.2,0.1-0.4,0.2-0.6s0.4-0.3,0.6-0.3c0.2,0,0.4,0.1,0.6,0.3c0.2,0.2,0.2,0.4,0.2,0.6
		c0,0.2-0.1,0.4-0.2,0.6C98.2,170.9,98.1,171,97.8,171z M99.9,171c-0.2,0-0.4-0.1-0.6-0.2s-0.2-0.4-0.2-0.6c0-0.2,0.1-0.4,0.2-0.6
		s0.4-0.3,0.6-0.3c0.2,0,0.4,0.1,0.6,0.3s0.2,0.4,0.2,0.6c0,0.2-0.1,0.4-0.2,0.6S100.1,171,99.9,171z"/>
	<path class="st1" d="M104.6,168.2l-0.6-1.5c0.6-0.2,1.1-0.4,1.5-0.7c0.4-0.3,0.8-0.6,1-0.9c0.3-0.3,0.4-0.7,0.4-1.2
		c0-0.3-0.1-0.7-0.2-1.1s-0.3-0.8-0.6-1.2l1.6-0.8c0.1,0.2,0.3,0.5,0.4,0.8c0.1,0.3,0.2,0.5,0.3,0.8c0.1,0.2,0.1,0.4,0.1,0.5
		c0.1,0.4,0.3,0.6,0.5,0.8c0.2,0.1,0.5,0.2,1,0.2c0.3,0,0.5,0.1,0.6,0.2c0.1,0.2,0.2,0.4,0.2,0.6c0,0.2-0.1,0.5-0.3,0.6
		s-0.4,0.2-0.7,0.2c-0.6,0-1.1-0.2-1.4-0.5c-0.1,0.5-0.4,1-0.8,1.4c-0.4,0.4-0.8,0.8-1.4,1.1C105.7,167.8,105.2,168.1,104.6,168.2z
		 M107,159.6c-0.2,0-0.5-0.1-0.6-0.3c-0.2-0.2-0.3-0.4-0.3-0.6s0.1-0.5,0.3-0.6c0.2-0.2,0.4-0.3,0.6-0.3c0.2,0,0.4,0.1,0.6,0.3
		c0.2,0.2,0.3,0.4,0.3,0.6s-0.1,0.5-0.3,0.6C107.5,159.6,107.3,159.6,107,159.6z"/>
	<path class="st1" d="M109.8,165.5l0.1-1.7c0.5,0,0.8,0,1.1-0.1s0.4-0.1,0.5-0.3c0.1-0.1,0.2-0.3,0.2-0.6c0-0.2,0-0.5-0.1-0.8
		c-0.1-0.3-0.1-0.6-0.2-1c-0.1-0.3-0.2-0.6-0.3-0.9l1.7-0.5c0.1,0.3,0.2,0.6,0.3,0.9c0.1,0.4,0.2,0.7,0.2,1.1
		c0.1,0.4,0.1,0.7,0.1,1.1c0,0.5-0.1,1-0.3,1.3c-0.2,0.3-0.4,0.6-0.7,0.8c-0.3,0.2-0.7,0.3-1.1,0.4
		C110.8,165.5,110.3,165.5,109.8,165.5z M110.7,168.3c-0.2,0-0.4-0.1-0.6-0.2s-0.2-0.4-0.2-0.6s0.1-0.4,0.2-0.6s0.4-0.3,0.6-0.3
		c0.2,0,0.4,0.1,0.6,0.3s0.2,0.4,0.2,0.6s-0.1,0.4-0.2,0.6S110.9,168.3,110.7,168.3z M112.8,168.3c-0.2,0-0.4-0.1-0.6-0.2
		c-0.2-0.2-0.2-0.4-0.2-0.6s0.1-0.4,0.2-0.6c0.2-0.2,0.4-0.3,0.6-0.3c0.2,0,0.4,0.1,0.6,0.3c0.2,0.2,0.2,0.4,0.2,0.6
		s-0.1,0.4-0.2,0.6C113.2,168.2,113,168.3,112.8,168.3z"/>
	<path class="st1" d="M114.3,168.2l-0.6-1.5c0.6-0.2,1.1-0.4,1.5-0.7c0.4-0.3,0.8-0.6,1-0.9c0.3-0.3,0.4-0.7,0.4-1.2
		c0-0.3-0.1-0.7-0.2-1.1c-0.2-0.4-0.3-0.8-0.6-1.2l1.6-0.8c0.1,0.2,0.3,0.5,0.4,0.8c0.1,0.3,0.2,0.5,0.3,0.8s0.1,0.4,0.1,0.5
		c0.1,0.4,0.3,0.6,0.5,0.8c0.2,0.1,0.5,0.2,1,0.2c0.3,0,0.5,0.1,0.6,0.2c0.1,0.2,0.2,0.4,0.2,0.6c0,0.2-0.1,0.5-0.3,0.6
		s-0.4,0.2-0.7,0.2c-0.6,0-1.1-0.2-1.4-0.5c-0.1,0.5-0.4,1-0.8,1.4c-0.4,0.4-0.8,0.8-1.4,1.1C115.4,167.8,114.9,168.1,114.3,168.2z
		 M116.7,159.6c-0.2,0-0.5-0.1-0.6-0.3c-0.2-0.2-0.3-0.4-0.3-0.6s0.1-0.5,0.3-0.6c0.2-0.2,0.4-0.3,0.6-0.3c0.2,0,0.4,0.1,0.6,0.3
		c0.2,0.2,0.3,0.4,0.3,0.6s-0.1,0.5-0.3,0.6C117.2,159.6,117,159.6,116.7,159.6z"/>
	<path class="st1" d="M119.5,165.5l0.1-1.7c0.4,0,0.7,0,0.9,0c0.2,0,0.4,0,0.5,0c0.1,0,0.2,0,0.3,0c-0.1-0.1-0.2-0.2-0.3-0.3
		s-0.2-0.3-0.3-0.6c-0.1-0.2-0.1-0.5-0.1-0.9c0-0.5,0.1-0.9,0.4-1.3s0.6-0.7,1-0.9c0.4-0.2,0.9-0.3,1.5-0.3c0.5,0,0.9,0.1,1.4,0.2
		l-0.3,1.6c-0.2,0-0.3-0.1-0.5-0.1c-0.2,0-0.3,0-0.5,0c-0.4,0-0.7,0.1-1,0.3c-0.2,0.2-0.4,0.4-0.4,0.7c0,0.2,0.1,0.4,0.2,0.6
		c0.1,0.2,0.3,0.3,0.5,0.4c0.2,0.1,0.3,0.2,0.4,0.2c0.3-0.1,0.5-0.1,0.7-0.2c0.2-0.1,0.4-0.1,0.6-0.2c0.2-0.1,0.5-0.2,0.8-0.3
		l0.5,1.6c-0.7,0.3-1.3,0.6-2,0.8c-0.6,0.2-1.3,0.3-2,0.4C121.1,165.5,120.3,165.5,119.5,165.5z"/>
	<path class="st1" d="M134.4,165.7c-1.2,0-2.1-0.1-2.8-0.3c-0.7-0.2-1.2-0.6-1.5-1c-0.3-0.4-0.5-0.9-0.5-1.4c0-0.4,0-0.8,0.1-1.2
		c0.1-0.4,0.2-0.7,0.3-1l1.5,0.3c-0.1,0.2-0.1,0.5-0.2,0.7c-0.1,0.3-0.1,0.5-0.1,0.7c0,0.3,0.1,0.6,0.3,0.8c0.2,0.2,0.6,0.4,1,0.5
		s1.1,0.2,2,0.2c0.8,0,1.4,0,1.8-0.1c0.5-0.1,0.8-0.2,1.1-0.3c0.2-0.1,0.4-0.4,0.5-0.6c0.1-0.3,0.1-0.6,0.1-1.1l-0.3-5.3h1.7
		l0.3,5.4c0,0.5,0.1,0.8,0.2,1.1c0.1,0.3,0.2,0.4,0.4,0.5c0.2,0.1,0.4,0.2,0.7,0.2c0.3,0,0.5,0.1,0.6,0.2c0.1,0.2,0.2,0.4,0.2,0.6
		c0,0.2-0.1,0.5-0.3,0.6s-0.4,0.2-0.7,0.2c-0.4,0-0.8-0.1-1.1-0.2c-0.3-0.1-0.6-0.4-0.7-0.7c-0.3,0.3-0.7,0.6-1.1,0.8
		c-0.5,0.2-1,0.3-1.6,0.3C135.8,165.7,135.1,165.7,134.4,165.7z M133.8,162.9l-0.3-1.2c0.4-0.1,0.7-0.2,0.9-0.3
		c0.2-0.1,0.3-0.2,0.3-0.3c0-0.1-0.1-0.2-0.2-0.3c-0.1-0.1-0.2-0.3-0.3-0.4c-0.1-0.2-0.2-0.3-0.2-0.6c0-0.3,0.1-0.6,0.4-0.8
		c0.3-0.3,0.7-0.5,1.3-0.8l0.5,1.1c-0.3,0.1-0.6,0.3-0.7,0.4c-0.1,0.1-0.2,0.2-0.2,0.3c0,0.1,0.1,0.2,0.2,0.4
		c0.1,0.1,0.2,0.3,0.4,0.5s0.2,0.4,0.2,0.6c0,0.2,0,0.4-0.1,0.5c-0.1,0.2-0.3,0.3-0.6,0.5S134.5,162.7,133.8,162.9z"/>
	<path class="st1" d="M141,165.5l0.1-1.7c0.5,0,0.9-0.1,1.1-0.2s0.3-0.4,0.3-0.7c0-0.2,0-0.5-0.1-0.8c-0.1-0.3-0.1-0.6-0.2-1
		s-0.2-0.6-0.3-0.9l1.7-0.5c0.1,0.3,0.2,0.6,0.3,0.9c0.1,0.4,0.2,0.7,0.2,1.1c0.1,0.4,0.1,0.7,0.1,1.1c0,0.5-0.1,1-0.3,1.3
		s-0.4,0.6-0.7,0.8c-0.3,0.2-0.6,0.3-1,0.4C141.8,165.5,141.4,165.5,141,165.5z M142.5,168.3c-0.2,0-0.4-0.1-0.6-0.2
		c-0.2-0.2-0.2-0.4-0.2-0.6c0-0.2,0.1-0.4,0.2-0.6s0.4-0.3,0.6-0.3c0.2,0,0.4,0.1,0.6,0.3s0.3,0.4,0.3,0.6c0,0.2-0.1,0.4-0.3,0.6
		C142.9,168.2,142.7,168.3,142.5,168.3z"/>
	<path class="st1" d="M148.1,153.8V153l2.8-0.8v0.9L148.1,153.8z M148.1,155.1v-0.8l2.8-0.8v0.9L148.1,155.1z"/>
	<path class="st1" d="M151.7,165.5c-0.7,0-1.3-0.1-1.7-0.2c-0.4-0.2-0.7-0.4-0.9-0.7c-0.2-0.3-0.3-0.7-0.3-1.2l-0.3-6.7h1.7l0.3,5.9
		c0,0.4,0.1,0.6,0.1,0.8c0.1,0.2,0.2,0.3,0.4,0.4c0.2,0.1,0.4,0.1,0.8,0.1c0.3,0,0.5,0.1,0.6,0.2c0.1,0.2,0.2,0.4,0.2,0.6
		c0,0.2-0.1,0.5-0.3,0.6S152,165.5,151.7,165.5z"/>
	<path class="st1" d="M151.7,165.5l0.1-1.7c0.3,0,0.5,0,0.7-0.1s0.3-0.2,0.4-0.3c0.1-0.2,0.2-0.4,0.3-0.8s0.2-0.8,0.2-1.3l1.6,0.3
		c0,0.2-0.1,0.4-0.1,0.7c0,0.3-0.1,0.5-0.1,0.7c0,0.2,0,0.4,0.1,0.5s0.2,0.2,0.5,0.3c0.2,0.1,0.5,0.1,1,0.1c0.3,0,0.5,0.1,0.6,0.2
		c0.1,0.2,0.2,0.4,0.2,0.6c0,0.2-0.1,0.5-0.2,0.6s-0.4,0.2-0.7,0.2c-0.6,0-1.1-0.1-1.5-0.2c-0.4-0.1-0.6-0.4-0.8-0.7
		c-0.3,0.4-0.6,0.7-1,0.8C152.6,165.5,152.2,165.5,151.7,165.5z M153.9,168.3c-0.2,0-0.4-0.1-0.6-0.2c-0.2-0.2-0.2-0.4-0.2-0.6
		c0-0.2,0.1-0.4,0.2-0.6s0.4-0.3,0.6-0.3c0.2,0,0.4,0.1,0.6,0.3s0.3,0.4,0.3,0.6c0,0.2-0.1,0.4-0.3,0.6
		C154.3,168.2,154.1,168.3,153.9,168.3z"/>
	<path class="st1" d="M156.3,165.5l0.1-1.7c0.9,0,1.7-0.1,2.5-0.3c0.8-0.2,1.5-0.5,2.2-0.9c-0.4-0.2-0.8-0.4-1.2-0.5
		c-0.4-0.1-0.9-0.2-1.5-0.2c-0.2,0-0.4,0-0.6,0c-0.2,0-0.4,0.1-0.6,0.1l-0.2-1.6c0.2-0.1,0.5-0.1,0.7-0.1s0.5,0,0.7,0
		c0.5,0,1,0.1,1.5,0.2c0.4,0.1,0.8,0.3,1.2,0.5c0.4,0.2,0.7,0.4,1,0.5c0.3,0.1,0.6,0.2,0.9,0.2h0.4l0.2,1.6c-0.4,0-0.7,0.1-1,0.2
		c-0.3,0.1-0.6,0.3-0.9,0.4s-0.6,0.3-0.9,0.5c-0.3,0.2-0.7,0.4-1.1,0.5s-0.9,0.3-1.4,0.4C157.7,165.5,157.1,165.5,156.3,165.5z"/>
	<path class="st1" d="M164.1,168.2l-0.6-1.5c0.6-0.2,1.1-0.4,1.5-0.7c0.4-0.3,0.8-0.6,1-0.9c0.3-0.3,0.4-0.7,0.4-1.2
		c0-0.3-0.1-0.7-0.2-1.1c-0.2-0.4-0.3-0.8-0.6-1.2l1.6-0.8c0.1,0.2,0.3,0.5,0.4,0.8c0.1,0.3,0.2,0.5,0.3,0.8s0.1,0.4,0.1,0.5
		c0.1,0.4,0.3,0.6,0.5,0.8c0.2,0.1,0.5,0.2,1,0.2c0.3,0,0.5,0.1,0.6,0.2c0.1,0.2,0.2,0.4,0.2,0.6c0,0.2-0.1,0.5-0.3,0.6
		s-0.4,0.2-0.7,0.2c-0.6,0-1.1-0.2-1.4-0.5c-0.1,0.5-0.4,1-0.8,1.4c-0.4,0.4-0.8,0.8-1.4,1.1C165.2,167.8,164.7,168.1,164.1,168.2z"
		/>
	<path class="st1" d="M169.3,165.5l0.1-1.7c0.2,0,0.3,0,0.5-0.1c0.1-0.1,0.3-0.2,0.4-0.5c0.1-0.2,0.3-0.5,0.5-0.9
		c0.4-0.7,0.7-1.2,1.1-1.5c0.4-0.3,0.8-0.4,1.2-0.4c0.5,0,0.9,0.1,1.3,0.4s0.7,0.6,0.9,1s0.3,0.9,0.3,1.3c0,0.4-0.1,0.8-0.3,1.1
		c-0.2,0.3-0.4,0.6-0.7,0.8c-0.3,0.2-0.7,0.3-1.1,0.3c-0.3,0-0.7,0-1-0.1c-0.4-0.1-0.8-0.3-1.2-0.6c-0.2,0.3-0.5,0.5-0.8,0.6
		C170.2,165.5,169.8,165.5,169.3,165.5z M173.1,162.1c-0.2,0-0.4,0.1-0.6,0.3c-0.1,0.2-0.3,0.5-0.5,0.9c0.2,0.1,0.5,0.2,0.7,0.3
		c0.2,0.1,0.4,0.1,0.5,0.1c0.2,0,0.4,0,0.5-0.1c0.1-0.1,0.2-0.2,0.2-0.4c0-0.2,0-0.3-0.1-0.5c-0.1-0.2-0.2-0.3-0.3-0.5
		C173.5,162.2,173.3,162.1,173.1,162.1z"/>
</g>
<g>
	<path class="st1" d="M36.3,180.9c-1.2,0-2.1-0.1-2.8-0.3c-0.7-0.2-1.2-0.6-1.5-1c-0.3-0.4-0.5-0.9-0.5-1.4c0-0.4,0-0.8,0.1-1.2
		c0.1-0.4,0.2-0.7,0.3-1l1.5,0.3c-0.1,0.2-0.1,0.5-0.2,0.7c-0.1,0.3-0.1,0.5-0.1,0.7c0,0.3,0.1,0.6,0.3,0.8c0.2,0.2,0.6,0.4,1.1,0.5
		c0.5,0.1,1.1,0.2,2,0.2c1.4,0,2.4,0,3.1-0.1c0.7-0.1,1.1-0.2,1.3-0.4c0.1-0.1,0.2-0.3,0.2-0.5c-0.3,0.1-0.7,0.2-1.1,0.2
		c-0.6,0-1.1-0.1-1.5-0.4c-0.4-0.3-0.6-0.7-0.6-1.4c0-0.4,0.1-0.7,0.2-1s0.3-0.7,0.5-0.9c0.2-0.3,0.5-0.5,0.8-0.7
		c0.3-0.2,0.6-0.3,1-0.3c0.5,0,1,0.2,1.4,0.5c0.4,0.3,0.6,0.7,0.8,1.3c0.2,0.5,0.3,1.1,0.3,1.8c0,0.6-0.1,1.1-0.2,1.6
		s-0.3,0.9-0.5,1.1c-0.3,0.4-1,0.6-2,0.8C39.3,180.9,37.9,180.9,36.3,180.9z M40.6,172.6c-0.2,0-0.5-0.1-0.6-0.3s-0.3-0.4-0.3-0.6
		s0.1-0.5,0.3-0.6s0.4-0.3,0.6-0.3c0.2,0,0.4,0.1,0.6,0.3s0.3,0.4,0.3,0.6s-0.1,0.5-0.3,0.6S40.8,172.6,40.6,172.6z M39.7,176.3
		c0,0.3,0.3,0.5,0.8,0.5c0.2,0,0.5,0,0.7-0.1c-0.1-0.9-0.3-1.4-0.8-1.4c-0.2,0-0.4,0.1-0.5,0.3C39.8,175.8,39.7,176.1,39.7,176.3z"
		/>
	<path class="st1" d="M44.4,180.7l-0.3-8.8h1.7l0.3,8.8H44.4z"/>
	<path class="st1" d="M46.9,183.4l-0.6-1.5c0.6-0.2,1.1-0.4,1.5-0.7c0.4-0.3,0.8-0.6,1-0.9c0.3-0.3,0.4-0.7,0.4-1.2
		c0-0.3-0.1-0.7-0.2-1.1s-0.3-0.8-0.6-1.2l1.6-0.8c0.1,0.2,0.3,0.5,0.4,0.8c0.1,0.3,0.2,0.5,0.3,0.8c0.1,0.2,0.1,0.4,0.1,0.5
		c0.1,0.4,0.3,0.6,0.5,0.8c0.2,0.1,0.5,0.2,1,0.2c0.3,0,0.5,0.1,0.6,0.2c0.1,0.2,0.2,0.4,0.2,0.6c0,0.2-0.1,0.5-0.3,0.6
		s-0.4,0.2-0.7,0.2c-0.6,0-1.1-0.2-1.4-0.5c-0.1,0.5-0.4,1-0.8,1.4c-0.4,0.4-0.8,0.8-1.4,1.1C48.1,183,47.5,183.3,46.9,183.4z"/>
	<path class="st1" d="M58.3,180.9c-0.9,0-1.6,0-2.1-0.1c-0.5-0.1-0.9-0.2-1.2-0.4c-0.3-0.2-0.5-0.4-0.7-0.6c-0.3,0.4-0.6,0.7-1,0.8
		c-0.4,0.1-0.8,0.2-1.2,0.2l0.1-1.7c0.3,0,0.6-0.1,0.7-0.2c0.2-0.1,0.3-0.4,0.4-0.7s0.2-0.8,0.4-1.4l1.5,0.4
		c-0.2,0.6-0.3,1.1-0.3,1.3c0,0.2,0,0.3,0.1,0.5s0.3,0.2,0.6,0.3c0.3-0.5,0.7-0.9,1-1.4c0.4-0.4,0.8-0.8,1.2-1.2
		c0.4-0.3,0.9-0.6,1.3-0.8c0.5-0.2,0.9-0.3,1.4-0.3c0.8,0,1.4,0.2,1.9,0.7c0.4,0.5,0.7,1,0.7,1.8c0,0.6-0.2,1.1-0.5,1.5
		c-0.3,0.4-0.9,0.8-1.6,1.1S59.6,180.9,58.3,180.9z M60.7,177.1c-0.4,0-0.7,0.1-1.1,0.3s-0.7,0.5-1,0.8c-0.3,0.3-0.6,0.7-0.9,1
		c0.1,0,0.2,0,0.4,0c0.9,0,1.6,0,2.2-0.1c0.5-0.1,0.9-0.2,1.1-0.4s0.3-0.4,0.3-0.7c0-0.2-0.1-0.4-0.2-0.6
		C61.3,177.2,61,177.1,60.7,177.1z M64.2,180.7c-0.6,0-1.2-0.1-1.7-0.2c-0.5-0.2-0.9-0.4-1.2-0.6l1.1-1.2c0.3,0.1,0.6,0.2,0.9,0.3
		c0.3,0.1,0.7,0.1,1.1,0.1c0.3,0,0.5,0.1,0.6,0.2c0.1,0.2,0.2,0.4,0.2,0.6c0,0.2-0.1,0.5-0.3,0.6S64.5,180.7,64.2,180.7z"/>
	<path class="st1" d="M64.2,180.7l0.1-1.7c0.5,0,0.9-0.1,1.1-0.2s0.3-0.4,0.3-0.7c0-0.2,0-0.5-0.1-0.8c-0.1-0.3-0.1-0.6-0.2-1
		c-0.1-0.3-0.2-0.6-0.3-0.9l1.7-0.5c0.1,0.3,0.2,0.6,0.3,0.9s0.2,0.7,0.2,1.1s0.1,0.7,0.1,1.1c0,0.5-0.1,1-0.3,1.3s-0.4,0.6-0.7,0.8
		c-0.3,0.2-0.6,0.3-1,0.4C65,180.7,64.6,180.7,64.2,180.7z M65.9,174c-0.2,0-0.5-0.1-0.6-0.3c-0.2-0.2-0.3-0.4-0.3-0.6
		s0.1-0.5,0.3-0.6c0.2-0.2,0.4-0.3,0.6-0.3c0.2,0,0.4,0.1,0.6,0.3c0.2,0.2,0.3,0.4,0.3,0.6s-0.1,0.5-0.3,0.6
		C66.4,173.9,66.1,174,65.9,174z"/>
	<path class="st1" d="M68.9,184.4l-0.2-0.8c0.3,0,0.5-0.1,0.6-0.1c-0.1-0.1-0.3-0.2-0.4-0.4s-0.2-0.4-0.2-0.6c0-0.3,0.1-0.5,0.2-0.7
		s0.3-0.3,0.5-0.4c0.2-0.1,0.4-0.1,0.6-0.1c0.2,0,0.4,0,0.6,0.1l-0.1,0.9c-0.1,0-0.2,0-0.2,0c-0.1,0-0.2,0-0.3,0
		c-0.1,0-0.2,0-0.3,0.1c-0.1,0.1-0.1,0.1-0.1,0.2c0,0.2,0.1,0.3,0.2,0.4c0.1,0.1,0.3,0.2,0.4,0.2c0.3-0.1,0.5-0.2,0.7-0.2l0.2,0.8
		c-0.3,0.1-0.7,0.2-1.1,0.4S69.3,184.3,68.9,184.4z M68.9,180.7l-0.3-8.8h1.7l0.3,8.8H68.9z"/>
	<path class="st1" d="M74.7,180.3c0-0.3,0-0.6,0.1-1c0.1-0.4,0.2-0.9,0.5-1.5l1.5,0.5c-0.1,0.4-0.2,0.7-0.3,1
		c-0.1,0.3-0.1,0.5-0.1,0.8c0,0.5,0.2,0.9,0.7,1.3c0.5,0.3,1.1,0.5,2,0.5c0.9,0,1.6-0.1,2.1-0.2s0.8-0.4,0.8-0.7
		c0-0.1-0.1-0.3-0.3-0.4s-0.6-0.3-1.1-0.5l0.4-1.7c0.7,0.3,1.3,0.5,1.9,0.6s1.1,0.2,1.5,0.2c0.3,0,0.5,0.1,0.6,0.2
		c0.1,0.2,0.2,0.4,0.2,0.6c0,0.2-0.1,0.5-0.3,0.6s-0.4,0.2-0.7,0.2h-0.6c0,0.1,0,0.2,0,0.2c0,0.1,0,0.1,0,0.2c0,0.3-0.1,0.5-0.3,0.8
		c-0.2,0.3-0.5,0.5-0.8,0.8c-0.4,0.2-0.9,0.4-1.4,0.6c-0.6,0.1-1.3,0.2-2.1,0.2c-1.3,0-2.3-0.3-3.1-0.8S74.7,181.4,74.7,180.3z
		 M77.9,186.2c-0.2,0-0.4-0.1-0.6-0.2c-0.2-0.2-0.2-0.4-0.2-0.6c0-0.2,0.1-0.4,0.2-0.6c0.2-0.2,0.4-0.3,0.6-0.3
		c0.2,0,0.4,0.1,0.6,0.3c0.2,0.2,0.2,0.4,0.2,0.6c0,0.2-0.1,0.4-0.2,0.6C78.4,186.2,78.2,186.2,77.9,186.2z M80,186.2
		c-0.2,0-0.4-0.1-0.6-0.2s-0.2-0.4-0.2-0.6c0-0.2,0.1-0.4,0.2-0.6s0.4-0.3,0.6-0.3c0.2,0,0.4,0.1,0.6,0.3s0.2,0.4,0.2,0.6
		c0,0.2-0.1,0.4-0.2,0.6S80.2,186.2,80,186.2z"/>
	<path class="st1" d="M84,180.7l0.1-1.7c0.7,0,1.2,0,1.6,0c0.4,0,0.7,0,1-0.1c0.2,0,0.4-0.1,0.5-0.1c0.1,0,0.2-0.1,0.3-0.2
		c0.1,0,0.1-0.1,0.2-0.2c0.1-0.1,0.1-0.2,0.1-0.3c-0.3,0.1-0.7,0.2-1,0.2c-0.6,0-1.1-0.1-1.5-0.4c-0.4-0.3-0.6-0.7-0.6-1.4
		c0-0.4,0.1-0.7,0.2-1s0.3-0.7,0.5-0.9c0.2-0.3,0.5-0.5,0.8-0.7c0.3-0.2,0.6-0.3,1-0.3c0.5,0,1,0.2,1.4,0.5c0.4,0.3,0.6,0.7,0.8,1.3
		s0.3,1.1,0.3,1.8c0,0.6-0.1,1.1-0.3,1.5s-0.4,0.8-0.6,1c-0.2,0.2-0.4,0.4-0.7,0.5c-0.2,0.1-0.6,0.2-0.9,0.3s-0.8,0.1-1.3,0.2
		C85.3,180.7,84.7,180.7,84,180.7z M87.1,172.6c-0.2,0-0.5-0.1-0.6-0.3c-0.2-0.2-0.3-0.4-0.3-0.6s0.1-0.5,0.3-0.6
		c0.2-0.2,0.4-0.3,0.6-0.3c0.2,0,0.4,0.1,0.6,0.3c0.2,0.2,0.3,0.4,0.3,0.6s-0.1,0.5-0.3,0.6C87.6,172.5,87.4,172.6,87.1,172.6z
		 M86.3,176.3c0,0.3,0.3,0.5,0.8,0.5c0.3,0,0.5,0,0.8-0.1c0-0.4-0.1-0.8-0.3-1s-0.3-0.3-0.6-0.3c-0.2,0-0.4,0.1-0.5,0.3
		C86.4,175.8,86.3,176.1,86.3,176.3z"/>
	<path class="st1" d="M93.4,183.4l-0.6-1.5c0.6-0.2,1.1-0.4,1.5-0.7c0.4-0.3,0.8-0.6,1-0.9c0.3-0.3,0.4-0.7,0.4-1.2
		c0-0.3-0.1-0.7-0.2-1.1s-0.3-0.8-0.6-1.2l1.6-0.8c0.1,0.2,0.3,0.5,0.4,0.8c0.1,0.3,0.2,0.5,0.3,0.8c0.1,0.2,0.1,0.4,0.1,0.5
		c0.1,0.4,0.3,0.6,0.5,0.8c0.2,0.1,0.5,0.2,1,0.2c0.3,0,0.5,0.1,0.6,0.2c0.1,0.2,0.2,0.4,0.2,0.6c0,0.2-0.1,0.5-0.3,0.6
		s-0.4,0.2-0.7,0.2c-0.6,0-1.1-0.2-1.4-0.5c-0.1,0.5-0.4,1-0.8,1.4c-0.4,0.4-0.8,0.8-1.4,1.1C94.5,183,93.9,183.3,93.4,183.4z"/>
	<path class="st1" d="M98.6,180.7l0.1-1.7c0.3,0,0.5,0,0.7-0.1s0.4-0.2,0.5-0.3s0.3-0.4,0.4-0.8s0.2-0.8,0.3-1.3l1.6,0.3
		c0,0.2-0.1,0.4-0.1,0.7c0,0.3-0.1,0.5-0.1,0.7c0,0.3,0.1,0.5,0.4,0.7c0.2,0.2,0.7,0.2,1.2,0.2c0.3,0,0.5,0.1,0.6,0.2
		c0.1,0.2,0.2,0.4,0.2,0.6c0,0.2-0.1,0.5-0.2,0.6c-0.2,0.2-0.4,0.2-0.7,0.2c-0.6,0-1-0.1-1.4-0.2s-0.7-0.4-0.9-0.8
		c-0.2,0.3-0.5,0.5-0.8,0.6s-0.6,0.2-0.9,0.3C99.2,180.7,98.9,180.7,98.6,180.7z M99.8,183.5c-0.2,0-0.4-0.1-0.6-0.2
		c-0.2-0.2-0.2-0.4-0.2-0.6s0.1-0.4,0.2-0.6c0.2-0.2,0.4-0.3,0.6-0.3c0.2,0,0.4,0.1,0.6,0.3c0.2,0.2,0.2,0.4,0.2,0.6
		s-0.1,0.4-0.2,0.6C100.2,183.4,100.1,183.5,99.8,183.5z M101.9,183.5c-0.2,0-0.4-0.1-0.6-0.2s-0.2-0.4-0.2-0.6s0.1-0.4,0.2-0.6
		s0.4-0.3,0.6-0.3c0.2,0,0.4,0.1,0.6,0.3s0.2,0.4,0.2,0.6s-0.1,0.4-0.2,0.6S102.1,183.5,101.9,183.5z"/>
	<path class="st1" d="M109.7,180.9c-0.9,0-1.6,0-2.1-0.1c-0.5-0.1-0.9-0.2-1.2-0.4c-0.3-0.2-0.5-0.4-0.7-0.6c-0.3,0.4-0.6,0.7-1,0.8
		c-0.4,0.1-0.8,0.2-1.2,0.2l0.1-1.7c0.3,0,0.6-0.1,0.7-0.2c0.2-0.1,0.3-0.4,0.4-0.7s0.2-0.8,0.4-1.4l1.5,0.4
		c-0.2,0.6-0.3,1.1-0.3,1.3c0,0.2,0,0.3,0.1,0.5s0.3,0.2,0.6,0.3c0.3-0.5,0.7-0.9,1-1.4c0.4-0.4,0.8-0.8,1.2-1.2s0.9-0.6,1.3-0.8
		c0.5-0.2,0.9-0.3,1.4-0.3c0.8,0,1.4,0.2,1.9,0.7s0.7,1,0.7,1.8c0,0.6-0.2,1.1-0.5,1.5c-0.3,0.4-0.9,0.8-1.6,1.1
		C111.9,180.8,110.9,180.9,109.7,180.9z M112,177.1c-0.4,0-0.7,0.1-1.1,0.3c-0.4,0.2-0.7,0.5-1,0.8c-0.3,0.3-0.6,0.7-0.9,1
		c0.1,0,0.2,0,0.4,0c0.9,0,1.6,0,2.2-0.1c0.5-0.1,0.9-0.2,1.1-0.4c0.2-0.2,0.3-0.4,0.3-0.7c0-0.2-0.1-0.4-0.2-0.6
		C112.6,177.2,112.3,177.1,112,177.1z M111.8,174.3c-0.2,0-0.5-0.1-0.6-0.3s-0.3-0.4-0.3-0.6s0.1-0.5,0.3-0.6
		c0.2-0.2,0.4-0.3,0.6-0.3c0.2,0,0.4,0.1,0.6,0.3c0.2,0.2,0.3,0.4,0.3,0.6s-0.1,0.5-0.3,0.6C112.3,174.3,112,174.3,111.8,174.3z
		 M115.5,180.7c-0.6,0-1.2-0.1-1.7-0.2c-0.5-0.2-0.9-0.4-1.2-0.6l1.1-1.2c0.3,0.1,0.6,0.2,0.9,0.3c0.3,0.1,0.7,0.1,1.1,0.1
		c0.3,0,0.5,0.1,0.6,0.2c0.1,0.2,0.2,0.4,0.2,0.6c0,0.2-0.1,0.5-0.3,0.6S115.8,180.7,115.5,180.7z"/>
	<path class="st1" d="M115.5,180.7l0.1-1.7c0.9,0,1.7-0.1,2.5-0.3c0.8-0.2,1.5-0.5,2.2-0.9c-0.4-0.2-0.8-0.4-1.2-0.5
		c-0.4-0.1-0.9-0.2-1.5-0.2c-0.2,0-0.4,0-0.6,0c-0.2,0-0.4,0.1-0.6,0.1l-0.2-1.6c0.2-0.1,0.5-0.1,0.7-0.1s0.5,0,0.7,0
		c0.5,0,1,0.1,1.5,0.2c0.4,0.1,0.8,0.3,1.2,0.5c0.4,0.2,0.7,0.4,1,0.5c0.3,0.1,0.6,0.2,0.9,0.2h0.4l0.2,1.6c-0.2,0-0.3,0-0.5,0.1
		s-0.3,0.1-0.5,0.1c0.2,0.1,0.4,0.2,0.7,0.3s0.6,0.1,1,0.1c0.3,0,0.5,0.1,0.6,0.2c0.1,0.2,0.2,0.4,0.2,0.6c0,0.2-0.1,0.5-0.2,0.6
		s-0.4,0.2-0.7,0.2c-0.6,0-1.2-0.1-1.7-0.3c-0.5-0.2-0.9-0.5-1.2-1.1c-0.4,0.2-0.8,0.4-1.2,0.6c-0.4,0.2-1,0.4-1.6,0.5
		C117.1,180.7,116.4,180.7,115.5,180.7z"/>
	<path class="st1" d="M123.4,180.7l0.1-1.7c0.3,0,0.5,0,0.7-0.1s0.4-0.2,0.5-0.3c0.1-0.2,0.3-0.4,0.4-0.8c0.1-0.3,0.2-0.8,0.3-1.3
		l1.6,0.3c0,0.2-0.1,0.4-0.1,0.7c0,0.3-0.1,0.5-0.1,0.7c0,0.3,0.1,0.5,0.4,0.7c0.2,0.2,0.7,0.2,1.2,0.2c0.3,0,0.5,0.1,0.6,0.2
		c0.1,0.2,0.2,0.4,0.2,0.6c0,0.2-0.1,0.5-0.2,0.6s-0.4,0.2-0.7,0.2c-0.6,0-1-0.1-1.4-0.2c-0.4-0.1-0.7-0.4-0.9-0.8
		c-0.2,0.3-0.5,0.5-0.8,0.6s-0.6,0.2-0.9,0.3C124,180.7,123.7,180.7,123.4,180.7z M125.1,175.4c-0.2,0-0.4-0.1-0.6-0.2
		c-0.2-0.2-0.2-0.4-0.2-0.6c0-0.2,0.1-0.4,0.2-0.6c0.2-0.2,0.4-0.3,0.6-0.3c0.2,0,0.4,0.1,0.6,0.3c0.2,0.2,0.2,0.4,0.2,0.6
		c0,0.2-0.1,0.4-0.2,0.6C125.6,175.4,125.4,175.4,125.1,175.4z M127.2,175.4c-0.2,0-0.4-0.1-0.6-0.2c-0.2-0.2-0.2-0.4-0.2-0.6
		c0-0.2,0.1-0.4,0.2-0.6s0.4-0.3,0.6-0.3c0.2,0,0.4,0.1,0.6,0.3c0.2,0.2,0.2,0.4,0.2,0.6c0,0.2-0.1,0.4-0.2,0.6
		C127.6,175.4,127.4,175.4,127.2,175.4z"/>
	<path class="st1" d="M128.3,180.7l0.1-1.7c0.4,0,0.6,0,0.8-0.1s0.3-0.2,0.3-0.4s0-0.5,0-0.9l-0.2-5.7h1.7l0.2,5.8
		c0,0.5,0,0.9-0.1,1.3c-0.1,0.4-0.2,0.7-0.4,1c-0.2,0.3-0.5,0.5-0.9,0.6S128.9,180.7,128.3,180.7z"/>
	<path class="st1" d="M140,180.9c-1.2,0-2.1-0.1-2.8-0.3c-0.7-0.2-1.2-0.6-1.5-1c-0.3-0.4-0.5-0.9-0.5-1.4c0-0.4,0-0.8,0.1-1.2
		c0.1-0.4,0.2-0.7,0.3-1l1.5,0.3c-0.1,0.2-0.1,0.5-0.2,0.7c-0.1,0.3-0.1,0.5-0.1,0.7c0,0.3,0.1,0.6,0.3,0.8c0.2,0.2,0.6,0.4,1.1,0.5
		c0.5,0.1,1.1,0.2,2,0.2v0l0,0c1.6,0,2.7-0.1,3.5-0.3s1.1-0.5,1.1-0.9c0-0.3,0-0.6-0.1-1c-0.1-0.4-0.2-0.8-0.4-1.2l1.6-0.5
		c0.1,0.3,0.2,0.6,0.3,0.9s0.2,0.6,0.2,1c0.1,0.3,0.1,0.6,0.1,0.9c0,0.5-0.1,0.9-0.3,1.3c-0.2,0.4-0.6,0.6-1.1,0.9
		c-0.5,0.2-1.2,0.4-2,0.5C142.4,180.9,141.3,180.9,140,180.9L140,180.9L140,180.9z M139.9,175.4c-0.2,0-0.4-0.1-0.6-0.2
		s-0.2-0.4-0.2-0.6c0-0.2,0.1-0.4,0.2-0.6s0.4-0.3,0.6-0.3c0.2,0,0.4,0.1,0.6,0.3s0.2,0.4,0.2,0.6c0,0.2-0.1,0.4-0.2,0.6
		S140.2,175.4,139.9,175.4z M142,175.4c-0.2,0-0.4-0.1-0.6-0.2c-0.2-0.2-0.2-0.4-0.2-0.6c0-0.2,0.1-0.4,0.2-0.6
		c0.2-0.2,0.4-0.3,0.6-0.3c0.2,0,0.4,0.1,0.6,0.3c0.2,0.2,0.2,0.4,0.2,0.6c0,0.2-0.1,0.4-0.2,0.6C142.4,175.4,142.2,175.4,142,175.4
		z"/>
	<path class="st1" d="M148.2,180.7l-0.3-8.8h1.7l0.3,8.8H148.2z"/>
	<path class="st1" d="M151.2,183.4l-0.3-1.7c0.7-0.1,1.3-0.2,1.8-0.3c0.5-0.1,0.9-0.4,1.1-0.7h-0.3c-0.8,0-1.3-0.1-1.8-0.4
		c-0.4-0.3-0.6-0.8-0.6-1.4c0-0.4,0.1-0.7,0.2-1.1c0.1-0.4,0.3-0.7,0.5-1c0.2-0.3,0.5-0.5,0.8-0.7s0.6-0.3,1-0.3
		c0.5,0,0.9,0.1,1.3,0.4c0.4,0.3,0.6,0.7,0.9,1.2c0.2,0.5,0.3,1,0.3,1.6h0.9c0.3,0,0.5,0.1,0.6,0.2c0.1,0.2,0.2,0.4,0.2,0.6
		c0,0.2-0.1,0.5-0.3,0.6s-0.4,0.2-0.7,0.2h-1.1c-0.3,0.8-0.9,1.5-1.6,1.9C153.3,183.1,152.3,183.4,151.2,183.4z M152.7,178.6
		c0,0.1,0,0.2,0.1,0.3c0.1,0.1,0.2,0.2,0.4,0.2s0.6,0.1,1,0c0-0.5-0.1-0.8-0.2-1.1c-0.1-0.3-0.3-0.4-0.6-0.4c-0.2,0-0.3,0.1-0.4,0.2
		c-0.1,0.1-0.2,0.3-0.2,0.4C152.8,178.4,152.7,178.5,152.7,178.6z"/>
	<path class="st1" d="M156.8,180.7l0.1-1.7h0.6c0.2-0.2,0.3-0.5,0.5-0.7l-0.2-6.4h1.7l0.2,4.7c0.5-0.4,0.9-0.7,1.4-0.9
		c0.5-0.2,1-0.3,1.5-0.3c0.5,0,1,0.1,1.4,0.3s0.7,0.5,0.9,0.9s0.3,0.8,0.3,1.3c0,0.5-0.1,1-0.4,1.4s-0.8,0.8-1.5,1
		c-0.3,0.1-0.6,0.2-1,0.3s-0.7,0.1-1.2,0.2s-1,0.1-1.7,0.1H156.8z M162.5,177c-0.4,0-0.7,0.1-1.1,0.3c-0.4,0.2-0.7,0.5-1,0.8
		c-0.3,0.3-0.6,0.7-0.9,1h0.1c1,0,1.8,0,2.4-0.2c0.6-0.1,1-0.2,1.2-0.4c0.2-0.2,0.3-0.4,0.3-0.6c0-0.2-0.1-0.4-0.2-0.6
		C163.1,177.1,162.8,177,162.5,177z M165.9,180.7c-0.6,0-1.2-0.1-1.7-0.2c-0.5-0.2-0.9-0.4-1.2-0.6l1.1-1.2c0.3,0.1,0.6,0.2,0.9,0.3
		c0.3,0.1,0.7,0.1,1.1,0.1c0.3,0,0.5,0.1,0.6,0.2c0.1,0.2,0.2,0.4,0.2,0.6c0,0.2-0.1,0.5-0.3,0.6S166.3,180.7,165.9,180.7z"/>
	<path class="st1" d="M166,180.7l0.1-1.7c0.9,0,1.7-0.1,2.5-0.3c0.8-0.2,1.5-0.5,2.2-0.9c-0.4-0.2-0.8-0.4-1.2-0.5s-0.9-0.2-1.5-0.2
		c-0.2,0-0.4,0-0.6,0c-0.2,0-0.4,0.1-0.6,0.1l-0.2-1.6c0.2-0.1,0.5-0.1,0.7-0.1c0.3,0,0.5,0,0.7,0c0.5,0,1,0.1,1.5,0.2
		c0.4,0.1,0.8,0.3,1.2,0.5c0.4,0.2,0.7,0.4,1,0.5c0.3,0.1,0.6,0.2,0.9,0.2h0.4l0.2,1.6c-0.4,0-0.7,0.1-1,0.2
		c-0.3,0.1-0.6,0.3-0.9,0.4s-0.6,0.3-0.9,0.5c-0.3,0.2-0.7,0.4-1.1,0.5s-0.9,0.3-1.4,0.4C167.3,180.7,166.7,180.7,166,180.7z
		 M168,174.4c-0.2,0-0.5-0.1-0.6-0.3c-0.2-0.2-0.3-0.4-0.3-0.6s0.1-0.5,0.3-0.6c0.2-0.2,0.4-0.3,0.6-0.3c0.2,0,0.4,0.1,0.6,0.3
		s0.3,0.4,0.3,0.6s-0.1,0.5-0.3,0.6S168.3,174.4,168,174.4z"/>
	<path class="st1" d="M181.7,180.9c-1.2,0-2.1-0.1-2.8-0.3c-0.7-0.2-1.2-0.6-1.5-1c-0.3-0.4-0.5-0.9-0.5-1.4c0-0.4,0-0.8,0.1-1.2
		c0.1-0.4,0.2-0.7,0.3-1l1.5,0.3c-0.1,0.2-0.1,0.5-0.2,0.7c-0.1,0.3-0.1,0.5-0.1,0.7c0,0.3,0.1,0.6,0.3,0.8c0.2,0.2,0.6,0.4,1,0.5
		s1.1,0.2,2,0.2v0l0,0c1.6,0,2.7-0.1,3.5-0.3s1.1-0.5,1.1-0.9c0-0.3,0-0.6-0.1-1c-0.1-0.4-0.2-0.8-0.4-1.2l1.6-0.5
		c0.1,0.3,0.2,0.6,0.3,0.9c0.1,0.3,0.2,0.6,0.2,1c0.1,0.3,0.1,0.6,0.1,0.9c0,0.5-0.1,0.9-0.3,1.3c-0.2,0.4-0.6,0.6-1.1,0.9
		c-0.5,0.2-1.2,0.4-2,0.5S183,180.9,181.7,180.9L181.7,180.9L181.7,180.9z M181.8,175.4c-0.2,0-0.4-0.1-0.5-0.2
		c-0.1-0.2-0.2-0.3-0.2-0.5s0.1-0.4,0.2-0.5c0.1-0.1,0.3-0.2,0.5-0.2s0.4,0.1,0.5,0.2c0.1,0.1,0.2,0.3,0.2,0.5s-0.1,0.4-0.2,0.5
		C182.2,175.3,182,175.4,181.8,175.4z M182.7,173.8c-0.2,0-0.4-0.1-0.5-0.2c-0.1-0.2-0.2-0.3-0.2-0.5s0.1-0.4,0.2-0.5
		c0.1-0.1,0.3-0.2,0.5-0.2s0.4,0.1,0.5,0.2c0.1,0.1,0.2,0.3,0.2,0.5s-0.1,0.4-0.2,0.5C183.1,173.8,182.9,173.8,182.7,173.8z
		 M183.6,175.4c-0.2,0-0.4-0.1-0.5-0.2c-0.1-0.2-0.2-0.3-0.2-0.5s0.1-0.4,0.2-0.5c0.1-0.1,0.3-0.2,0.5-0.2c0.2,0,0.4,0.1,0.5,0.2
		c0.1,0.1,0.2,0.3,0.2,0.5s-0.1,0.4-0.2,0.5C184,175.3,183.8,175.4,183.6,175.4z"/>
	<path class="st1" d="M190.6,180.7c-0.2,0-0.4,0-0.7-0.1s-0.4-0.1-0.5-0.1l0.2-1.7c0.6,0.1,1.1,0.1,1.7,0c0.5-0.1,1-0.2,1.4-0.4
		c-0.3-0.5-0.8-1.1-1.4-1.7s-1.3-1.4-2.1-2.1l1-1.1c0.7,0.7,1.3,1.2,1.7,1.7c0.5,0.5,0.8,0.9,1.1,1.2c0.3,0.3,0.5,0.6,0.7,0.8
		c0.1-0.4,0.2-0.7,0.2-1.2l-0.2-4.1h1.7l0.3,5.9c0,0.4,0.1,0.6,0.1,0.8c0.1,0.2,0.2,0.3,0.4,0.4c0.2,0.1,0.4,0.1,0.8,0.1
		c0.3,0,0.5,0.1,0.7,0.2c0.1,0.2,0.2,0.4,0.2,0.6c0,0.2-0.1,0.5-0.3,0.6s-0.4,0.2-0.7,0.2c-0.6,0-1.1-0.1-1.5-0.2
		c-0.4-0.1-0.7-0.3-0.9-0.5c-0.2-0.2-0.3-0.5-0.4-0.9c-0.2,0.4-0.5,0.6-0.8,0.8c-0.3,0.2-0.6,0.4-1,0.5c-0.3,0.1-0.7,0.2-1,0.2
		C191.2,180.7,190.9,180.7,190.6,180.7z"/>
	<path class="st1" d="M197.1,180.7l0.1-1.7c0.5,0,0.8,0,1.1-0.1s0.4-0.1,0.5-0.3c0.1-0.1,0.2-0.3,0.2-0.6c0-0.2,0-0.5-0.1-0.8
		c-0.1-0.3-0.1-0.6-0.2-1c-0.1-0.3-0.2-0.6-0.3-0.9l1.7-0.5c0.1,0.3,0.2,0.6,0.3,0.9c0.1,0.4,0.2,0.7,0.2,1.1
		c0.1,0.4,0.1,0.7,0.1,1.1c0,0.5-0.1,1-0.3,1.3c-0.2,0.3-0.4,0.6-0.7,0.8c-0.3,0.2-0.7,0.3-1.1,0.4
		C198.1,180.7,197.6,180.7,197.1,180.7z M198.4,174c-0.2,0-0.4-0.1-0.5-0.2c-0.1-0.2-0.2-0.3-0.2-0.5s0.1-0.4,0.2-0.5
		c0.1-0.1,0.3-0.2,0.5-0.2s0.4,0.1,0.5,0.2c0.1,0.1,0.2,0.3,0.2,0.5s-0.1,0.4-0.2,0.5C198.8,173.9,198.6,174,198.4,174z
		 M199.4,172.4c-0.2,0-0.4-0.1-0.5-0.2c-0.1-0.2-0.2-0.3-0.2-0.5s0.1-0.4,0.2-0.5c0.1-0.1,0.3-0.2,0.5-0.2s0.4,0.1,0.5,0.2
		c0.1,0.1,0.2,0.3,0.2,0.5s-0.1,0.4-0.2,0.5C199.8,172.3,199.6,172.4,199.4,172.4z M200.3,174c-0.2,0-0.4-0.1-0.5-0.2
		c-0.1-0.2-0.2-0.3-0.2-0.5s0.1-0.4,0.2-0.5c0.1-0.1,0.3-0.2,0.5-0.2c0.2,0,0.4,0.1,0.5,0.2c0.1,0.1,0.2,0.3,0.2,0.5
		s-0.1,0.4-0.2,0.5S200.5,174,200.3,174z"/>
</g>
</svg>
