<?xml version="1.0" encoding="utf-8"?>
<!-- Generator: Adobe Illustrator 23.0.0, SVG Export Plug-In . SVG Version: 6.00 Build 0)  -->
<svg version="1.1" id="Layer_1" xmlns="http://www.w3.org/2000/svg" xmlns:xlink="http://www.w3.org/1999/xlink" x="0px" y="0px"
	 viewBox="0 0 467.9 131" style="enable-background:new 0 0 467.9 131;" xml:space="preserve">
<style type="text/css">
	.st0{fill:#1D4ED8;}
</style>
<g>
	<path class="st0" d="M333.7,5.2v120.7h120.7V5.2H333.7z M434.7,66.4h-20.4V46H394v20.4V85h20.4h20.4v20.4h-20.4H394h-20.4h-20.4V85
		h20.4V66.4V46H394V25.7h20.4V46h20.4L434.7,66.4L434.7,66.4z"/>
	<g>
		<path class="st0" d="M96.3,76.5l-2.7,10.1H30.1c-3.4,0-6.6-0.9-9.4-2.8s-4.8-4.3-5.9-7.4c-0.8-1.7-1.3-3.8-1.3-6.3V49.2l10.2-1.5
			c0,10.4,0.1,17.1,0.2,20.3c0,5.8,3.4,8.6,10.1,8.6h20.6l-0.1-0.2c-0.8-1.6-1.2-3.7-1.2-6.4v-9.6c0-2.4,0.4-4.5,1.2-6.4
			c1.8-4.3,4.8-7.3,9.1-8.9c2-1,4.1-1.4,6.3-1.4h9.8c2,0,4.1,0.5,6.4,1.4c4.2,1.6,7.2,4.6,8.9,8.9c0.9,2.1,1.4,4.3,1.4,6.4v16.1
			H96.3z M85.9,64c0-6.7-2.9-10.1-8.7-10.1h-5.3c-5.8,0-8.7,3.4-8.7,10.1v2.3c0,3.1,0.7,5.6,2.1,7.4c1.5,1.9,3.7,2.9,6.5,2.9h14
			L85.9,64L85.9,64z M70.1,28.3c0-1,0.3-1.8,1-2.4c0.7-0.7,1.4-1,2.4-1h7.4v6.9c0,1-0.3,1.8-1,2.4c-0.7,0.7-1.4,1-2.4,1h-7.4V28.3z"
			/>
		<path class="st0" d="M104.5,86.6V20.5l10.3-1.7v67.8C114.8,86.6,104.5,86.6,104.5,86.6z"/>
		<path class="st0" d="M144,91.2c0,2.5-0.4,4.6-1.2,6.4c-1.8,4.4-4.8,7.4-9.1,9.1c-2.2,0.8-4.3,1.2-6.3,1.2h-6.9l-1.6-10.2h6.3
			c2.9,0,5.1-0.9,6.6-2.8c1.4-1.8,2.1-4.2,2.1-7.3V45.3l10.1-1.8L144,91.2L144,91.2z"/>
		<path class="st0" d="M143.8,86.6V76.5h5.2c6.6,0,10.1-2.7,10.3-8.1V47.6l10.2,1.5v18.7c0,4.4,1.7,7.2,5,8.5
			c-0.3-9.4,0.2-15.5,1.3-18.1c1.6-3.8,7.2-7.3,16.8-10.6c8.2-2.7,14.8-4.1,19.8-4.1c3.7,0,7,0.8,10,2.5c3.3,1.8,5.6,4.4,6.9,7.8
			c0.9,2,1.3,4.2,1.3,6.4v9.6c0,2.2-0.4,4.4-1.3,6.4c-1.7,4.4-4.7,7.4-8.9,9.1c-2.4,0.8-4.5,1.2-6.4,1.2h-38
			c-4.5,0-8.3-1.5-11.5-4.5c-3.2,3-7.1,4.5-11.5,4.5L143.8,86.6L143.8,86.6z M184.7,72.3c-0.1,1.9-0.1,3.3-0.1,4.2h27
			c2.9,0,5-1,6.5-2.9c1.4-1.8,2.1-4.2,2.1-7.4v-3.1c-0.3-6.2-3.1-9.2-8.6-9.2h-1c-4.1,0-9.1,1.1-14.9,3.2c-7.3,2.7-10.9,6-10.9,9.8
			C184.8,68.7,184.7,70.5,184.7,72.3z"/>
		<path class="st0" d="M229.1,86.6V76.5h5.1c6.9,0,10.3-2.9,10.3-8.6V43.6l10.3,1.8v24.8c0,2.1-0.4,4.2-1.3,6.3
			c-1.2,3-3.3,5.5-6.1,7.4c-2.7,1.9-5.9,2.8-9.3,2.8h-9V86.6z M249.8,31.5c0,1-0.3,1.8-1,2.4c-0.7,0.7-1.5,1-2.4,1H239V28
			c0-0.9,0.3-1.6,1-2.3c0.7-0.7,1.5-1,2.4-1h7.4V31.5z"/>
		<path class="st0" d="M258.1,103.2c0-4,1.9-6.7,5.6-8.2c1.1-0.4,2.2-0.7,3.4-0.7h13.4l1.2,6h-12.9c-2.9,0-4.4,1.5-4.5,4.6v1.5
			c0,3.2,1.4,4.9,4.2,5.1h14.8l-0.9,6.1H255l-0.8-6.1h4.5c-0.3-0.9-0.4-1.8-0.4-2.8v-5.5H258.1z M263.1,86.6V20.5l10.3-1.7v67.8
			C273.4,86.6,263.1,86.6,263.1,86.6z"/>
	</g>
</g>
</svg>
