<svg xmlns="http://www.w3.org/2000/svg" width="207.652" height="237.046" viewBox="0 0 207.652 237.046"><g transform="translate(-0.502 -0.839)"><path d="M169.905,197.5C71.049,260.328,78.229,163.984,18.49,92.319-36.2-9.089,41.385-20.278,149.288,29.814,245.365,74.416,202.372,176.866,169.905,197.5ZM40.933,189.3c12.462,32.185,51.409,51.166,6.782,48.3,10.017.643-53.383-16.349-40.441-44.05C11.143,185.268,36.028,176.634,40.933,189.3Z" transform="translate(0 0)" fill="#1d4ed7" fill-rule="evenodd"/><path d="M45.528,174.553c2.256,1.88,4.11,4.241,3.929,5.845a26.631,26.631,0,0,0-.164,2.924c0,14.591,11.473,26.415,25.624,26.415a25.035,25.035,0,0,0,5.1-.524,8.862,8.862,0,0,1,8.026,2.726,25.077,25.077,0,0,0,38.291-.884,7.482,7.482,0,0,1,7.839-2.367,24.85,24.85,0,0,0,7.154,1.049c14.151,0,25.625-11.828,25.625-26.415a26.629,26.629,0,0,0-.432-4.775,9.462,9.462,0,0,1,2.908-7.9,26.885,26.885,0,0,0-1.37-39.8c-2.256-1.88-4.109-4.239-3.93-5.845a26.62,26.62,0,0,0,.166-2.924c0-14.589-11.475-26.415-25.626-26.415a25,25,0,0,0-5.1.525,8.858,8.858,0,0,1-8.024-2.727,25.027,25.027,0,0,0-37.5,0,8.868,8.868,0,0,1-8.026,2.727,24.986,24.986,0,0,0-5.1-.525c-14.151,0-25.624,11.829-25.624,26.415a26.724,26.724,0,0,0,.319,4.131c.35,2.263-1.235,5.053-3.541,6.872a26.865,26.865,0,0,0-.542,41.474Z" transform="translate(-11.106 -26.325)" fill="#fff" stroke="#fff" stroke-width="2" fill-rule="evenodd"/><path d="M57.721,175.774c1.961,1.624,3.574,3.662,3.417,5.048a22.664,22.664,0,0,0-.143,2.526c0,12.6,9.977,22.814,22.282,22.814a21.91,21.91,0,0,0,4.438-.453,7.736,7.736,0,0,1,6.978,2.354,21.9,21.9,0,0,0,33.3-.764,6.533,6.533,0,0,1,6.815-2.044,21.748,21.748,0,0,0,6.222.906c12.305,0,22.282-10.215,22.282-22.814a22.82,22.82,0,0,0-.375-4.124,8.139,8.139,0,0,1,2.53-6.82,23.114,23.114,0,0,0-1.191-34.376c-1.963-1.623-3.574-3.661-3.418-5.048a22.834,22.834,0,0,0,.144-2.526c0-12.6-9.978-22.814-22.282-22.814a21.873,21.873,0,0,0-4.438.454,7.734,7.734,0,0,1-6.978-2.355,21.864,21.864,0,0,0-32.609,0,7.74,7.74,0,0,1-6.978,2.355,21.861,21.861,0,0,0-4.438-.454c-12.3,0-22.282,10.216-22.282,22.814a23.02,23.02,0,0,0,.277,3.567c.305,1.955-1.074,4.365-3.08,5.936a23.1,23.1,0,0,0-.471,35.818Zm23.484-16.9c.493-.871,1.755-.883,2.91.115l11.623,8.158a3.526,3.526,0,0,0,1.814.577,4.893,4.893,0,0,0,3.065-1.688l37.2-37.07c2.326-2.518,4.588-3.405,6.064-2.44a2.738,2.738,0,0,1,1.24,1.893,3.567,3.567,0,0,1-.91,2.789L99.484,185.3a3.057,3.057,0,0,1-2.326,1.216,2.922,2.922,0,0,1-2.513-1.659L81.517,161.3A2.459,2.459,0,0,1,81.205,158.875Z" transform="translate(-15.307 -30.526)" fill="#3eb142" fill-rule="evenodd"/></g></svg>